{
DisplayStrings = (
C,
C,
G,
I,
J,
L,
K,
L,
M,
N,
O,
P,
P,
R,
S,
S,
T,
U,
V,
W,
X,
Y,
Z,
H,
B,
O,
Q,
N,
O,
Q,
L,
O,
Q,
M,
N,
O,
Q,
Q,
d,
b,
c,
g,
h,
i,
j,
i,
j,
j,
k,
l,
m,
n,
m,
o,
p,
q,
r,
s,
t,
u,
v,
w,
x,
y,
z,
v,
v,
v,
v,
"-",
"\U2013",
"-",
"\U2014",
.,
i,
.,
"\U2022",
v,
w,
N,
V,
W,
W,
"\U2212",
"\U2013",
"\U2212",
"\U2212",
"=",
"\U201C",
"\U201C",
"\U2212",
"+",
",",
";",
":",
"\U2022",
";",
";",
":",
";",
"\U201C",
"\U201D",
"\U201C",
"\U201D",
"\U201C",
":",
"!",
l,
"!",
8,
0,
1,
"\U201C",
"\U2018",
"\U201D",
"\U2019",
2,
3,
4,
5,
6,
7,
9,
6,
9,
8,
3,
5,
8,
"\U2018",
"\U2019",
"(",
")",
"(",
")",
"|",
l,
"|",
"&",
/dryclean.petroleumsolventonly,
"\U00A9",
P,
/published,
/published,
"\U00A9",
"&",
g,
g,
"\U00A9",
/published,
i,
j,
i,
d,
"'",
"\U2019",
"'"
);
copyright = "Copyright \U00A9 2011 by MethMaus . All rights reserved.";
date = "2011-05-24 16:33:44 +0200";
familyName = FeltPen;
fontMaster = (
{
ascender = 750;
capHeight = 682;
descender = "-250";
id = "C0403F1F-3C96-483E-B2A6-FF5F8E230CEF";
italicAngle = 0;
weight = Light;
weightValue = 100;
widthValue = 5;
xHeight = 486;
}
);
glyphs = (
{
changeCount = 0;
color = 4;
glyphname = A;
layers = (
{
background = {
paths = (
{
closed = 1;
nodes = (
"404 197 LINE",
"109 197 LINE",
"47 0 LINE",
"20 0 LINE",
"239 682 LINE",
"275 682 LINE",
"494 0 LINE",
"468 0 LINE"
);
},
{
closed = 1;
nodes = (
"210 511 LINE",
"117 221 LINE",
"396 221 LINE",
"303 511 LINE",
"258 654 LINE",
"255 654 LINE"
);
}
);
};
layerId = "C0403F1F-3C96-483E-B2A6-FF5F8E230CEF";
name = Light;
paths = (
{
closed = 1;
nodes = (
"258 67 LINE",
"481 -1 LINE",
"258 682 LINE",
"34 -1 LINE"
);
},
{
closed = 1;
nodes = (
"258 355 LINE",
"105 214 LINE",
"411 214 LINE"
);
}
);
width = 514;
}
);
unicode = 0041;
},
{
changeCount = 0;
export = 0;
glyphname = AE;
layers = (
{
layerId = "C0403F1F-3C96-483E-B2A6-FF5F8E230CEF";
name = Light;
paths = (
{
closed = 1;
nodes = (
"461 197 LINE",
"167 197 LINE",
"41 0 LINE",
"10 0 LINE",
"448 682 LINE",
"804 682 LINE",
"804 658 LINE",
"488 658 LINE",
"487 375 LINE",
"762 375 LINE",
"762 350 LINE",
"487 350 LINE",
"487 24 LINE",
"821 24 LINE",
"821 0 LINE",
"460 0 LINE"
);
},
{
closed = 1;
nodes = (
"182 221 LINE",
"461 221 LINE",
"461 654 LINE",
"458 654 LINE"
);
}
);
width = 854;
}
);
leftKerningGroupId = "@MMK_R_A";
unicode = 00C6;
},
{
changeCount = 0;
export = 0;
glyphname = AEacute;
layers = (
{
layerId = "C0403F1F-3C96-483E-B2A6-FF5F8E230CEF";
name = Light;
paths = (
{
closed = 1;
nodes = (
"461 197 LINE",
"167 197 LINE",
"41 0 LINE",
"10 0 LINE",
"448 682 LINE",
"804 682 LINE",
"804 658 LINE",
"488 658 LINE",
"487 375 LINE",
"762 375 LINE",
"762 350 LINE",
"487 350 LINE",
"487 24 LINE",
"821 24 LINE",
"821 0 LINE",
"460 0 LINE"
);
},
{
closed = 1;
nodes = (
"182 221 LINE",
"461 221 LINE",
"461 654 LINE",
"458 654 LINE"
);
},
{
closed = 1;
nodes = (
"540 723 LINE",
"640 866 LINE",
"666 844 LINE",
"555 713 LINE"
);
}
);
width = 854;
}
);
leftKerningGroupId = "@MMK_R_A";
unicode = 01FC;
},
{
changeCount = 0;
export = 0;
glyphname = Aacute;
layers = (
{
layerId = "C0403F1F-3C96-483E-B2A6-FF5F8E230CEF";
name = Light;
paths = (
{
closed = 1;
nodes = (
"404 197 LINE",
"109 197 LINE",
"47 0 LINE",
"20 0 LINE",
"239 682 LINE",
"275 682 LINE",
"494 0 LINE",
"468 0 LINE"
);
},
{
closed = 1;
nodes = (
"210 511 LINE",
"117 221 LINE",
"396 221 LINE",
"303 511 LINE",
"258 654 LINE",
"255 654 LINE"
);
},
{
closed = 1;
nodes = (
"237 723 LINE",
"337 866 LINE",
"363 844 LINE",
"252 713 LINE"
);
}
);
width = 514;
}
);
leftKerningGroupId = "@MMK_R_A";
unicode = 00C1;
},
{
changeCount = 0;
export = 0;
glyphname = Abreve;
layers = (
{
layerId = "C0403F1F-3C96-483E-B2A6-FF5F8E230CEF";
name = Light;
paths = (
{
closed = 1;
nodes = (
"404 197 LINE",
"109 197 LINE",
"47 0 LINE",
"20 0 LINE",
"239 682 LINE",
"275 682 LINE",
"494 0 LINE",
"468 0 LINE"
);
},
{
closed = 1;
nodes = (
"210 511 LINE",
"117 221 LINE",
"396 221 LINE",
"303 511 LINE",
"258 654 LINE",
"255 654 LINE"
);
},
{
closed = 1;
nodes = (
"191 718 OFFCURVE",
"142 760 OFFCURVE",
"113 808 CURVE",
"137 822 LINE",
"168 775 OFFCURVE",
"209 744 OFFCURVE",
"253 744 CURVE SMOOTH",
"289 744 OFFCURVE",
"331 763 OFFCURVE",
"386 818 CURVE",
"399 809 LINE",
"347 740 OFFCURVE",
"296 718 OFFCURVE",
"251 718 CURVE SMOOTH"
);
}
);
width = 514;
}
);
leftKerningGroupId = "@MMK_R_A";
unicode = 0102;
},
{
changeCount = 0;
export = 0;
glyphname = Acircumflex;
layers = (
{
layerId = "C0403F1F-3C96-483E-B2A6-FF5F8E230CEF";
name = Light;
paths = (
{
closed = 1;
nodes = (
"404 197 LINE",
"109 197 LINE",
"47 0 LINE",
"20 0 LINE",
"239 682 LINE",
"275 682 LINE",
"494 0 LINE",
"468 0 LINE"
);
},
{
closed = 1;
nodes = (
"210 511 LINE",
"117 221 LINE",
"396 221 LINE",
"303 511 LINE",
"258 654 LINE",
"255 654 LINE"
);
},
{
closed = 1;
nodes = (
"256 803 LINE",
"124 700 LINE",
"113 712 LINE",
"242 835 LINE",
"270 835 LINE",
"398 713 LINE",
"388 701 LINE"
);
}
);
width = 514;
}
);
leftKerningGroupId = "@MMK_R_A";
unicode = 00C2;
},
{
changeCount = 0;
export = 0;
glyphname = Adieresis;
layers = (
{
layerId = "C0403F1F-3C96-483E-B2A6-FF5F8E230CEF";
name = Light;
paths = (
{
closed = 1;
nodes = (
"404 197 LINE",
"109 197 LINE",
"47 0 LINE",
"20 0 LINE",
"239 682 LINE",
"275 682 LINE",
"494 0 LINE",
"468 0 LINE"
);
},
{
closed = 1;
nodes = (
"210 511 LINE",
"117 221 LINE",
"396 221 LINE",
"303 511 LINE",
"258 654 LINE",
"255 654 LINE"
);
},
{
closed = 1;
nodes = (
"214 741 OFFCURVE",
"204 731 OFFCURVE",
"189 731 CURVE SMOOTH",
"176 731 OFFCURVE",
"165 741 OFFCURVE",
"165 756 CURVE SMOOTH",
"165 771 OFFCURVE",
"176 781 OFFCURVE",
"189 781 CURVE SMOOTH",
"204 781 OFFCURVE",
"214 771 OFFCURVE",
"214 756 CURVE SMOOTH"
);
},
{
closed = 1;
nodes = (
"347 741 OFFCURVE",
"337 731 OFFCURVE",
"322 731 CURVE SMOOTH",
"309 731 OFFCURVE",
"298 741 OFFCURVE",
"298 756 CURVE SMOOTH",
"298 771 OFFCURVE",
"309 781 OFFCURVE",
"322 781 CURVE SMOOTH",
"337 781 OFFCURVE",
"347 771 OFFCURVE",
"347 756 CURVE SMOOTH"
);
}
);
width = 514;
}
);
leftKerningGroupId = "@MMK_R_A";
unicode = 00C4;
},
{
changeCount = 0;
export = 0;
glyphname = Agrave;
layers = (
{
layerId = "C0403F1F-3C96-483E-B2A6-FF5F8E230CEF";
name = Light;
paths = (
{
closed = 1;
nodes = (
"404 197 LINE",
"109 197 LINE",
"47 0 LINE",
"20 0 LINE",
"239 682 LINE",
"275 682 LINE",
"494 0 LINE",
"468 0 LINE"
);
},
{
closed = 1;
nodes = (
"210 511 LINE",
"117 221 LINE",
"396 221 LINE",
"303 511 LINE",
"258 654 LINE",
"255 654 LINE"
);
},
{
closed = 1;
nodes = (
"257 713 LINE",
"146 844 LINE",
"172 866 LINE",
"272 723 LINE"
);
}
);
width = 514;
}
);
leftKerningGroupId = "@MMK_R_A";
unicode = 00C0;
},
{
changeCount = 0;
export = 0;
glyphname = Amacron;
layers = (
{
layerId = "C0403F1F-3C96-483E-B2A6-FF5F8E230CEF";
name = Light;
paths = (
{
closed = 1;
nodes = (
"404 197 LINE",
"109 197 LINE",
"47 0 LINE",
"20 0 LINE",
"239 682 LINE",
"275 682 LINE",
"494 0 LINE",
"468 0 LINE"
);
},
{
closed = 1;
nodes = (
"210 511 LINE",
"117 221 LINE",
"396 221 LINE",
"303 511 LINE",
"258 654 LINE",
"255 654 LINE"
);
},
{
closed = 1;
nodes = (
"400 774 LINE",
"400 748 LINE",
"114 748 LINE",
"114 774 LINE"
);
}
);
width = 514;
}
);
leftKerningGroupId = "@MMK_R_A";
unicode = 0100;
},
{
changeCount = 0;
export = 0;
glyphname = Aogonek;
layers = (
{
layerId = "C0403F1F-3C96-483E-B2A6-FF5F8E230CEF";
name = Light;
paths = (
{
closed = 1;
nodes = (
"468 0 LINE",
"419 -47 OFFCURVE",
"407 -92 OFFCURVE",
"407 -117 CURVE SMOOTH",
"407 -157 OFFCURVE",
"436 -168 OFFCURVE",
"471 -168 CURVE SMOOTH",
"498 -168 OFFCURVE",
"521 -163 OFFCURVE",
"540 -158 CURVE",
"545 -172 LINE",
"516 -187 OFFCURVE",
"484 -193 OFFCURVE",
"459 -193 CURVE SMOOTH",
"400 -193 OFFCURVE",
"377 -163 OFFCURVE",
"377 -127 CURVE SMOOTH",
"377 -91 OFFCURVE",
"394 -42 OFFCURVE",
"463 15 CURVE",
"404 197 LINE",
"109 197 LINE",
"47 0 LINE",
"20 0 LINE",
"239 682 LINE",
"275 682 LINE",
"494 0 LINE"
);
},
{
closed = 1;
nodes = (
"210 511 LINE",
"117 221 LINE",
"396 221 LINE",
"303 511 LINE",
"258 654 LINE",
"255 654 LINE"
);
}
);
width = 514;
}
);
leftKerningGroupId = "@MMK_R_A";
unicode = 0104;
},
{
changeCount = 0;
export = 0;
glyphname = Aring;
layers = (
{
layerId = "C0403F1F-3C96-483E-B2A6-FF5F8E230CEF";
name = Light;
paths = (
{
closed = 1;
nodes = (
"404 197 LINE",
"109 197 LINE",
"47 0 LINE",
"20 0 LINE",
"239 682 LINE",
"275 682 LINE",
"494 0 LINE",
"468 0 LINE"
);
},
{
closed = 1;
nodes = (
"210 511 LINE",
"117 221 LINE",
"396 221 LINE",
"303 511 LINE",
"258 654 LINE",
"255 654 LINE"
);
},
{
closed = 1;
nodes = (
"201 707 OFFCURVE",
"172 744 OFFCURVE",
"172 788 CURVE SMOOTH",
"172 832 OFFCURVE",
"207 870 OFFCURVE",
"256 870 CURVE SMOOTH",
"307 870 OFFCURVE",
"338 833 OFFCURVE",
"338 788 CURVE SMOOTH",
"338 743 OFFCURVE",
"307 707 OFFCURVE",
"256 707 CURVE SMOOTH"
);
},
{
closed = 1;
nodes = (
"217 847 OFFCURVE",
"197 824 OFFCURVE",
"197 787 CURVE SMOOTH",
"197 748 OFFCURVE",
"217 727 OFFCURVE",
"256 727 CURVE SMOOTH",
"292 727 OFFCURVE",
"314 748 OFFCURVE",
"314 787 CURVE SMOOTH",
"314 823 OFFCURVE",
"292 847 OFFCURVE",
"256 847 CURVE SMOOTH"
);
}
);
width = 514;
}
);
leftKerningGroupId = "@MMK_R_A";
unicode = 00C5;
},
{
changeCount = 0;
export = 0;
glyphname = Atilde;
layers = (
{
layerId = "C0403F1F-3C96-483E-B2A6-FF5F8E230CEF";
name = Light;
paths = (
{
closed = 1;
nodes = (
"404 197 LINE",
"109 197 LINE",
"47 0 LINE",
"20 0 LINE",
"239 682 LINE",
"275 682 LINE",
"494 0 LINE",
"468 0 LINE"
);
},
{
closed = 1;
nodes = (
"210 511 LINE",
"117 221 LINE",
"396 221 LINE",
"303 511 LINE",
"258 654 LINE",
"255 654 LINE"
);
},
{
closed = 1;
nodes = (
"135 740 LINE",
"122 747 LINE",
"133 782 OFFCURVE",
"160 804 OFFCURVE",
"189 804 CURVE SMOOTH",
"210 804 OFFCURVE",
"237 795 OFFCURVE",
"263 786 CURVE SMOOTH",
"289 777 OFFCURVE",
"315 768 OFFCURVE",
"335 768 CURVE",
"380 807 LINE",
"392 800 LINE",
"380 771 OFFCURVE",
"361 743 OFFCURVE",
"330 743 CURVE SMOOTH",
"313 743 OFFCURVE",
"285 753 OFFCURVE",
"257 762 CURVE SMOOTH",
"229 771 OFFCURVE",
"201 781 OFFCURVE",
"184 781 CURVE"
);
}
);
width = 514;
}
);
leftKerningGroupId = "@MMK_R_A";
unicode = 00C3;
},
{
changeCount = 0;
color = 4;
glyphname = B;
layers = (
{
background = {
paths = (
{
closed = 1;
nodes = (
"369 355 LINE",
"417 340 OFFCURVE",
"450 313 OFFCURVE",
"470 281 CURVE SMOOTH",
"490 248 OFFCURVE",
"498 211 OFFCURVE",
"498 179 CURVE SMOOTH",
"498 124 OFFCURVE",
"479 80 OFFCURVE",
"448 49 CURVE SMOOTH",
"416 18 OFFCURVE",
"372 0 OFFCURVE",
"323 0 CURVE SMOOTH",
"80 0 LINE",
"80 682 LINE",
"285 682 LINE SMOOTH",
"349 682 OFFCURVE",
"397 665 OFFCURVE",
"429 635 CURVE SMOOTH",
"460 605 OFFCURVE",
"475 563 OFFCURVE",
"475 515 CURVE SMOOTH",
"475 491 OFFCURVE",
"471 460 OFFCURVE",
"455 432 CURVE SMOOTH",
"439 403 OFFCURVE",
"412 376 OFFCURVE",
"368 357 CURVE"
);
},
{
closed = 1;
nodes = (
"107 342 LINE",
"107 24 LINE",
"314 24 LINE SMOOTH",
"370 24 OFFCURVE",
"410 43 OFFCURVE",
"435 73 CURVE SMOOTH",
"459 103 OFFCURVE",
"471 141 OFFCURVE",
"471 184 CURVE SMOOTH",
"471 224 OFFCURVE",
"454 264 OFFCURVE",
"426 293 CURVE SMOOTH",
"397 322 OFFCURVE",
"357 342 OFFCURVE",
"312 342 CURVE SMOOTH"
);
},
{
closed = 1;
nodes = (
"107 658 LINE",
"107 367 LINE",
"296 367 LINE SMOOTH",
"340 367 OFFCURVE",
"378 382 OFFCURVE",
"405 407 CURVE SMOOTH",
"432 432 OFFCURVE",
"448 468 OFFCURVE",
"448 511 CURVE SMOOTH",
"448 552 OFFCURVE",
"436 589 OFFCURVE",
"409 616 CURVE SMOOTH",
"382 643 OFFCURVE",
"342 658 OFFCURVE",
"283 658 CURVE SMOOTH"
);
}
);
};
layerId = "C0403F1F-3C96-483E-B2A6-FF5F8E230CEF";
name = Light;
paths = (
{
closed = 1;
nodes = (
"142 290 LINE",
"95 354 LINE",
"289 354 LINE SMOOTH",
"346 354 OFFCURVE",
"387 374 OFFCURVE",
"417 403 CURVE SMOOTH",
"445 431 OFFCURVE",
"462 468 OFFCURVE",
"462 515 CURVE SMOOTH",
"462 568 OFFCURVE",
"442 607 OFFCURVE",
"410 633 CURVE SMOOTH",
"377 659 OFFCURVE",
"332 671 OFFCURVE",
"284 671 CURVE SMOOTH",
"95 671 LINE",
"95 11 LINE",
"304 11 LINE SMOOTH",
"373 11 OFFCURVE",
"412 30 OFFCURVE",
"443 61 CURVE SMOOTH",
"473 92 OFFCURVE",
"484 135 OFFCURVE",
"484 186 CURVE SMOOTH",
"484 243 OFFCURVE",
"461 285 OFFCURVE",
"427 313 CURVE SMOOTH",
"393 341 OFFCURVE",
"349 354 OFFCURVE",
"298 354 CURVE"
);
}
);
width = 553;
}
);
unicode = 0042;
},
{
changeCount = 0;
color = 4;
glyphname = C;
layers = (
{
background = {
paths = (
{
closed = 1;
nodes = (
"504 19 LINE",
"483 11 OFFCURVE",
"451 5 OFFCURVE",
"419 1 CURVE SMOOTH",
"386 -4 OFFCURVE",
"352 -7 OFFCURVE",
"324 -7 CURVE SMOOTH",
"228 -7 OFFCURVE",
"162 26 OFFCURVE",
"120 85 CURVE SMOOTH",
"78 144 OFFCURVE",
"60 229 OFFCURVE",
"60 336 CURVE SMOOTH",
"60 385 OFFCURVE",
"65 441 OFFCURVE",
"81 494 CURVE SMOOTH",
"96 546 OFFCURVE",
"120 596 OFFCURVE",
"160 633 CURVE SMOOTH",
"200 669 OFFCURVE",
"254 692 OFFCURVE",
"327 692 CURVE SMOOTH",
"398 692 OFFCURVE",
"459 680 OFFCURVE",
"494 667 CURVE",
"486 644 LINE",
"435 659 OFFCURVE",
"377 668 OFFCURVE",
"329 668 CURVE SMOOTH",
"242 668 OFFCURVE",
"183 635 OFFCURVE",
"144 576 CURVE SMOOTH",
"104 517 OFFCURVE",
"87 434 OFFCURVE",
"87 334 CURVE SMOOTH",
"87 257 OFFCURVE",
"95 177 OFFCURVE",
"128 117 CURVE SMOOTH",
"161 57 OFFCURVE",
"222 17 OFFCURVE",
"327 17 CURVE SMOOTH",
"344 17 OFFCURVE",
"374 19 OFFCURVE",
"406 23 CURVE SMOOTH",
"437 26 OFFCURVE",
"470 31 OFFCURVE",
"497 39 CURVE"
);
}
);
};
layerId = "C0403F1F-3C96-483E-B2A6-FF5F8E230CEF";
name = Light;
paths = (
{
closed = 1;
nodes = (
"406 377 LINE",
"463 664 LINE SMOOTH",
"423 674 OFFCURVE",
"376 681 OFFCURVE",
"328 681 CURVE SMOOTH",
"248 681 OFFCURVE",
"192 652 OFFCURVE",
"152 606 CURVE SMOOTH",
"121 570 OFFCURVE",
"102 526 OFFCURVE",
"89 477 CURVE SMOOTH",
"78 432 OFFCURVE",
"73 383 OFFCURVE",
"73 336 CURVE SMOOTH",
"73 244 OFFCURVE",
"86 162 OFFCURVE",
"124 102 CURVE SMOOTH",
"161 43 OFFCURVE",
"225 6 OFFCURVE",
"325 6 CURVE SMOOTH",
"346 6 OFFCURVE",
"376 8 OFFCURVE",
"407 12 CURVE SMOOTH",
"410 13 OFFCURVE",
"414 13 OFFCURVE",
"418 14 CURVE SMOOTH",
"436 16 OFFCURVE",
"456 19 OFFCURVE",
"473 23 CURVE"
);
}
);
width = 539;
}
);
rightKerningGroupId = "@MMK_L_C";
unicode = 0043;
},
{
changeCount = 0;
export = 0;
glyphname = Cacute;
layers = (
{
layerId = "C0403F1F-3C96-483E-B2A6-FF5F8E230CEF";
name = Light;
paths = (
{
closed = 1;
nodes = (
"504 19 LINE",
"483 11 OFFCURVE",
"451 5 OFFCURVE",
"419 1 CURVE SMOOTH",
"386 -4 OFFCURVE",
"352 -7 OFFCURVE",
"324 -7 CURVE SMOOTH",
"228 -7 OFFCURVE",
"162 26 OFFCURVE",
"120 85 CURVE SMOOTH",
"78 144 OFFCURVE",
"60 229 OFFCURVE",
"60 336 CURVE SMOOTH",
"60 385 OFFCURVE",
"65 441 OFFCURVE",
"81 494 CURVE SMOOTH",
"96 546 OFFCURVE",
"120 596 OFFCURVE",
"160 633 CURVE SMOOTH",
"200 669 OFFCURVE",
"254 692 OFFCURVE",
"327 692 CURVE SMOOTH",
"398 692 OFFCURVE",
"459 680 OFFCURVE",
"494 667 CURVE",
"486 644 LINE",
"435 659 OFFCURVE",
"377 668 OFFCURVE",
"329 668 CURVE SMOOTH",
"242 668 OFFCURVE",
"183 635 OFFCURVE",
"144 576 CURVE SMOOTH",
"104 517 OFFCURVE",
"87 434 OFFCURVE",
"87 334 CURVE SMOOTH",
"87 257 OFFCURVE",
"95 177 OFFCURVE",
"128 117 CURVE SMOOTH",
"161 57 OFFCURVE",
"222 17 OFFCURVE",
"327 17 CURVE SMOOTH",
"344 17 OFFCURVE",
"374 19 OFFCURVE",
"406 23 CURVE SMOOTH",
"437 26 OFFCURVE",
"470 31 OFFCURVE",
"497 39 CURVE"
);
},
{
closed = 1;
nodes = (
"294 723 LINE",
"394 866 LINE",
"420 844 LINE",
"309 713 LINE"
);
}
);
width = 539;
}
);
leftKerningGroupId = "@MMK_R_C";
rightKerningGroupId = "@MMK_L_C";
unicode = 0106;
},
{
changeCount = 0;
export = 0;
glyphname = Ccaron;
layers = (
{
layerId = "C0403F1F-3C96-483E-B2A6-FF5F8E230CEF";
name = Light;
paths = (
{
closed = 1;
nodes = (
"504 19 LINE",
"483 11 OFFCURVE",
"451 5 OFFCURVE",
"419 1 CURVE SMOOTH",
"386 -4 OFFCURVE",
"352 -7 OFFCURVE",
"324 -7 CURVE SMOOTH",
"228 -7 OFFCURVE",
"162 26 OFFCURVE",
"120 85 CURVE SMOOTH",
"78 144 OFFCURVE",
"60 229 OFFCURVE",
"60 336 CURVE SMOOTH",
"60 385 OFFCURVE",
"65 441 OFFCURVE",
"81 494 CURVE SMOOTH",
"96 546 OFFCURVE",
"120 596 OFFCURVE",
"160 633 CURVE SMOOTH",
"200 669 OFFCURVE",
"254 692 OFFCURVE",
"327 692 CURVE SMOOTH",
"398 692 OFFCURVE",
"459 680 OFFCURVE",
"494 667 CURVE",
"486 644 LINE",
"435 659 OFFCURVE",
"377 668 OFFCURVE",
"329 668 CURVE SMOOTH",
"242 668 OFFCURVE",
"183 635 OFFCURVE",
"144 576 CURVE SMOOTH",
"104 517 OFFCURVE",
"87 434 OFFCURVE",
"87 334 CURVE SMOOTH",
"87 257 OFFCURVE",
"95 177 OFFCURVE",
"128 117 CURVE SMOOTH",
"161 57 OFFCURVE",
"222 17 OFFCURVE",
"327 17 CURVE SMOOTH",
"344 17 OFFCURVE",
"374 19 OFFCURVE",
"406 23 CURVE SMOOTH",
"437 26 OFFCURVE",
"470 31 OFFCURVE",
"497 39 CURVE"
);
},
{
closed = 1;
nodes = (
"439 852 LINE",
"449 840 LINE",
"321 718 LINE",
"293 718 LINE",
"164 841 LINE",
"175 853 LINE",
"307 750 LINE"
);
}
);
width = 539;
}
);
leftKerningGroupId = "@MMK_R_C";
rightKerningGroupId = "@MMK_L_C";
unicode = 010C;
},
{
changeCount = 0;
export = 0;
glyphname = Ccedilla;
layers = (
{
layerId = "C0403F1F-3C96-483E-B2A6-FF5F8E230CEF";
name = Light;
paths = (
{
closed = 1;
nodes = (
"504 19 LINE",
"483 11 OFFCURVE",
"452 5 OFFCURVE",
"420 1 CURVE SMOOTH",
"387 -4 OFFCURVE",
"354 -7 OFFCURVE",
"326 -7 CURVE",
"272 -76 LINE",
"289 -76 LINE SMOOTH",
"349 -76 OFFCURVE",
"393 -96 OFFCURVE",
"393 -143 CURVE SMOOTH",
"393 -168 OFFCURVE",
"381 -192 OFFCURVE",
"354 -210 CURVE SMOOTH",
"327 -228 OFFCURVE",
"287 -240 OFFCURVE",
"230 -240 CURVE",
"229 -223 LINE",
"281 -219 OFFCURVE",
"314 -208 OFFCURVE",
"334 -194 CURVE SMOOTH",
"354 -180 OFFCURVE",
"361 -164 OFFCURVE",
"361 -145 CURVE SMOOTH",
"361 -110 OFFCURVE",
"324 -95 OFFCURVE",
"273 -95 CURVE SMOOTH",
"270 -95 OFFCURVE",
"266 -95 OFFCURVE",
"263 -95 CURVE",
"259 -96 OFFCURVE",
"255 -96 OFFCURVE",
"251 -96 CURVE",
"242 -82 LINE",
"304 -6 LINE",
"215 -2 OFFCURVE",
"154 32 OFFCURVE",
"115 91 CURVE SMOOTH",
"76 150 OFFCURVE",
"60 233 OFFCURVE",
"60 336 CURVE SMOOTH",
"60 385 OFFCURVE",
"65 441 OFFCURVE",
"81 494 CURVE SMOOTH",
"96 546 OFFCURVE",
"120 596 OFFCURVE",
"160 633 CURVE SMOOTH",
"200 669 OFFCURVE",
"254 692 OFFCURVE",
"327 692 CURVE SMOOTH",
"398 692 OFFCURVE",
"459 680 OFFCURVE",
"494 667 CURVE",
"486 644 LINE",
"435 659 OFFCURVE",
"377 668 OFFCURVE",
"329 668 CURVE SMOOTH",
"242 668 OFFCURVE",
"183 635 OFFCURVE",
"144 576 CURVE SMOOTH",
"104 517 OFFCURVE",
"87 434 OFFCURVE",
"87 334 CURVE SMOOTH",
"87 257 OFFCURVE",
"95 177 OFFCURVE",
"128 117 CURVE SMOOTH",
"161 57 OFFCURVE",
"222 17 OFFCURVE",
"327 17 CURVE SMOOTH",
"344 17 OFFCURVE",
"374 19 OFFCURVE",
"406 23 CURVE SMOOTH",
"437 26 OFFCURVE",
"470 31 OFFCURVE",
"497 39 CURVE"
);
}
);
width = 539;
}
);
leftKerningGroupId = "@MMK_R_C";
rightKerningGroupId = "@MMK_L_C";
unicode = 00C7;
},
{
changeCount = 0;
export = 0;
glyphname = Ccircumflex;
layers = (
{
layerId = "C0403F1F-3C96-483E-B2A6-FF5F8E230CEF";
name = Light;
paths = (
{
closed = 1;
nodes = (
"504 19 LINE",
"483 11 OFFCURVE",
"451 5 OFFCURVE",
"419 1 CURVE SMOOTH",
"386 -4 OFFCURVE",
"352 -7 OFFCURVE",
"324 -7 CURVE SMOOTH",
"228 -7 OFFCURVE",
"162 26 OFFCURVE",
"120 85 CURVE SMOOTH",
"78 144 OFFCURVE",
"60 229 OFFCURVE",
"60 336 CURVE SMOOTH",
"60 385 OFFCURVE",
"65 441 OFFCURVE",
"81 494 CURVE SMOOTH",
"96 546 OFFCURVE",
"120 596 OFFCURVE",
"160 633 CURVE SMOOTH",
"200 669 OFFCURVE",
"254 692 OFFCURVE",
"327 692 CURVE SMOOTH",
"398 692 OFFCURVE",
"459 680 OFFCURVE",
"494 667 CURVE",
"486 644 LINE",
"435 659 OFFCURVE",
"377 668 OFFCURVE",
"329 668 CURVE SMOOTH",
"242 668 OFFCURVE",
"183 635 OFFCURVE",
"144 576 CURVE SMOOTH",
"104 517 OFFCURVE",
"87 434 OFFCURVE",
"87 334 CURVE SMOOTH",
"87 257 OFFCURVE",
"95 177 OFFCURVE",
"128 117 CURVE SMOOTH",
"161 57 OFFCURVE",
"222 17 OFFCURVE",
"327 17 CURVE SMOOTH",
"344 17 OFFCURVE",
"374 19 OFFCURVE",
"406 23 CURVE SMOOTH",
"437 26 OFFCURVE",
"470 31 OFFCURVE",
"497 39 CURVE"
);
},
{
closed = 1;
nodes = (
"317 819 LINE",
"185 716 LINE",
"174 728 LINE",
"303 851 LINE",
"331 851 LINE",
"459 729 LINE",
"449 717 LINE"
);
}
);
width = 539;
}
);
leftKerningGroupId = "@MMK_R_C";
rightKerningGroupId = "@MMK_L_C";
unicode = 0108;
},
{
changeCount = 0;
export = 0;
glyphname = Cdotaccent;
layers = (
{
layerId = "C0403F1F-3C96-483E-B2A6-FF5F8E230CEF";
name = Light;
paths = (
{
closed = 1;
nodes = (
"504 19 LINE",
"483 11 OFFCURVE",
"451 5 OFFCURVE",
"419 1 CURVE SMOOTH",
"386 -4 OFFCURVE",
"352 -7 OFFCURVE",
"324 -7 CURVE SMOOTH",
"228 -7 OFFCURVE",
"162 26 OFFCURVE",
"120 85 CURVE SMOOTH",
"78 144 OFFCURVE",
"60 229 OFFCURVE",
"60 336 CURVE SMOOTH",
"60 385 OFFCURVE",
"65 441 OFFCURVE",
"81 494 CURVE SMOOTH",
"96 546 OFFCURVE",
"120 596 OFFCURVE",
"160 633 CURVE SMOOTH",
"200 669 OFFCURVE",
"254 692 OFFCURVE",
"327 692 CURVE SMOOTH",
"398 692 OFFCURVE",
"459 680 OFFCURVE",
"494 667 CURVE",
"486 644 LINE",
"435 659 OFFCURVE",
"377 668 OFFCURVE",
"329 668 CURVE SMOOTH",
"242 668 OFFCURVE",
"183 635 OFFCURVE",
"144 576 CURVE SMOOTH",
"104 517 OFFCURVE",
"87 434 OFFCURVE",
"87 334 CURVE SMOOTH",
"87 257 OFFCURVE",
"95 177 OFFCURVE",
"128 117 CURVE SMOOTH",
"161 57 OFFCURVE",
"222 17 OFFCURVE",
"327 17 CURVE SMOOTH",
"344 17 OFFCURVE",
"374 19 OFFCURVE",
"406 23 CURVE SMOOTH",
"437 26 OFFCURVE",
"470 31 OFFCURVE",
"497 39 CURVE"
);
},
{
closed = 1;
nodes = (
"342 777 OFFCURVE",
"330 765 OFFCURVE",
"317 765 CURVE SMOOTH",
"304 765 OFFCURVE",
"292 777 OFFCURVE",
"292 790 CURVE SMOOTH",
"292 805 OFFCURVE",
"304 816 OFFCURVE",
"317 816 CURVE SMOOTH",
"330 816 OFFCURVE",
"342 805 OFFCURVE",
"342 790 CURVE SMOOTH"
);
}
);
width = 539;
}
);
leftKerningGroupId = "@MMK_R_C";
rightKerningGroupId = "@MMK_L_C";
unicode = 010A;
},
{
changeCount = 0;
color = 4;
glyphname = D;
layers = (
{
background = {
paths = (
{
closed = 1;
nodes = (
"535 248 OFFCURVE",
"520 163 OFFCURVE",
"479 101 CURVE SMOOTH",
"438 39 OFFCURVE",
"370 0 OFFCURVE",
"263 0 CURVE SMOOTH",
"80 0 LINE",
"80 682 LINE",
"274 682 LINE SMOOTH",
"378 682 OFFCURVE",
"443 643 OFFCURVE",
"483 581 CURVE SMOOTH",
"522 519 OFFCURVE",
"535 434 OFFCURVE",
"535 343 CURVE SMOOTH"
);
},
{
closed = 1;
nodes = (
"509 441 OFFCURVE",
"489 513 OFFCURVE",
"461 561 CURVE SMOOTH",
"432 609 OFFCURVE",
"394 633 OFFCURVE",
"358 646 CURVE SMOOTH",
"322 658 OFFCURVE",
"287 658 OFFCURVE",
"266 658 CURVE SMOOTH",
"106 658 LINE",
"106 25 LINE",
"257 25 LINE SMOOTH",
"276 25 OFFCURVE",
"311 24 OFFCURVE",
"348 36 CURVE SMOOTH",
"385 47 OFFCURVE",
"425 69 OFFCURVE",
"457 115 CURVE SMOOTH",
"488 161 OFFCURVE",
"509 230 OFFCURVE",
"509 334 CURVE SMOOTH"
);
}
);
};
layerId = "C0403F1F-3C96-483E-B2A6-FF5F8E230CEF";
name = Light;
paths = (
{
closed = 1;
nodes = (
"97 13 LINE",
"100 13 LINE",
"265 13 LINE",
"265 13 OFFCURVE",
"523 -18 OFFCURVE",
"523 342 CURVE SMOOTH",
"523 704 OFFCURVE",
"277 671 OFFCURVE",
"277 671 CURVE",
"94 671 LINE",
"94 13 LINE"
);
}
);
width = 595;
}
);
rightKerningGroupId = "@MMK_L_D";
unicode = 0044;
},
{
changeCount = 0;
export = 0;
glyphname = Dcaron;
layers = (
{
layerId = "C0403F1F-3C96-483E-B2A6-FF5F8E230CEF";
name = Light;
paths = (
{
closed = 1;
nodes = (
"535 248 OFFCURVE",
"520 163 OFFCURVE",
"479 101 CURVE SMOOTH",
"438 39 OFFCURVE",
"370 0 OFFCURVE",
"263 0 CURVE SMOOTH",
"80 0 LINE",
"80 682 LINE",
"274 682 LINE SMOOTH",
"378 682 OFFCURVE",
"443 643 OFFCURVE",
"483 581 CURVE SMOOTH",
"522 519 OFFCURVE",
"535 434 OFFCURVE",
"535 343 CURVE SMOOTH"
);
},
{
closed = 1;
nodes = (
"509 441 OFFCURVE",
"489 513 OFFCURVE",
"461 561 CURVE SMOOTH",
"432 609 OFFCURVE",
"394 633 OFFCURVE",
"358 646 CURVE SMOOTH",
"322 658 OFFCURVE",
"287 658 OFFCURVE",
"266 658 CURVE SMOOTH",
"106 658 LINE",
"106 25 LINE",
"257 25 LINE SMOOTH",
"276 25 OFFCURVE",
"311 24 OFFCURVE",
"348 36 CURVE SMOOTH",
"385 47 OFFCURVE",
"425 69 OFFCURVE",
"457 115 CURVE SMOOTH",
"488 161 OFFCURVE",
"509 230 OFFCURVE",
"509 334 CURVE SMOOTH"
);
},
{
closed = 1;
nodes = (
"380 852 LINE",
"390 840 LINE",
"262 718 LINE",
"234 718 LINE",
"105 841 LINE",
"116 853 LINE",
"248 750 LINE"
);
}
);
width = 595;
}
);
rightKerningGroupId = "@MMK_L_D";
unicode = 010E;
},
{
changeCount = 0;
export = 0;
glyphname = Dcroat;
layers = (
{
layerId = "C0403F1F-3C96-483E-B2A6-FF5F8E230CEF";
name = Light;
paths = (
{
closed = 1;
nodes = (
"535 248 OFFCURVE",
"520 163 OFFCURVE",
"479 101 CURVE SMOOTH",
"438 39 OFFCURVE",
"370 0 OFFCURVE",
"263 0 CURVE SMOOTH",
"80 0 LINE",
"80 347 LINE",
"14 347 LINE",
"14 369 LINE",
"80 369 LINE",
"80 682 LINE",
"274 682 LINE SMOOTH",
"378 682 OFFCURVE",
"443 643 OFFCURVE",
"483 581 CURVE SMOOTH",
"522 519 OFFCURVE",
"535 434 OFFCURVE",
"535 343 CURVE SMOOTH"
);
},
{
closed = 1;
nodes = (
"509 441 OFFCURVE",
"489 513 OFFCURVE",
"461 561 CURVE SMOOTH",
"432 609 OFFCURVE",
"394 633 OFFCURVE",
"358 646 CURVE SMOOTH",
"322 658 OFFCURVE",
"287 658 OFFCURVE",
"266 658 CURVE SMOOTH",
"106 658 LINE",
"106 369 LINE",
"317 369 LINE",
"317 347 LINE",
"106 347 LINE",
"106 25 LINE",
"257 25 LINE SMOOTH",
"276 25 OFFCURVE",
"311 24 OFFCURVE",
"348 36 CURVE SMOOTH",
"385 47 OFFCURVE",
"425 69 OFFCURVE",
"457 115 CURVE SMOOTH",
"488 161 OFFCURVE",
"509 230 OFFCURVE",
"509 334 CURVE SMOOTH"
);
}
);
width = 595;
}
);
rightKerningGroupId = "@MMK_L_D";
unicode = 0110;
},
{
changeCount = 0;
color = 4;
glyphname = E;
layers = (
{
background = {
paths = (
{
closed = 1;
nodes = (
"80 682 LINE",
"443 682 LINE",
"443 658 LINE",
"106 658 LINE",
"106 374 LINE",
"401 374 LINE",
"401 351 LINE",
"106 350 LINE",
"106 24 LINE",
"460 24 LINE",
"460 0 LINE",
"80 0 LINE"
);
}
);
};
layerId = "C0403F1F-3C96-483E-B2A6-FF5F8E230CEF";
name = Light;
paths = (
{
closed = 1;
nodes = (
"432 365 LINE",
"416 669 LINE",
"95 669 LINE",
"95 11 LINE",
"436 11 LINE"
);
},
{
closed = 1;
nodes = (
"266 513 LINE",
"374 363 LINE",
"95 363 LINE"
);
}
);
width = 490;
}
);
unicode = 0045;
},
{
changeCount = 0;
export = 0;
glyphname = Eacute;
layers = (
{
layerId = "C0403F1F-3C96-483E-B2A6-FF5F8E230CEF";
name = Light;
paths = (
{
closed = 1;
nodes = (
"80 682 LINE",
"443 682 LINE",
"443 658 LINE",
"106 658 LINE",
"106 374 LINE",
"401 374 LINE",
"401 351 LINE",
"106 350 LINE",
"106 24 LINE",
"460 24 LINE",
"460 0 LINE",
"80 0 LINE"
);
},
{
closed = 1;
nodes = (
"220 723 LINE",
"320 866 LINE",
"346 844 LINE",
"235 713 LINE"
);
}
);
width = 490;
}
);
unicode = 00C9;
},
{
changeCount = 0;
export = 0;
glyphname = Ebreve;
layers = (
{
layerId = "C0403F1F-3C96-483E-B2A6-FF5F8E230CEF";
name = Light;
paths = (
{
closed = 1;
nodes = (
"80 682 LINE",
"443 682 LINE",
"443 658 LINE",
"106 658 LINE",
"106 374 LINE",
"401 374 LINE",
"401 351 LINE",
"106 350 LINE",
"106 24 LINE",
"460 24 LINE",
"460 0 LINE",
"80 0 LINE"
);
},
{
closed = 1;
nodes = (
"203 718 OFFCURVE",
"154 760 OFFCURVE",
"125 808 CURVE",
"149 822 LINE",
"180 775 OFFCURVE",
"221 744 OFFCURVE",
"265 744 CURVE SMOOTH",
"301 744 OFFCURVE",
"343 763 OFFCURVE",
"398 818 CURVE",
"411 809 LINE",
"359 740 OFFCURVE",
"308 718 OFFCURVE",
"263 718 CURVE SMOOTH"
);
}
);
width = 490;
}
);
unicode = 0114;
},
{
changeCount = 0;
export = 0;
glyphname = Ecaron;
layers = (
{
layerId = "C0403F1F-3C96-483E-B2A6-FF5F8E230CEF";
name = Light;
paths = (
{
closed = 1;
nodes = (
"80 682 LINE",
"443 682 LINE",
"443 658 LINE",
"106 658 LINE",
"106 374 LINE",
"401 374 LINE",
"401 351 LINE",
"106 350 LINE",
"106 24 LINE",
"460 24 LINE",
"460 0 LINE",
"80 0 LINE"
);
},
{
closed = 1;
nodes = (
"393 852 LINE",
"403 840 LINE",
"275 718 LINE",
"247 718 LINE",
"118 841 LINE",
"129 853 LINE",
"261 750 LINE"
);
}
);
width = 490;
}
);
unicode = 011A;
},
{
changeCount = 0;
export = 0;
glyphname = Ecircumflex;
layers = (
{
layerId = "C0403F1F-3C96-483E-B2A6-FF5F8E230CEF";
name = Light;
paths = (
{
closed = 1;
nodes = (
"80 682 LINE",
"443 682 LINE",
"443 658 LINE",
"106 658 LINE",
"106 374 LINE",
"401 374 LINE",
"401 351 LINE",
"106 350 LINE",
"106 24 LINE",
"460 24 LINE",
"460 0 LINE",
"80 0 LINE"
);
},
{
closed = 1;
nodes = (
"253 819 LINE",
"121 716 LINE",
"110 728 LINE",
"239 851 LINE",
"267 851 LINE",
"395 729 LINE",
"385 717 LINE"
);
}
);
width = 490;
}
);
unicode = 00CA;
},
{
changeCount = 0;
export = 0;
glyphname = Edieresis;
layers = (
{
layerId = "C0403F1F-3C96-483E-B2A6-FF5F8E230CEF";
name = Light;
paths = (
{
closed = 1;
nodes = (
"80 682 LINE",
"443 682 LINE",
"443 658 LINE",
"106 658 LINE",
"106 374 LINE",
"401 374 LINE",
"401 351 LINE",
"106 350 LINE",
"106 24 LINE",
"460 24 LINE",
"460 0 LINE",
"80 0 LINE"
);
},
{
closed = 1;
nodes = (
"219 748 OFFCURVE",
"209 738 OFFCURVE",
"194 738 CURVE SMOOTH",
"181 738 OFFCURVE",
"170 748 OFFCURVE",
"170 763 CURVE SMOOTH",
"170 778 OFFCURVE",
"181 788 OFFCURVE",
"194 788 CURVE SMOOTH",
"209 788 OFFCURVE",
"219 778 OFFCURVE",
"219 763 CURVE SMOOTH"
);
},
{
closed = 1;
nodes = (
"352 748 OFFCURVE",
"342 738 OFFCURVE",
"327 738 CURVE SMOOTH",
"314 738 OFFCURVE",
"303 748 OFFCURVE",
"303 763 CURVE SMOOTH",
"303 778 OFFCURVE",
"314 788 OFFCURVE",
"327 788 CURVE SMOOTH",
"342 788 OFFCURVE",
"352 778 OFFCURVE",
"352 763 CURVE SMOOTH"
);
}
);
width = 490;
}
);
unicode = 00CB;
},
{
changeCount = 0;
export = 0;
glyphname = Edotaccent;
layers = (
{
layerId = "C0403F1F-3C96-483E-B2A6-FF5F8E230CEF";
name = Light;
paths = (
{
closed = 1;
nodes = (
"80 682 LINE",
"443 682 LINE",
"443 658 LINE",
"106 658 LINE",
"106 374 LINE",
"401 374 LINE",
"401 351 LINE",
"106 350 LINE",
"106 24 LINE",
"460 24 LINE",
"460 0 LINE",
"80 0 LINE"
);
},
{
closed = 1;
nodes = (
"290 769 OFFCURVE",
"278 757 OFFCURVE",
"265 757 CURVE SMOOTH",
"252 757 OFFCURVE",
"240 769 OFFCURVE",
"240 782 CURVE SMOOTH",
"240 797 OFFCURVE",
"252 808 OFFCURVE",
"265 808 CURVE SMOOTH",
"278 808 OFFCURVE",
"290 797 OFFCURVE",
"290 782 CURVE SMOOTH"
);
}
);
width = 490;
}
);
unicode = 0116;
},
{
changeCount = 0;
export = 0;
glyphname = Egrave;
layers = (
{
layerId = "C0403F1F-3C96-483E-B2A6-FF5F8E230CEF";
name = Light;
paths = (
{
closed = 1;
nodes = (
"80 682 LINE",
"443 682 LINE",
"443 658 LINE",
"106 658 LINE",
"106 374 LINE",
"401 374 LINE",
"401 351 LINE",
"106 350 LINE",
"106 24 LINE",
"460 24 LINE",
"460 0 LINE",
"80 0 LINE"
);
},
{
closed = 1;
nodes = (
"282 713 LINE",
"171 844 LINE",
"197 866 LINE",
"297 723 LINE"
);
}
);
width = 490;
}
);
unicode = 00C8;
},
{
changeCount = 0;
export = 0;
glyphname = Emacron;
layers = (
{
layerId = "C0403F1F-3C96-483E-B2A6-FF5F8E230CEF";
name = Light;
paths = (
{
closed = 1;
nodes = (
"80 682 LINE",
"443 682 LINE",
"443 658 LINE",
"106 658 LINE",
"106 374 LINE",
"401 374 LINE",
"401 351 LINE",
"106 350 LINE",
"106 24 LINE",
"460 24 LINE",
"460 0 LINE",
"80 0 LINE"
);
},
{
closed = 1;
nodes = (
"407 774 LINE",
"407 748 LINE",
"121 748 LINE",
"121 774 LINE"
);
}
);
width = 490;
}
);
unicode = 0112;
},
{
changeCount = 0;
export = 0;
glyphname = Eng;
layers = (
{
layerId = "C0403F1F-3C96-483E-B2A6-FF5F8E230CEF";
name = Light;
paths = (
{
closed = 1;
nodes = (
"520 50 LINE",
"520 682 LINE",
"547 682 LINE",
"546 -76 LINE SMOOTH",
"546 -136 OFFCURVE",
"521 -166 OFFCURVE",
"453 -166 CURVE SMOOTH",
"434 -166 OFFCURVE",
"414 -165 OFFCURVE",
"391 -158 CURVE",
"396 -137 LINE",
"413 -142 OFFCURVE",
"435 -144 OFFCURVE",
"450 -144 CURVE SMOOTH",
"501 -144 OFFCURVE",
"520 -123 OFFCURVE",
"520 -82 CURVE SMOOTH",
"520 0 LINE",
"178 528 LINE",
"110 635 LINE",
"107 635 LINE",
"107 0 LINE",
"80 0 LINE",
"80 682 LINE",
"109 682 LINE",
"464 133 LINE",
"516 50 LINE"
);
}
);
width = 627;
}
);
leftKerningGroupId = "@MMK_R_H";
unicode = 014A;
},
{
changeCount = 0;
export = 0;
glyphname = Eogonek;
layers = (
{
layerId = "C0403F1F-3C96-483E-B2A6-FF5F8E230CEF";
name = Light;
paths = (
{
closed = 1;
nodes = (
"80 682 LINE",
"443 682 LINE",
"443 658 LINE",
"106 658 LINE",
"106 374 LINE",
"401 374 LINE",
"401 351 LINE",
"106 350 LINE",
"106 24 LINE",
"460 24 LINE",
"460 0 LINE",
"438 0 LINE",
"383 -51 OFFCURVE",
"371 -96 OFFCURVE",
"371 -123 CURVE SMOOTH",
"371 -163 OFFCURVE",
"400 -174 OFFCURVE",
"435 -174 CURVE SMOOTH",
"462 -174 OFFCURVE",
"485 -169 OFFCURVE",
"504 -164 CURVE",
"509 -178 LINE",
"480 -193 OFFCURVE",
"448 -199 OFFCURVE",
"423 -199 CURVE SMOOTH",
"364 -199 OFFCURVE",
"341 -169 OFFCURVE",
"341 -133 CURVE SMOOTH",
"341 -100 OFFCURVE",
"356 -53 OFFCURVE",
"415 0 CURVE",
"80 0 LINE"
);
}
);
width = 490;
}
);
unicode = 0118;
},
{
changeCount = 0;
export = 0;
glyphname = Eth;
layers = (
{
layerId = "C0403F1F-3C96-483E-B2A6-FF5F8E230CEF";
name = Light;
paths = (
{
closed = 1;
nodes = (
"535 248 OFFCURVE",
"520 163 OFFCURVE",
"479 101 CURVE SMOOTH",
"438 39 OFFCURVE",
"370 0 OFFCURVE",
"263 0 CURVE SMOOTH",
"80 0 LINE",
"80 347 LINE",
"14 347 LINE",
"14 369 LINE",
"80 369 LINE",
"80 682 LINE",
"274 682 LINE SMOOTH",
"378 682 OFFCURVE",
"443 643 OFFCURVE",
"483 581 CURVE SMOOTH",
"522 519 OFFCURVE",
"535 434 OFFCURVE",
"535 343 CURVE SMOOTH"
);
},
{
closed = 1;
nodes = (
"509 441 OFFCURVE",
"489 513 OFFCURVE",
"461 561 CURVE SMOOTH",
"432 609 OFFCURVE",
"394 633 OFFCURVE",
"358 646 CURVE SMOOTH",
"322 658 OFFCURVE",
"287 658 OFFCURVE",
"266 658 CURVE SMOOTH",
"106 658 LINE",
"106 369 LINE",
"317 369 LINE",
"317 347 LINE",
"106 347 LINE",
"106 25 LINE",
"257 25 LINE SMOOTH",
"276 25 OFFCURVE",
"311 24 OFFCURVE",
"348 36 CURVE SMOOTH",
"385 47 OFFCURVE",
"425 69 OFFCURVE",
"457 115 CURVE SMOOTH",
"488 161 OFFCURVE",
"509 230 OFFCURVE",
"509 334 CURVE SMOOTH"
);
}
);
width = 595;
}
);
rightKerningGroupId = "@MMK_L_D";
unicode = 00D0;
},
{
changeCount = 0;
color = 4;
glyphname = F;
layers = (
{
background = {
paths = (
{
closed = 1;
nodes = (
"106 0 LINE",
"80 0 LINE",
"80 682 LINE",
"442 682 LINE",
"442 658 LINE",
"106 658 LINE",
"106 375 LINE",
"401 375 LINE",
"401 351 LINE",
"106 350 LINE"
);
}
);
};
layerId = "C0403F1F-3C96-483E-B2A6-FF5F8E230CEF";
name = Light;
paths = (
{
closed = 1;
nodes = (
"444 309 LINE",
"415 669 LINE",
"94 669 LINE",
"94 11 LINE"
);
},
{
closed = 1;
nodes = (
"254 447 LINE",
"373 363 LINE",
"94 363 LINE"
);
}
);
width = 462;
}
);
unicode = 0046;
},
{
changeCount = 0;
color = 4;
glyphname = G;
layers = (
{
background = {
paths = (
{
closed = 1;
nodes = (
"411 692 OFFCURVE",
"476 680 OFFCURVE",
"511 667 CURVE",
"506 645 LINE",
"453 660 OFFCURVE",
"390 668 OFFCURVE",
"342 668 CURVE SMOOTH",
"255 668 OFFCURVE",
"193 635 OFFCURVE",
"150 576 CURVE SMOOTH",
"107 517 OFFCURVE",
"87 434 OFFCURVE",
"87 334 CURVE SMOOTH",
"87 257 OFFCURVE",
"95 178 OFFCURVE",
"130 118 CURVE SMOOTH",
"165 58 OFFCURVE",
"227 18 OFFCURVE",
"335 18 CURVE SMOOTH",
"355 18 OFFCURVE",
"382 20 OFFCURVE",
"410 24 CURVE",
"438 27 OFFCURVE",
"466 32 OFFCURVE",
"486 40 CURVE",
"486 338 LINE",
"513 338 LINE",
"513 19 LINE",
"452 0 OFFCURVE",
"388 -7 OFFCURVE",
"327 -7 CURVE SMOOTH",
"231 -7 OFFCURVE",
"164 26 OFFCURVE",
"121 85 CURVE SMOOTH",
"78 144 OFFCURVE",
"60 229 OFFCURVE",
"60 336 CURVE SMOOTH",
"60 409 OFFCURVE",
"76 498 OFFCURVE",
"118 569 CURVE SMOOTH",
"160 640 OFFCURVE",
"229 692 OFFCURVE",
"340 692 CURVE SMOOTH"
);
}
);
};
layerId = "C0403F1F-3C96-483E-B2A6-FF5F8E230CEF";
name = Light;
paths = (
{
closed = 1;
nodes = (
"459 526 LINE",
"481 663 LINE",
"440 672 OFFCURVE",
"388 679 OFFCURVE",
"340 679 CURVE SMOOTH",
"241 679 OFFCURVE",
"176 637 OFFCURVE",
"133 572 CURVE SMOOTH",
"91 507 OFFCURVE",
"73 421 OFFCURVE",
"73 334 CURVE SMOOTH",
"73 242 OFFCURVE",
"86 160 OFFCURVE",
"125 101 CURVE SMOOTH",
"164 41 OFFCURVE",
"228 5 OFFCURVE",
"330 5 CURVE SMOOTH",
"356 5 OFFCURVE",
"385 7 OFFCURVE",
"414 10 CURVE SMOOTH",
"444 14 OFFCURVE",
"474 20 OFFCURVE",
"499 29 CURVE",
"499 323 LINE"
);
}
);
width = 583;
}
);
unicode = 0047;
},
{
changeCount = 0;
export = 0;
glyphname = Gbreve;
layers = (
{
layerId = "C0403F1F-3C96-483E-B2A6-FF5F8E230CEF";
name = Light;
paths = (
{
closed = 1;
nodes = (
"411 692 OFFCURVE",
"476 680 OFFCURVE",
"511 667 CURVE",
"506 645 LINE",
"453 660 OFFCURVE",
"390 668 OFFCURVE",
"342 668 CURVE SMOOTH",
"255 668 OFFCURVE",
"193 635 OFFCURVE",
"150 576 CURVE SMOOTH",
"107 517 OFFCURVE",
"87 434 OFFCURVE",
"87 334 CURVE SMOOTH",
"87 257 OFFCURVE",
"95 178 OFFCURVE",
"130 118 CURVE SMOOTH",
"165 58 OFFCURVE",
"227 18 OFFCURVE",
"335 18 CURVE SMOOTH",
"355 18 OFFCURVE",
"382 20 OFFCURVE",
"410 24 CURVE",
"438 27 OFFCURVE",
"466 32 OFFCURVE",
"486 40 CURVE",
"486 338 LINE",
"513 338 LINE",
"513 19 LINE",
"452 0 OFFCURVE",
"388 -7 OFFCURVE",
"327 -7 CURVE SMOOTH",
"231 -7 OFFCURVE",
"164 26 OFFCURVE",
"121 85 CURVE SMOOTH",
"78 144 OFFCURVE",
"60 229 OFFCURVE",
"60 336 CURVE SMOOTH",
"60 409 OFFCURVE",
"76 498 OFFCURVE",
"118 569 CURVE SMOOTH",
"160 640 OFFCURVE",
"229 692 OFFCURVE",
"340 692 CURVE SMOOTH"
);
},
{
closed = 1;
nodes = (
"270 739 OFFCURVE",
"221 781 OFFCURVE",
"192 829 CURVE",
"216 843 LINE",
"247 796 OFFCURVE",
"288 765 OFFCURVE",
"332 765 CURVE SMOOTH",
"368 765 OFFCURVE",
"410 784 OFFCURVE",
"465 839 CURVE",
"478 830 LINE",
"426 761 OFFCURVE",
"375 739 OFFCURVE",
"330 739 CURVE SMOOTH"
);
}
);
width = 583;
}
);
leftKerningGroupId = "@MMK_R_C";
unicode = 011E;
},
{
changeCount = 0;
export = 0;
glyphname = Gcircumflex;
layers = (
{
layerId = "C0403F1F-3C96-483E-B2A6-FF5F8E230CEF";
name = Light;
paths = (
{
closed = 1;
nodes = (
"411 692 OFFCURVE",
"476 680 OFFCURVE",
"511 667 CURVE",
"506 645 LINE",
"453 660 OFFCURVE",
"390 668 OFFCURVE",
"342 668 CURVE SMOOTH",
"255 668 OFFCURVE",
"193 635 OFFCURVE",
"150 576 CURVE SMOOTH",
"107 517 OFFCURVE",
"87 434 OFFCURVE",
"87 334 CURVE SMOOTH",
"87 257 OFFCURVE",
"95 178 OFFCURVE",
"130 118 CURVE SMOOTH",
"165 58 OFFCURVE",
"227 18 OFFCURVE",
"335 18 CURVE SMOOTH",
"355 18 OFFCURVE",
"382 20 OFFCURVE",
"410 24 CURVE",
"438 27 OFFCURVE",
"466 32 OFFCURVE",
"486 40 CURVE",
"486 338 LINE",
"513 338 LINE",
"513 19 LINE",
"452 0 OFFCURVE",
"388 -7 OFFCURVE",
"327 -7 CURVE SMOOTH",
"231 -7 OFFCURVE",
"164 26 OFFCURVE",
"121 85 CURVE SMOOTH",
"78 144 OFFCURVE",
"60 229 OFFCURVE",
"60 336 CURVE SMOOTH",
"60 409 OFFCURVE",
"76 498 OFFCURVE",
"118 569 CURVE SMOOTH",
"160 640 OFFCURVE",
"229 692 OFFCURVE",
"340 692 CURVE SMOOTH"
);
},
{
closed = 1;
nodes = (
"334 819 LINE",
"202 716 LINE",
"191 728 LINE",
"320 851 LINE",
"348 851 LINE",
"476 729 LINE",
"466 717 LINE"
);
}
);
width = 583;
}
);
leftKerningGroupId = "@MMK_R_C";
unicode = 011C;
},
{
changeCount = 0;
export = 0;
glyphname = Gcommaaccent;
layers = (
{
layerId = "C0403F1F-3C96-483E-B2A6-FF5F8E230CEF";
name = Light;
paths = (
{
closed = 1;
nodes = (
"411 692 OFFCURVE",
"476 680 OFFCURVE",
"511 667 CURVE",
"506 645 LINE",
"453 660 OFFCURVE",
"390 668 OFFCURVE",
"342 668 CURVE SMOOTH",
"255 668 OFFCURVE",
"193 635 OFFCURVE",
"150 576 CURVE SMOOTH",
"107 517 OFFCURVE",
"87 434 OFFCURVE",
"87 334 CURVE SMOOTH",
"87 257 OFFCURVE",
"95 178 OFFCURVE",
"130 118 CURVE SMOOTH",
"165 58 OFFCURVE",
"227 18 OFFCURVE",
"335 18 CURVE SMOOTH",
"355 18 OFFCURVE",
"382 20 OFFCURVE",
"410 24 CURVE",
"438 27 OFFCURVE",
"466 32 OFFCURVE",
"486 40 CURVE",
"486 338 LINE",
"513 338 LINE",
"513 19 LINE",
"452 0 OFFCURVE",
"388 -7 OFFCURVE",
"327 -7 CURVE SMOOTH",
"231 -7 OFFCURVE",
"164 26 OFFCURVE",
"121 85 CURVE SMOOTH",
"78 144 OFFCURVE",
"60 229 OFFCURVE",
"60 336 CURVE SMOOTH",
"60 409 OFFCURVE",
"76 498 OFFCURVE",
"118 569 CURVE SMOOTH",
"160 640 OFFCURVE",
"229 692 OFFCURVE",
"340 692 CURVE SMOOTH"
);
},
{
closed = 1;
nodes = (
"308 -134 OFFCURVE",
"297 -124 OFFCURVE",
"297 -109 CURVE SMOOTH",
"297 -93 OFFCURVE",
"307 -80 OFFCURVE",
"323 -80 CURVE SMOOTH",
"342 -80 OFFCURVE",
"354 -92 OFFCURVE",
"354 -117 CURVE SMOOTH",
"354 -148 OFFCURVE",
"341 -174 OFFCURVE",
"310 -201 CURVE",
"302 -193 LINE",
"321 -170 OFFCURVE",
"323 -157 OFFCURVE",
"323 -134 CURVE"
);
}
);
width = 583;
}
);
leftKerningGroupId = "@MMK_R_C";
unicode = 0122;
},
{
changeCount = 0;
export = 0;
glyphname = Gdotaccent;
layers = (
{
layerId = "C0403F1F-3C96-483E-B2A6-FF5F8E230CEF";
name = Light;
paths = (
{
closed = 1;
nodes = (
"411 692 OFFCURVE",
"476 680 OFFCURVE",
"511 667 CURVE",
"506 645 LINE",
"453 660 OFFCURVE",
"390 668 OFFCURVE",
"342 668 CURVE SMOOTH",
"255 668 OFFCURVE",
"193 635 OFFCURVE",
"150 576 CURVE SMOOTH",
"107 517 OFFCURVE",
"87 434 OFFCURVE",
"87 334 CURVE SMOOTH",
"87 257 OFFCURVE",
"95 178 OFFCURVE",
"130 118 CURVE SMOOTH",
"165 58 OFFCURVE",
"227 18 OFFCURVE",
"335 18 CURVE SMOOTH",
"355 18 OFFCURVE",
"382 20 OFFCURVE",
"410 24 CURVE",
"438 27 OFFCURVE",
"466 32 OFFCURVE",
"486 40 CURVE",
"486 338 LINE",
"513 338 LINE",
"513 19 LINE",
"452 0 OFFCURVE",
"388 -7 OFFCURVE",
"327 -7 CURVE SMOOTH",
"231 -7 OFFCURVE",
"164 26 OFFCURVE",
"121 85 CURVE SMOOTH",
"78 144 OFFCURVE",
"60 229 OFFCURVE",
"60 336 CURVE SMOOTH",
"60 409 OFFCURVE",
"76 498 OFFCURVE",
"118 569 CURVE SMOOTH",
"160 640 OFFCURVE",
"229 692 OFFCURVE",
"340 692 CURVE SMOOTH"
);
},
{
closed = 1;
nodes = (
"362 772 OFFCURVE",
"350 760 OFFCURVE",
"337 760 CURVE SMOOTH",
"324 760 OFFCURVE",
"312 772 OFFCURVE",
"312 785 CURVE SMOOTH",
"312 800 OFFCURVE",
"324 811 OFFCURVE",
"337 811 CURVE SMOOTH",
"350 811 OFFCURVE",
"362 800 OFFCURVE",
"362 785 CURVE SMOOTH"
);
}
);
width = 583;
}
);
leftKerningGroupId = "@MMK_R_C";
unicode = 0120;
},
{
changeCount = 0;
color = 4;
glyphname = H;
layers = (
{
background = {
paths = (
{
closed = 1;
nodes = (
"485 0 LINE",
"485 349 LINE",
"107 349 LINE",
"107 0 LINE",
"80 0 LINE",
"80 682 LINE",
"107 682 LINE",
"107 373 LINE",
"485 373 LINE",
"484 682 LINE",
"511 682 LINE",
"511 0 LINE"
);
}
);
};
layerId = "C0403F1F-3C96-483E-B2A6-FF5F8E230CEF";
name = Light;
paths = (
{
closed = 1;
nodes = (
"321 488 LINE",
"94 361 LINE",
"499 361 LINE"
);
},
{
closed = 1;
nodes = (
"29 463 LINE",
"94 0 LINE",
"94 682 LINE"
);
},
{
closed = 1;
nodes = (
"536 386 LINE",
"499 682 LINE",
"499 0 LINE"
);
}
);
width = 591;
}
);
unicode = 0048;
},
{
changeCount = 0;
export = 0;
glyphname = Hbar;
layers = (
{
layerId = "C0403F1F-3C96-483E-B2A6-FF5F8E230CEF";
name = Light;
paths = (
{
closed = 1;
nodes = (
"485 0 LINE",
"485 348 LINE",
"107 348 LINE",
"107 0 LINE",
"80 0 LINE",
"80 521 LINE",
"25 521 LINE",
"25 544 LINE",
"80 544 LINE",
"80 682 LINE",
"107 682 LINE",
"107 544 LINE",
"484 544 LINE",
"484 682 LINE",
"511 682 LINE",
"511 544 LINE",
"570 544 LINE",
"570 521 LINE",
"511 521 LINE",
"511 0 LINE"
);
},
{
closed = 1;
nodes = (
"484 521 LINE",
"107 521 LINE",
"107 373 LINE",
"485 373 LINE"
);
}
);
width = 591;
}
);
leftKerningGroupId = "@MMK_R_H";
unicode = 0126;
},
{
changeCount = 0;
export = 0;
glyphname = Hcircumflex;
layers = (
{
layerId = "C0403F1F-3C96-483E-B2A6-FF5F8E230CEF";
name = Light;
paths = (
{
closed = 1;
nodes = (
"485 0 LINE",
"485 349 LINE",
"107 349 LINE",
"107 0 LINE",
"80 0 LINE",
"80 682 LINE",
"107 682 LINE",
"107 373 LINE",
"485 373 LINE",
"484 682 LINE",
"511 682 LINE",
"511 0 LINE"
);
},
{
closed = 1;
nodes = (
"295 819 LINE",
"163 716 LINE",
"152 728 LINE",
"281 851 LINE",
"309 851 LINE",
"437 729 LINE",
"427 717 LINE"
);
}
);
width = 591;
}
);
leftKerningGroupId = "@MMK_R_H";
unicode = 0124;
},
{
changeCount = 0;
color = 4;
glyphname = I;
layers = (
{
background = {
paths = (
{
closed = 1;
nodes = (
"90 0 LINE",
"90 682 LINE",
"116 682 LINE",
"116 0 LINE"
);
}
);
};
layerId = "C0403F1F-3C96-483E-B2A6-FF5F8E230CEF";
name = Light;
paths = (
{
closed = 1;
nodes = (
"195 599 LINE",
"103 682 LINE",
"103 0 LINE"
);
}
);
width = 206;
}
);
unicode = 0049;
},
{
changeCount = 0;
export = 0;
glyphname = IJ;
layers = (
{
layerId = "C0403F1F-3C96-483E-B2A6-FF5F8E230CEF";
name = Light;
paths = (
{
closed = 1;
nodes = (
"90 0 LINE",
"90 682 LINE",
"116 682 LINE",
"116 0 LINE"
);
},
{
closed = 1;
nodes = (
"341 682 LINE",
"366 682 LINE",
"367 103 LINE SMOOTH",
"367 27 OFFCURVE",
"351 -29 OFFCURVE",
"320 -72 CURVE SMOOTH",
"289 -116 OFFCURVE",
"245 -148 OFFCURVE",
"189 -179 CURVE",
"177 -157 LINE",
"233 -124 OFFCURVE",
"274 -93 OFFCURVE",
"302 -53 CURVE SMOOTH",
"329 -14 OFFCURVE",
"341 34 OFFCURVE",
"341 101 CURVE SMOOTH"
);
}
);
width = 467;
}
);
unicode = 0132;
},
{
changeCount = 0;
export = 0;
glyphname = Iacute;
layers = (
{
layerId = "C0403F1F-3C96-483E-B2A6-FF5F8E230CEF";
name = Light;
paths = (
{
closed = 1;
nodes = (
"90 0 LINE",
"90 682 LINE",
"116 682 LINE",
"116 0 LINE"
);
},
{
closed = 1;
nodes = (
"85 723 LINE",
"185 866 LINE",
"211 844 LINE",
"100 713 LINE"
);
}
);
width = 206;
}
);
leftKerningGroupId = "@MMK_R_H";
unicode = 00CD;
},
{
changeCount = 0;
export = 0;
glyphname = Ibreve;
layers = (
{
layerId = "C0403F1F-3C96-483E-B2A6-FF5F8E230CEF";
name = Light;
paths = (
{
closed = 1;
nodes = (
"58 721 OFFCURVE",
"9 763 OFFCURVE",
"-20 811 CURVE",
"4 825 LINE",
"35 778 OFFCURVE",
"76 747 OFFCURVE",
"120 747 CURVE SMOOTH",
"156 747 OFFCURVE",
"198 766 OFFCURVE",
"253 821 CURVE",
"266 812 LINE",
"214 743 OFFCURVE",
"163 721 OFFCURVE",
"118 721 CURVE SMOOTH"
);
},
{
closed = 1;
nodes = (
"110 0 LINE",
"110 682 LINE",
"136 682 LINE",
"136 0 LINE"
);
}
);
width = 246;
}
);
leftKerningGroupId = "@MMK_R_H";
unicode = 012C;
},
{
changeCount = 0;
export = 0;
glyphname = Icircumflex;
layers = (
{
layerId = "C0403F1F-3C96-483E-B2A6-FF5F8E230CEF";
name = Light;
paths = (
{
closed = 1;
nodes = (
"90 0 LINE",
"90 682 LINE",
"116 682 LINE",
"116 0 LINE"
);
},
{
closed = 1;
nodes = (
"104 805 LINE",
"-28 702 LINE",
"-39 714 LINE",
"90 837 LINE",
"118 837 LINE",
"246 715 LINE",
"236 703 LINE"
);
}
);
width = 206;
}
);
leftKerningGroupId = "@MMK_R_H";
unicode = 00CE;
},
{
changeCount = 0;
export = 0;
glyphname = Idieresis;
layers = (
{
layerId = "C0403F1F-3C96-483E-B2A6-FF5F8E230CEF";
name = Light;
paths = (
{
closed = 1;
nodes = (
"90 0 LINE",
"90 682 LINE",
"116 682 LINE",
"116 0 LINE"
);
},
{
closed = 1;
nodes = (
"62 751 OFFCURVE",
"52 741 OFFCURVE",
"37 741 CURVE SMOOTH",
"24 741 OFFCURVE",
"13 751 OFFCURVE",
"13 766 CURVE SMOOTH",
"13 781 OFFCURVE",
"24 791 OFFCURVE",
"37 791 CURVE SMOOTH",
"52 791 OFFCURVE",
"62 781 OFFCURVE",
"62 766 CURVE SMOOTH"
);
},
{
closed = 1;
nodes = (
"195 751 OFFCURVE",
"185 741 OFFCURVE",
"170 741 CURVE SMOOTH",
"157 741 OFFCURVE",
"146 751 OFFCURVE",
"146 766 CURVE SMOOTH",
"146 781 OFFCURVE",
"157 791 OFFCURVE",
"170 791 CURVE SMOOTH",
"185 791 OFFCURVE",
"195 781 OFFCURVE",
"195 766 CURVE SMOOTH"
);
}
);
width = 206;
}
);
leftKerningGroupId = "@MMK_R_H";
unicode = 00CF;
},
{
changeCount = 0;
export = 0;
glyphname = Idotaccent;
layers = (
{
layerId = "C0403F1F-3C96-483E-B2A6-FF5F8E230CEF";
name = Light;
paths = (
{
closed = 1;
nodes = (
"90 0 LINE",
"90 682 LINE",
"116 682 LINE",
"116 0 LINE"
);
},
{
closed = 1;
nodes = (
"128 786 OFFCURVE",
"116 774 OFFCURVE",
"103 774 CURVE SMOOTH",
"90 774 OFFCURVE",
"78 786 OFFCURVE",
"78 799 CURVE SMOOTH",
"78 814 OFFCURVE",
"90 825 OFFCURVE",
"103 825 CURVE SMOOTH",
"116 825 OFFCURVE",
"128 814 OFFCURVE",
"128 799 CURVE SMOOTH"
);
}
);
width = 206;
}
);
leftKerningGroupId = "@MMK_R_H";
unicode = 0130;
},
{
changeCount = 0;
export = 0;
glyphname = Igrave;
layers = (
{
layerId = "C0403F1F-3C96-483E-B2A6-FF5F8E230CEF";
name = Light;
paths = (
{
closed = 1;
nodes = (
"90 0 LINE",
"90 682 LINE",
"116 682 LINE",
"116 0 LINE"
);
},
{
closed = 1;
nodes = (
"101 713 LINE",
"-10 844 LINE",
"16 866 LINE",
"116 723 LINE"
);
}
);
width = 206;
}
);
leftKerningGroupId = "@MMK_R_H";
unicode = 00CC;
},
{
changeCount = 0;
export = 0;
glyphname = Imacron;
layers = (
{
layerId = "C0403F1F-3C96-483E-B2A6-FF5F8E230CEF";
name = Light;
paths = (
{
closed = 1;
nodes = (
"90 0 LINE",
"90 682 LINE",
"116 682 LINE",
"116 0 LINE"
);
},
{
closed = 1;
nodes = (
"246 774 LINE",
"246 748 LINE",
"-40 748 LINE",
"-40 774 LINE"
);
}
);
width = 206;
}
);
leftKerningGroupId = "@MMK_R_H";
unicode = 012A;
},
{
changeCount = 0;
export = 0;
glyphname = Iogonek;
layers = (
{
layerId = "C0403F1F-3C96-483E-B2A6-FF5F8E230CEF";
name = Light;
paths = (
{
closed = 1;
nodes = (
"96 0 LINE",
"45 -48 OFFCURVE",
"33 -92 OFFCURVE",
"33 -119 CURVE SMOOTH",
"33 -159 OFFCURVE",
"62 -170 OFFCURVE",
"97 -170 CURVE SMOOTH",
"124 -170 OFFCURVE",
"147 -165 OFFCURVE",
"166 -160 CURVE",
"171 -174 LINE",
"142 -189 OFFCURVE",
"110 -195 OFFCURVE",
"85 -195 CURVE SMOOTH",
"26 -195 OFFCURVE",
"3 -165 OFFCURVE",
"3 -129 CURVE SMOOTH",
"3 -112 OFFCURVE",
"7 -90 OFFCURVE",
"20 -66 CURVE SMOOTH",
"33 -42 OFFCURVE",
"55 -15 OFFCURVE",
"90 14 CURVE",
"90 682 LINE",
"116 682 LINE",
"116 0 LINE"
);
}
);
width = 206;
}
);
leftKerningGroupId = "@MMK_R_H";
unicode = 012E;
},
{
changeCount = 0;
export = 0;
glyphname = Itilde;
layers = (
{
layerId = "C0403F1F-3C96-483E-B2A6-FF5F8E230CEF";
name = Light;
paths = (
{
closed = 1;
nodes = (
"90 0 LINE",
"90 682 LINE",
"116 682 LINE",
"116 0 LINE"
);
},
{
closed = 1;
nodes = (
"-19 761 LINE",
"-32 768 LINE",
"-21 803 OFFCURVE",
"6 825 OFFCURVE",
"35 825 CURVE SMOOTH",
"56 825 OFFCURVE",
"83 816 OFFCURVE",
"109 807 CURVE SMOOTH",
"135 798 OFFCURVE",
"161 789 OFFCURVE",
"181 789 CURVE",
"226 828 LINE",
"238 821 LINE",
"226 792 OFFCURVE",
"207 764 OFFCURVE",
"176 764 CURVE SMOOTH",
"159 764 OFFCURVE",
"131 774 OFFCURVE",
"103 783 CURVE SMOOTH",
"75 792 OFFCURVE",
"47 802 OFFCURVE",
"30 802 CURVE"
);
}
);
width = 206;
}
);
leftKerningGroupId = "@MMK_R_H";
unicode = 0128;
},
{
changeCount = 0;
color = 4;
glyphname = J;
layers = (
{
background = {
paths = (
{
closed = 1;
nodes = (
"125 682 LINE",
"150 682 LINE",
"151 103 LINE SMOOTH",
"151 27 OFFCURVE",
"135 -29 OFFCURVE",
"104 -72 CURVE SMOOTH",
"73 -116 OFFCURVE",
"29 -148 OFFCURVE",
"-27 -179 CURVE",
"-39 -157 LINE",
"17 -124 OFFCURVE",
"58 -93 OFFCURVE",
"86 -53 CURVE SMOOTH",
"113 -14 OFFCURVE",
"125 34 OFFCURVE",
"125 101 CURVE SMOOTH"
);
}
);
};
layerId = "C0403F1F-3C96-483E-B2A6-FF5F8E230CEF";
name = Light;
paths = (
{
closed = 1;
nodes = (
"59 249 LINE",
"-32 -168 LINE",
"24 -136 OFFCURVE",
"67 -105 OFFCURVE",
"96 -63 CURVE SMOOTH",
"125 -22 OFFCURVE",
"139 31 OFFCURVE",
"139 102 CURVE SMOOTH",
"139 682 LINE"
);
}
);
width = 251;
}
);
unicode = 004A;
},
{
changeCount = 0;
export = 0;
glyphname = Jcircumflex;
layers = (
{
layerId = "C0403F1F-3C96-483E-B2A6-FF5F8E230CEF";
name = Light;
paths = (
{
closed = 1;
nodes = (
"125 683 LINE",
"150 683 LINE",
"151 104 LINE SMOOTH",
"151 28 OFFCURVE",
"135 -28 OFFCURVE",
"104 -71 CURVE SMOOTH",
"73 -115 OFFCURVE",
"29 -147 OFFCURVE",
"-27 -178 CURVE",
"-39 -156 LINE",
"17 -123 OFFCURVE",
"58 -92 OFFCURVE",
"86 -52 CURVE SMOOTH",
"113 -13 OFFCURVE",
"125 35 OFFCURVE",
"125 102 CURVE SMOOTH"
);
},
{
closed = 1;
nodes = (
"138 819 LINE",
"6 716 LINE",
"-5 728 LINE",
"124 851 LINE",
"152 851 LINE",
"280 729 LINE",
"270 717 LINE"
);
}
);
width = 251;
}
);
unicode = 0134;
},
{
changeCount = 0;
color = 4;
glyphname = K;
layers = (
{
background = {
paths = (
{
closed = 1;
nodes = (
"218 407 LINE",
"493 0 LINE",
"462 0 LINE",
"200 387 LINE",
"107 294 LINE",
"107 0 LINE",
"80 0 LINE",
"80 682 LINE",
"107 682 LINE",
"107 329 LINE",
"455 682 LINE",
"492 682 LINE"
);
}
);
};
layerId = "C0403F1F-3C96-483E-B2A6-FF5F8E230CEF";
name = Light;
paths = (
{
closed = 1;
nodes = (
"197 565 LINE",
"93 298 LINE",
"460 669 LINE"
);
},
{
closed = 1;
nodes = (
"-46 183 LINE",
"93 0 LINE",
"93 682 LINE"
);
},
{
closed = 1;
nodes = (
"243 129 LINE",
"476 0 LINE",
"203 409 LINE"
);
}
);
width = 513;
}
);
rightKerningGroupId = "@MMK_L_K";
unicode = 004B;
},
{
changeCount = 0;
export = 0;
glyphname = Kcommaaccent;
layers = (
{
layerId = "C0403F1F-3C96-483E-B2A6-FF5F8E230CEF";
name = Light;
paths = (
{
closed = 1;
nodes = (
"218 407 LINE",
"493 0 LINE",
"462 0 LINE",
"200 387 LINE",
"107 294 LINE",
"107 0 LINE",
"80 0 LINE",
"80 682 LINE",
"107 682 LINE",
"107 329 LINE",
"455 682 LINE",
"492 682 LINE"
);
},
{
closed = 1;
nodes = (
"253 -107 OFFCURVE",
"242 -97 OFFCURVE",
"242 -82 CURVE SMOOTH",
"242 -66 OFFCURVE",
"252 -53 OFFCURVE",
"268 -53 CURVE SMOOTH",
"287 -53 OFFCURVE",
"299 -65 OFFCURVE",
"299 -90 CURVE SMOOTH",
"299 -121 OFFCURVE",
"286 -147 OFFCURVE",
"255 -174 CURVE",
"247 -166 LINE",
"266 -143 OFFCURVE",
"268 -130 OFFCURVE",
"268 -107 CURVE"
);
}
);
width = 513;
}
);
rightKerningGroupId = "@MMK_L_K";
unicode = 0136;
},
{
changeCount = 0;
color = 4;
glyphname = L;
layers = (
{
background = {
paths = (
{
closed = 1;
nodes = (
"133 24 LINE",
"503 24 LINE",
"503 0 LINE",
"106 0 LINE",
"106 682 LINE",
"132 682 LINE"
);
}
);
};
layerId = "C0403F1F-3C96-483E-B2A6-FF5F8E230CEF";
name = Light;
paths = (
{
closed = 1;
nodes = (
"252 332 LINE",
"119 682 LINE",
"119 12 LINE",
"474 12 LINE"
);
}
);
width = 523;
}
);
rightKerningGroupId = "@MMK_L_L";
unicode = 004C;
},
{
changeCount = 0;
export = 0;
glyphname = Lacute;
layers = (
{
layerId = "C0403F1F-3C96-483E-B2A6-FF5F8E230CEF";
name = Light;
paths = (
{
closed = 1;
nodes = (
"133 24 LINE",
"503 24 LINE",
"503 0 LINE",
"106 0 LINE",
"106 682 LINE",
"132 682 LINE"
);
},
{
closed = 1;
nodes = (
"112 723 LINE",
"212 866 LINE",
"238 844 LINE",
"127 713 LINE"
);
}
);
width = 523;
}
);
rightKerningGroupId = "@MMK_L_L";
unicode = 0139;
},
{
changeCount = 0;
export = 0;
glyphname = Lcaron;
layers = (
{
layerId = "C0403F1F-3C96-483E-B2A6-FF5F8E230CEF";
name = Light;
paths = (
{
closed = 1;
nodes = (
"133 24 LINE",
"503 24 LINE",
"503 0 LINE",
"106 0 LINE",
"106 682 LINE",
"132 682 LINE"
);
},
{
closed = 1;
nodes = (
"359 625 OFFCURVE",
"348 635 OFFCURVE",
"348 650 CURVE SMOOTH",
"348 666 OFFCURVE",
"358 679 OFFCURVE",
"374 679 CURVE SMOOTH",
"393 679 OFFCURVE",
"405 667 OFFCURVE",
"405 642 CURVE SMOOTH",
"405 611 OFFCURVE",
"392 585 OFFCURVE",
"361 558 CURVE",
"353 566 LINE",
"372 589 OFFCURVE",
"374 602 OFFCURVE",
"374 625 CURVE"
);
}
);
width = 523;
}
);
rightKerningGroupId = "@MMK_L_L";
unicode = 013D;
},
{
changeCount = 0;
export = 0;
glyphname = Lcommaaccent;
layers = (
{
layerId = "C0403F1F-3C96-483E-B2A6-FF5F8E230CEF";
name = Light;
paths = (
{
closed = 1;
nodes = (
"133 24 LINE",
"503 24 LINE",
"503 0 LINE",
"106 0 LINE",
"106 682 LINE",
"132 682 LINE"
);
},
{
closed = 1;
nodes = (
"277 -134 OFFCURVE",
"266 -124 OFFCURVE",
"266 -109 CURVE SMOOTH",
"266 -93 OFFCURVE",
"276 -80 OFFCURVE",
"292 -80 CURVE SMOOTH",
"311 -80 OFFCURVE",
"323 -92 OFFCURVE",
"323 -117 CURVE SMOOTH",
"323 -148 OFFCURVE",
"310 -174 OFFCURVE",
"279 -201 CURVE",
"271 -193 LINE",
"290 -170 OFFCURVE",
"292 -157 OFFCURVE",
"292 -134 CURVE"
);
}
);
width = 523;
}
);
rightKerningGroupId = "@MMK_L_L";
unicode = 013B;
},
{
changeCount = 0;
export = 0;
glyphname = Ldot;
layers = (
{
layerId = "C0403F1F-3C96-483E-B2A6-FF5F8E230CEF";
name = Light;
paths = (
{
closed = 1;
nodes = (
"133 24 LINE",
"503 24 LINE",
"503 0 LINE",
"106 0 LINE",
"106 682 LINE",
"132 682 LINE"
);
},
{
closed = 1;
nodes = (
"375 379 OFFCURVE",
"363 367 OFFCURVE",
"350 367 CURVE SMOOTH",
"337 367 OFFCURVE",
"325 379 OFFCURVE",
"325 392 CURVE SMOOTH",
"325 407 OFFCURVE",
"337 418 OFFCURVE",
"350 418 CURVE SMOOTH",
"363 418 OFFCURVE",
"375 407 OFFCURVE",
"375 392 CURVE SMOOTH"
);
}
);
width = 523;
}
);
rightKerningGroupId = "@MMK_L_L";
unicode = 013F;
},
{
changeCount = 0;
export = 0;
glyphname = Lslash;
layers = (
{
layerId = "C0403F1F-3C96-483E-B2A6-FF5F8E230CEF";
name = Light;
paths = (
{
closed = 1;
nodes = (
"132 328 LINE",
"274 410 LINE",
"285 389 LINE",
"132 300 LINE",
"133 24 LINE",
"503 24 LINE",
"503 0 LINE",
"106 0 LINE",
"106 284 LINE",
"37 244 LINE",
"26 266 LINE",
"106 312 LINE",
"106 682 LINE",
"132 682 LINE"
);
}
);
width = 523;
}
);
rightKerningGroupId = "@MMK_L_L";
unicode = 0141;
},
{
changeCount = 0;
color = 4;
glyphname = M;
layers = (
{
background = {
paths = (
{
closed = 1;
nodes = (
"332 190 LINE",
"379 83 LINE",
"382 83 LINE",
"430 191 LINE",
"652 682 LINE",
"679 682 LINE",
"679 0 LINE",
"654 0 LINE",
"653 616 LINE",
"649 616 LINE",
"608 524 LINE",
"396 57 LINE",
"365 57 LINE",
"144 541 LINE",
"109 620 LINE",
"106 620 LINE",
"106 0 LINE",
"80 0 LINE",
"80 682 LINE",
"109 682 LINE"
);
}
);
};
layerId = "C0403F1F-3C96-483E-B2A6-FF5F8E230CEF";
name = Light;
paths = (
{
closed = 1;
nodes = (
"276 20 LINE",
"666 0 LINE",
"665 669 LINE",
"650 669 LINE",
"518 358 LINE",
"388 70 LINE",
"371 70 LINE",
"237 366 LINE",
"108 671 LINE",
"92 671 LINE",
"92 0 LINE"
);
}
);
width = 759;
}
);
unicode = 004D;
},
{
changeCount = 0;
color = 4;
glyphname = N;
layers = (
{
background = {
paths = (
{
closed = 1;
nodes = (
"520 50 LINE",
"520 682 LINE",
"547 682 LINE",
"546 0 LINE",
"520 0 LINE",
"178 528 LINE",
"110 635 LINE",
"107 635 LINE",
"107 0 LINE",
"80 0 LINE",
"80 682 LINE",
"109 682 LINE",
"464 133 LINE",
"516 50 LINE"
);
}
);
};
layerId = "C0403F1F-3C96-483E-B2A6-FF5F8E230CEF";
name = Light;
paths = (
{
closed = 1;
nodes = (
"267 185 LINE",
"534 682 LINE",
"534 0 LINE",
"519 0 LINE",
"322 331 LINE",
"110 679 LINE",
"94 679 LINE",
"94 0 LINE"
);
}
);
width = 627;
}
);
unicode = 004E;
},
{
changeCount = 0;
export = 0;
glyphname = Nacute;
layers = (
{
layerId = "C0403F1F-3C96-483E-B2A6-FF5F8E230CEF";
name = Light;
paths = (
{
closed = 1;
nodes = (
"520 50 LINE",
"520 682 LINE",
"547 682 LINE",
"546 0 LINE",
"520 0 LINE",
"178 528 LINE",
"110 635 LINE",
"107 635 LINE",
"107 0 LINE",
"80 0 LINE",
"80 682 LINE",
"109 682 LINE",
"464 133 LINE",
"516 50 LINE"
);
},
{
closed = 1;
nodes = (
"296 723 LINE",
"396 866 LINE",
"422 844 LINE",
"311 713 LINE"
);
}
);
width = 627;
}
);
leftKerningGroupId = "@MMK_R_H";
unicode = 0143;
},
{
changeCount = 0;
export = 0;
glyphname = Ncaron;
layers = (
{
layerId = "C0403F1F-3C96-483E-B2A6-FF5F8E230CEF";
name = Light;
paths = (
{
closed = 1;
nodes = (
"520 50 LINE",
"520 682 LINE",
"547 682 LINE",
"546 0 LINE",
"520 0 LINE",
"178 528 LINE",
"110 635 LINE",
"107 635 LINE",
"107 0 LINE",
"80 0 LINE",
"80 682 LINE",
"109 682 LINE",
"464 133 LINE",
"516 50 LINE"
);
},
{
closed = 1;
nodes = (
"461 852 LINE",
"471 840 LINE",
"343 718 LINE",
"315 718 LINE",
"186 841 LINE",
"197 853 LINE",
"329 750 LINE"
);
}
);
width = 627;
}
);
leftKerningGroupId = "@MMK_R_H";
unicode = 0147;
},
{
changeCount = 0;
export = 0;
glyphname = Ncommaaccent;
layers = (
{
layerId = "C0403F1F-3C96-483E-B2A6-FF5F8E230CEF";
name = Light;
paths = (
{
closed = 1;
nodes = (
"520 50 LINE",
"520 682 LINE",
"547 682 LINE",
"546 0 LINE",
"520 0 LINE",
"178 528 LINE",
"110 635 LINE",
"107 635 LINE",
"107 0 LINE",
"80 0 LINE",
"80 682 LINE",
"109 682 LINE",
"464 133 LINE",
"516 50 LINE"
);
},
{
closed = 1;
nodes = (
"290 -122 OFFCURVE",
"279 -112 OFFCURVE",
"279 -97 CURVE SMOOTH",
"279 -81 OFFCURVE",
"289 -68 OFFCURVE",
"305 -68 CURVE SMOOTH",
"324 -68 OFFCURVE",
"336 -80 OFFCURVE",
"336 -105 CURVE SMOOTH",
"336 -136 OFFCURVE",
"323 -162 OFFCURVE",
"292 -189 CURVE",
"284 -181 LINE",
"303 -158 OFFCURVE",
"305 -145 OFFCURVE",
"305 -122 CURVE"
);
}
);
width = 627;
}
);
leftKerningGroupId = "@MMK_R_H";
unicode = 0145;
},
{
changeCount = 0;
export = 0;
glyphname = Ntilde;
layers = (
{
layerId = "C0403F1F-3C96-483E-B2A6-FF5F8E230CEF";
name = Light;
paths = (
{
closed = 1;
nodes = (
"520 50 LINE",
"520 682 LINE",
"547 682 LINE",
"546 0 LINE",
"520 0 LINE",
"178 528 LINE",
"110 635 LINE",
"107 635 LINE",
"107 0 LINE",
"80 0 LINE",
"80 682 LINE",
"109 682 LINE",
"464 133 LINE",
"516 50 LINE"
);
},
{
closed = 1;
nodes = (
"201 735 LINE",
"188 742 LINE",
"199 777 OFFCURVE",
"226 799 OFFCURVE",
"255 799 CURVE SMOOTH",
"276 799 OFFCURVE",
"303 790 OFFCURVE",
"329 781 CURVE SMOOTH",
"355 772 OFFCURVE",
"381 763 OFFCURVE",
"401 763 CURVE",
"446 802 LINE",
"458 795 LINE",
"446 766 OFFCURVE",
"427 738 OFFCURVE",
"396 738 CURVE SMOOTH",
"379 738 OFFCURVE",
"351 748 OFFCURVE",
"323 757 CURVE SMOOTH",
"295 766 OFFCURVE",
"267 776 OFFCURVE",
"250 776 CURVE"
);
}
);
width = 627;
}
);
unicode = 00D1;
},
{
changeCount = 0;
color = 4;
glyphname = O;
layers = (
{
background = {
paths = (
{
closed = 1;
nodes = (
"588 240 OFFCURVE",
"567 154 OFFCURVE",
"524 93 CURVE SMOOTH",
"480 32 OFFCURVE",
"416 -6 OFFCURVE",
"331 -7 CURVE SMOOTH",
"231 -7 OFFCURVE",
"163 25 OFFCURVE",
"120 84 CURVE SMOOTH",
"77 143 OFFCURVE",
"60 227 OFFCURVE",
"60 334 CURVE SMOOTH",
"60 426 OFFCURVE",
"76 517 OFFCURVE",
"118 583 CURVE SMOOTH",
"160 649 OFFCURVE",
"227 692 OFFCURVE",
"331 692 CURVE SMOOTH",
"436 692 OFFCURVE",
"501 649 OFFCURVE",
"539 582 CURVE SMOOTH",
"577 515 OFFCURVE",
"588 426 OFFCURVE",
"588 337 CURVE SMOOTH"
);
},
{
closed = 1;
nodes = (
"561 406 OFFCURVE",
"553 491 OFFCURVE",
"521 556 CURVE SMOOTH",
"488 621 OFFCURVE",
"430 669 OFFCURVE",
"331 669 CURVE SMOOTH",
"232 669 OFFCURVE",
"171 627 OFFCURVE",
"135 564 CURVE SMOOTH",
"99 500 OFFCURVE",
"87 416 OFFCURVE",
"87 332 CURVE SMOOTH",
"87 125 OFFCURVE",
"157 16 OFFCURVE",
"324 16 CURVE SMOOTH",
"404 16 OFFCURVE",
"464 52 OFFCURVE",
"503 110 CURVE SMOOTH",
"542 168 OFFCURVE",
"561 246 OFFCURVE",
"561 334 CURVE SMOOTH"
);
}
);
};
layerId = "C0403F1F-3C96-483E-B2A6-FF5F8E230CEF";
name = Light;
paths = (
{
closed = 1;
nodes = (
"331 79 LINE",
"336 4 LINE",
"415 7 OFFCURVE",
"474 43 OFFCURVE",
"514 101 CURVE SMOOTH",
"556 160 OFFCURVE",
"575 243 OFFCURVE",
"575 335 CURVE SMOOTH",
"575 416 OFFCURVE",
"566 503 OFFCURVE",
"531 569 CURVE SMOOTH",
"496 635 OFFCURVE",
"434 680 OFFCURVE",
"332 680 CURVE SMOOTH",
"230 680 OFFCURVE",
"166 638 OFFCURVE",
"127 573 CURVE SMOOTH",
"88 508 OFFCURVE",
"74 421 OFFCURVE",
"74 333 CURVE SMOOTH",
"74 230 OFFCURVE",
"91 150 OFFCURVE",
"130 94 CURVE SMOOTH",
"169 37 OFFCURVE",
"231 6 OFFCURVE",
"320 4 CURVE"
);
}
);
width = 648;
}
);
rightKerningGroupId = "@MMK_L_D";
unicode = 004F;
},
{
changeCount = 0;
export = 0;
glyphname = OE;
layers = (
{
layerId = "C0403F1F-3C96-483E-B2A6-FF5F8E230CEF";
name = Light;
paths = (
{
closed = 1;
nodes = (
"353 692 OFFCURVE",
"380 689 OFFCURVE",
"403 682 CURVE",
"694 682 LINE",
"694 658 LINE",
"382 658 LINE",
"382 374 LINE",
"652 374 LINE",
"652 351 LINE",
"382 350 LINE",
"382 24 LINE",
"711 24 LINE",
"711 0 LINE",
"380 0 LINE",
"363 -4 OFFCURVE",
"344 -6 OFFCURVE",
"324 -7 CURVE",
"224 -7 OFFCURVE",
"156 25 OFFCURVE",
"113 84 CURVE SMOOTH",
"70 143 OFFCURVE",
"53 227 OFFCURVE",
"53 334 CURVE SMOOTH",
"53 426 OFFCURVE",
"69 517 OFFCURVE",
"111 583 CURVE SMOOTH",
"153 649 OFFCURVE",
"220 692 OFFCURVE",
"324 692 CURVE SMOOTH"
);
},
{
closed = 1;
nodes = (
"330 16 OFFCURVE",
"343 17 OFFCURVE",
"356 19 CURVE",
"356 668 LINE",
"351 669 OFFCURVE",
"345 669 OFFCURVE",
"340 669 CURVE SMOOTH",
"335 669 OFFCURVE",
"329 669 OFFCURVE",
"324 669 CURVE SMOOTH",
"225 669 OFFCURVE",
"164 627 OFFCURVE",
"128 564 CURVE SMOOTH",
"92 500 OFFCURVE",
"80 416 OFFCURVE",
"80 332 CURVE SMOOTH",
"80 125 OFFCURVE",
"150 16 OFFCURVE",
"317 16 CURVE SMOOTH"
);
}
);
width = 744;
}
);
leftKerningGroupId = "@MMK_R_C";
unicode = 0152;
},
{
changeCount = 0;
export = 0;
glyphname = Oacute;
layers = (
{
layerId = "C0403F1F-3C96-483E-B2A6-FF5F8E230CEF";
name = Light;
paths = (
{
closed = 1;
nodes = (
"588 240 OFFCURVE",
"567 154 OFFCURVE",
"524 93 CURVE SMOOTH",
"480 32 OFFCURVE",
"416 -6 OFFCURVE",
"331 -7 CURVE SMOOTH",
"231 -7 OFFCURVE",
"163 25 OFFCURVE",
"120 84 CURVE SMOOTH",
"77 143 OFFCURVE",
"60 227 OFFCURVE",
"60 334 CURVE SMOOTH",
"60 426 OFFCURVE",
"76 517 OFFCURVE",
"118 583 CURVE SMOOTH",
"160 649 OFFCURVE",
"227 692 OFFCURVE",
"331 692 CURVE SMOOTH",
"436 692 OFFCURVE",
"501 649 OFFCURVE",
"539 582 CURVE SMOOTH",
"577 515 OFFCURVE",
"588 426 OFFCURVE",
"588 337 CURVE SMOOTH"
);
},
{
closed = 1;
nodes = (
"561 406 OFFCURVE",
"553 491 OFFCURVE",
"521 556 CURVE SMOOTH",
"488 621 OFFCURVE",
"430 669 OFFCURVE",
"331 669 CURVE SMOOTH",
"232 669 OFFCURVE",
"171 627 OFFCURVE",
"135 564 CURVE SMOOTH",
"99 500 OFFCURVE",
"87 416 OFFCURVE",
"87 332 CURVE SMOOTH",
"87 125 OFFCURVE",
"157 16 OFFCURVE",
"324 16 CURVE SMOOTH",
"404 16 OFFCURVE",
"464 52 OFFCURVE",
"503 110 CURVE SMOOTH",
"542 168 OFFCURVE",
"561 246 OFFCURVE",
"561 334 CURVE SMOOTH"
);
},
{
closed = 1;
nodes = (
"318 723 LINE",
"418 866 LINE",
"444 844 LINE",
"333 713 LINE"
);
}
);
width = 648;
}
);
leftKerningGroupId = "@MMK_R_C";
rightKerningGroupId = "@MMK_L_D";
unicode = 00D3;
},
{
changeCount = 0;
export = 0;
glyphname = Obreve;
layers = (
{
layerId = "C0403F1F-3C96-483E-B2A6-FF5F8E230CEF";
name = Light;
paths = (
{
closed = 1;
nodes = (
"588 240 OFFCURVE",
"567 154 OFFCURVE",
"524 93 CURVE SMOOTH",
"480 32 OFFCURVE",
"416 -6 OFFCURVE",
"331 -7 CURVE SMOOTH",
"231 -7 OFFCURVE",
"163 25 OFFCURVE",
"120 84 CURVE SMOOTH",
"77 143 OFFCURVE",
"60 227 OFFCURVE",
"60 334 CURVE SMOOTH",
"60 426 OFFCURVE",
"76 517 OFFCURVE",
"118 583 CURVE SMOOTH",
"160 649 OFFCURVE",
"227 692 OFFCURVE",
"331 692 CURVE SMOOTH",
"436 692 OFFCURVE",
"501 649 OFFCURVE",
"539 582 CURVE SMOOTH",
"577 515 OFFCURVE",
"588 426 OFFCURVE",
"588 337 CURVE SMOOTH"
);
},
{
closed = 1;
nodes = (
"561 406 OFFCURVE",
"553 491 OFFCURVE",
"521 556 CURVE SMOOTH",
"488 621 OFFCURVE",
"430 669 OFFCURVE",
"331 669 CURVE SMOOTH",
"232 669 OFFCURVE",
"171 627 OFFCURVE",
"135 564 CURVE SMOOTH",
"99 500 OFFCURVE",
"87 416 OFFCURVE",
"87 332 CURVE SMOOTH",
"87 125 OFFCURVE",
"157 16 OFFCURVE",
"324 16 CURVE SMOOTH",
"404 16 OFFCURVE",
"464 52 OFFCURVE",
"503 110 CURVE SMOOTH",
"542 168 OFFCURVE",
"561 246 OFFCURVE",
"561 334 CURVE SMOOTH"
);
},
{
closed = 1;
nodes = (
"266 735 OFFCURVE",
"217 777 OFFCURVE",
"188 825 CURVE",
"212 839 LINE",
"243 792 OFFCURVE",
"284 761 OFFCURVE",
"328 761 CURVE SMOOTH",
"364 761 OFFCURVE",
"406 780 OFFCURVE",
"461 835 CURVE",
"474 826 LINE",
"422 757 OFFCURVE",
"371 735 OFFCURVE",
"326 735 CURVE SMOOTH"
);
}
);
width = 648;
}
);
leftKerningGroupId = "@MMK_R_C";
rightKerningGroupId = "@MMK_L_D";
unicode = 014E;
},
{
changeCount = 0;
export = 0;
glyphname = Ocircumflex;
layers = (
{
layerId = "C0403F1F-3C96-483E-B2A6-FF5F8E230CEF";
name = Light;
paths = (
{
closed = 1;
nodes = (
"588 240 OFFCURVE",
"567 154 OFFCURVE",
"524 93 CURVE SMOOTH",
"480 32 OFFCURVE",
"416 -6 OFFCURVE",
"331 -7 CURVE SMOOTH",
"231 -7 OFFCURVE",
"163 25 OFFCURVE",
"120 84 CURVE SMOOTH",
"77 143 OFFCURVE",
"60 227 OFFCURVE",
"60 334 CURVE SMOOTH",
"60 426 OFFCURVE",
"76 517 OFFCURVE",
"118 583 CURVE SMOOTH",
"160 649 OFFCURVE",
"227 692 OFFCURVE",
"331 692 CURVE SMOOTH",
"436 692 OFFCURVE",
"501 649 OFFCURVE",
"539 582 CURVE SMOOTH",
"577 515 OFFCURVE",
"588 426 OFFCURVE",
"588 337 CURVE SMOOTH"
);
},
{
closed = 1;
nodes = (
"561 406 OFFCURVE",
"553 491 OFFCURVE",
"521 556 CURVE SMOOTH",
"488 621 OFFCURVE",
"430 669 OFFCURVE",
"331 669 CURVE SMOOTH",
"232 669 OFFCURVE",
"171 627 OFFCURVE",
"135 564 CURVE SMOOTH",
"99 500 OFFCURVE",
"87 416 OFFCURVE",
"87 332 CURVE SMOOTH",
"87 125 OFFCURVE",
"157 16 OFFCURVE",
"324 16 CURVE SMOOTH",
"404 16 OFFCURVE",
"464 52 OFFCURVE",
"503 110 CURVE SMOOTH",
"542 168 OFFCURVE",
"561 246 OFFCURVE",
"561 334 CURVE SMOOTH"
);
},
{
closed = 1;
nodes = (
"334 819 LINE",
"202 716 LINE",
"191 728 LINE",
"320 851 LINE",
"348 851 LINE",
"476 729 LINE",
"466 717 LINE"
);
}
);
width = 648;
}
);
leftKerningGroupId = "@MMK_R_C";
rightKerningGroupId = "@MMK_L_D";
unicode = 00D4;
},
{
changeCount = 0;
export = 0;
glyphname = Odieresis;
layers = (
{
layerId = "C0403F1F-3C96-483E-B2A6-FF5F8E230CEF";
name = Light;
paths = (
{
closed = 1;
nodes = (
"588 240 OFFCURVE",
"567 154 OFFCURVE",
"524 93 CURVE SMOOTH",
"480 32 OFFCURVE",
"416 -6 OFFCURVE",
"331 -7 CURVE SMOOTH",
"231 -7 OFFCURVE",
"163 25 OFFCURVE",
"120 84 CURVE SMOOTH",
"77 143 OFFCURVE",
"60 227 OFFCURVE",
"60 334 CURVE SMOOTH",
"60 426 OFFCURVE",
"76 517 OFFCURVE",
"118 583 CURVE SMOOTH",
"160 649 OFFCURVE",
"227 692 OFFCURVE",
"331 692 CURVE SMOOTH",
"436 692 OFFCURVE",
"501 649 OFFCURVE",
"539 582 CURVE SMOOTH",
"577 515 OFFCURVE",
"588 426 OFFCURVE",
"588 337 CURVE SMOOTH"
);
},
{
closed = 1;
nodes = (
"561 406 OFFCURVE",
"553 491 OFFCURVE",
"521 556 CURVE SMOOTH",
"488 621 OFFCURVE",
"430 669 OFFCURVE",
"331 669 CURVE SMOOTH",
"232 669 OFFCURVE",
"171 627 OFFCURVE",
"135 564 CURVE SMOOTH",
"99 500 OFFCURVE",
"87 416 OFFCURVE",
"87 332 CURVE SMOOTH",
"87 125 OFFCURVE",
"157 16 OFFCURVE",
"324 16 CURVE SMOOTH",
"404 16 OFFCURVE",
"464 52 OFFCURVE",
"503 110 CURVE SMOOTH",
"542 168 OFFCURVE",
"561 246 OFFCURVE",
"561 334 CURVE SMOOTH"
);
},
{
closed = 1;
nodes = (
"292 761 OFFCURVE",
"282 751 OFFCURVE",
"267 751 CURVE SMOOTH",
"254 751 OFFCURVE",
"243 761 OFFCURVE",
"243 776 CURVE SMOOTH",
"243 791 OFFCURVE",
"254 801 OFFCURVE",
"267 801 CURVE SMOOTH",
"282 801 OFFCURVE",
"292 791 OFFCURVE",
"292 776 CURVE SMOOTH"
);
},
{
closed = 1;
nodes = (
"425 761 OFFCURVE",
"415 751 OFFCURVE",
"400 751 CURVE SMOOTH",
"387 751 OFFCURVE",
"376 761 OFFCURVE",
"376 776 CURVE SMOOTH",
"376 791 OFFCURVE",
"387 801 OFFCURVE",
"400 801 CURVE SMOOTH",
"415 801 OFFCURVE",
"425 791 OFFCURVE",
"425 776 CURVE SMOOTH"
);
}
);
width = 648;
}
);
leftKerningGroupId = "@MMK_R_C";
rightKerningGroupId = "@MMK_L_D";
unicode = 00D6;
},
{
changeCount = 0;
export = 0;
glyphname = Ograve;
layers = (
{
layerId = "C0403F1F-3C96-483E-B2A6-FF5F8E230CEF";
name = Light;
paths = (
{
closed = 1;
nodes = (
"588 240 OFFCURVE",
"567 154 OFFCURVE",
"524 93 CURVE SMOOTH",
"480 32 OFFCURVE",
"416 -6 OFFCURVE",
"331 -7 CURVE SMOOTH",
"231 -7 OFFCURVE",
"163 25 OFFCURVE",
"120 84 CURVE SMOOTH",
"77 143 OFFCURVE",
"60 227 OFFCURVE",
"60 334 CURVE SMOOTH",
"60 426 OFFCURVE",
"76 517 OFFCURVE",
"118 583 CURVE SMOOTH",
"160 649 OFFCURVE",
"227 692 OFFCURVE",
"331 692 CURVE SMOOTH",
"436 692 OFFCURVE",
"501 649 OFFCURVE",
"539 582 CURVE SMOOTH",
"577 515 OFFCURVE",
"588 426 OFFCURVE",
"588 337 CURVE SMOOTH"
);
},
{
closed = 1;
nodes = (
"561 406 OFFCURVE",
"553 491 OFFCURVE",
"521 556 CURVE SMOOTH",
"488 621 OFFCURVE",
"430 669 OFFCURVE",
"331 669 CURVE SMOOTH",
"232 669 OFFCURVE",
"171 627 OFFCURVE",
"135 564 CURVE SMOOTH",
"99 500 OFFCURVE",
"87 416 OFFCURVE",
"87 332 CURVE SMOOTH",
"87 125 OFFCURVE",
"157 16 OFFCURVE",
"324 16 CURVE SMOOTH",
"404 16 OFFCURVE",
"464 52 OFFCURVE",
"503 110 CURVE SMOOTH",
"542 168 OFFCURVE",
"561 246 OFFCURVE",
"561 334 CURVE SMOOTH"
);
},
{
closed = 1;
nodes = (
"336 713 LINE",
"225 844 LINE",
"251 866 LINE",
"351 723 LINE"
);
}
);
width = 648;
}
);
leftKerningGroupId = "@MMK_R_C";
rightKerningGroupId = "@MMK_L_D";
unicode = 00D2;
},
{
changeCount = 0;
export = 0;
glyphname = Ohorn;
layers = (
{
layerId = "C0403F1F-3C96-483E-B2A6-FF5F8E230CEF";
name = Light;
paths = (
{
closed = 1;
nodes = (
"588 240 OFFCURVE",
"567 154 OFFCURVE",
"524 93 CURVE SMOOTH",
"480 32 OFFCURVE",
"416 -6 OFFCURVE",
"331 -7 CURVE SMOOTH",
"231 -7 OFFCURVE",
"163 25 OFFCURVE",
"120 84 CURVE SMOOTH",
"77 143 OFFCURVE",
"60 227 OFFCURVE",
"60 334 CURVE SMOOTH",
"60 426 OFFCURVE",
"76 517 OFFCURVE",
"118 583 CURVE SMOOTH",
"160 649 OFFCURVE",
"227 692 OFFCURVE",
"331 692 CURVE SMOOTH",
"428 692 OFFCURVE",
"490 655 OFFCURVE",
"529 596 CURVE",
"549 596 LINE SMOOTH",
"590 596 OFFCURVE",
"616 612 OFFCURVE",
"616 672 CURVE SMOOTH",
"616 743 LINE",
"639 743 LINE",
"639 665 LINE SMOOTH",
"639 642 OFFCURVE",
"635 619 OFFCURVE",
"621 603 CURVE SMOOTH",
"607 586 OFFCURVE",
"584 574 OFFCURVE",
"548 574 CURVE SMOOTH",
"543 574 LINE",
"578 507 OFFCURVE",
"588 424 OFFCURVE",
"588 337 CURVE SMOOTH"
);
},
{
closed = 1;
nodes = (
"561 406 OFFCURVE",
"553 491 OFFCURVE",
"521 556 CURVE SMOOTH",
"488 621 OFFCURVE",
"430 669 OFFCURVE",
"331 669 CURVE SMOOTH",
"232 669 OFFCURVE",
"171 627 OFFCURVE",
"135 564 CURVE SMOOTH",
"99 500 OFFCURVE",
"87 416 OFFCURVE",
"87 332 CURVE SMOOTH",
"87 125 OFFCURVE",
"157 16 OFFCURVE",
"324 16 CURVE SMOOTH",
"404 16 OFFCURVE",
"464 52 OFFCURVE",
"503 110 CURVE SMOOTH",
"542 168 OFFCURVE",
"561 246 OFFCURVE",
"561 334 CURVE SMOOTH"
);
}
);
width = 648;
}
);
leftKerningGroupId = "@MMK_R_C";
rightKerningGroupId = "@MMK_L_D";
unicode = 01A0;
},
{
changeCount = 0;
export = 0;
glyphname = Ohungarumlaut;
layers = (
{
layerId = "C0403F1F-3C96-483E-B2A6-FF5F8E230CEF";
name = Light;
paths = (
{
closed = 1;
nodes = (
"588 240 OFFCURVE",
"567 154 OFFCURVE",
"524 93 CURVE SMOOTH",
"480 32 OFFCURVE",
"416 -6 OFFCURVE",
"331 -7 CURVE SMOOTH",
"231 -7 OFFCURVE",
"163 25 OFFCURVE",
"120 84 CURVE SMOOTH",
"77 143 OFFCURVE",
"60 227 OFFCURVE",
"60 334 CURVE SMOOTH",
"60 426 OFFCURVE",
"76 517 OFFCURVE",
"118 583 CURVE SMOOTH",
"160 649 OFFCURVE",
"227 692 OFFCURVE",
"331 692 CURVE SMOOTH",
"436 692 OFFCURVE",
"501 649 OFFCURVE",
"539 582 CURVE SMOOTH",
"577 515 OFFCURVE",
"588 426 OFFCURVE",
"588 337 CURVE SMOOTH"
);
},
{
closed = 1;
nodes = (
"561 406 OFFCURVE",
"553 491 OFFCURVE",
"521 556 CURVE SMOOTH",
"488 621 OFFCURVE",
"430 669 OFFCURVE",
"331 669 CURVE SMOOTH",
"232 669 OFFCURVE",
"171 627 OFFCURVE",
"135 564 CURVE SMOOTH",
"99 500 OFFCURVE",
"87 416 OFFCURVE",
"87 332 CURVE SMOOTH",
"87 125 OFFCURVE",
"157 16 OFFCURVE",
"324 16 CURVE SMOOTH",
"404 16 OFFCURVE",
"464 52 OFFCURVE",
"503 110 CURVE SMOOTH",
"542 168 OFFCURVE",
"561 246 OFFCURVE",
"561 334 CURVE SMOOTH"
);
},
{
closed = 1;
nodes = (
"252 724 LINE",
"352 867 LINE",
"378 845 LINE",
"267 714 LINE"
);
},
{
closed = 1;
nodes = (
"343 724 LINE",
"443 867 LINE",
"469 845 LINE",
"358 714 LINE"
);
}
);
width = 648;
}
);
leftKerningGroupId = "@MMK_R_C";
rightKerningGroupId = "@MMK_L_D";
unicode = 0150;
},
{
changeCount = 0;
export = 0;
glyphname = Omacron;
layers = (
{
layerId = "C0403F1F-3C96-483E-B2A6-FF5F8E230CEF";
name = Light;
paths = (
{
closed = 1;
nodes = (
"588 240 OFFCURVE",
"567 154 OFFCURVE",
"524 93 CURVE SMOOTH",
"480 32 OFFCURVE",
"416 -6 OFFCURVE",
"331 -7 CURVE SMOOTH",
"231 -7 OFFCURVE",
"163 25 OFFCURVE",
"120 84 CURVE SMOOTH",
"77 143 OFFCURVE",
"60 227 OFFCURVE",
"60 334 CURVE SMOOTH",
"60 426 OFFCURVE",
"76 517 OFFCURVE",
"118 583 CURVE SMOOTH",
"160 649 OFFCURVE",
"227 692 OFFCURVE",
"331 692 CURVE SMOOTH",
"436 692 OFFCURVE",
"501 649 OFFCURVE",
"539 582 CURVE SMOOTH",
"577 515 OFFCURVE",
"588 426 OFFCURVE",
"588 337 CURVE SMOOTH"
);
},
{
closed = 1;
nodes = (
"561 406 OFFCURVE",
"553 491 OFFCURVE",
"521 556 CURVE SMOOTH",
"488 621 OFFCURVE",
"430 669 OFFCURVE",
"331 669 CURVE SMOOTH",
"232 669 OFFCURVE",
"171 627 OFFCURVE",
"135 564 CURVE SMOOTH",
"99 500 OFFCURVE",
"87 416 OFFCURVE",
"87 332 CURVE SMOOTH",
"87 125 OFFCURVE",
"157 16 OFFCURVE",
"324 16 CURVE SMOOTH",
"404 16 OFFCURVE",
"464 52 OFFCURVE",
"503 110 CURVE SMOOTH",
"542 168 OFFCURVE",
"561 246 OFFCURVE",
"561 334 CURVE SMOOTH"
);
},
{
closed = 1;
nodes = (
"469 774 LINE",
"469 748 LINE",
"183 748 LINE",
"183 774 LINE"
);
}
);
width = 648;
}
);
leftKerningGroupId = "@MMK_R_C";
rightKerningGroupId = "@MMK_L_D";
unicode = 014C;
},
{
changeCount = 0;
export = 0;
glyphname = Oslash;
layers = (
{
layerId = "C0403F1F-3C96-483E-B2A6-FF5F8E230CEF";
name = Light;
paths = (
{
closed = 1;
nodes = (
"578 240 OFFCURVE",
"557 154 OFFCURVE",
"514 93 CURVE SMOOTH",
"470 32 OFFCURVE",
"406 -6 OFFCURVE",
"321 -7 CURVE SMOOTH",
"233 -7 OFFCURVE",
"170 17 OFFCURVE",
"127 62 CURVE",
"79 -5 LINE",
"52 -5 LINE",
"113 80 LINE",
"68 139 OFFCURVE",
"50 225 OFFCURVE",
"50 334 CURVE SMOOTH",
"50 426 OFFCURVE",
"66 517 OFFCURVE",
"108 583 CURVE SMOOTH",
"150 649 OFFCURVE",
"217 692 OFFCURVE",
"321 692 CURVE SMOOTH",
"405 692 OFFCURVE",
"461 664 OFFCURVE",
"500 620 CURVE",
"552 692 LINE",
"582 692 LINE",
"516 601 LINE",
"563 533 OFFCURVE",
"578 437 OFFCURVE",
"578 337 CURVE SMOOTH"
);
},
{
closed = 1;
nodes = (
"77 232 OFFCURVE",
"93 156 OFFCURVE",
"129 103 CURVE",
"484 597 LINE",
"449 640 OFFCURVE",
"397 669 OFFCURVE",
"321 669 CURVE SMOOTH",
"222 669 OFFCURVE",
"161 627 OFFCURVE",
"125 564 CURVE SMOOTH",
"89 500 OFFCURVE",
"77 416 OFFCURVE",
"77 332 CURVE SMOOTH"
);
},
{
closed = 1;
nodes = (
"551 374 OFFCURVE",
"549 418 OFFCURVE",
"541 460 CURVE SMOOTH",
"533 502 OFFCURVE",
"519 541 OFFCURVE",
"498 576 CURVE",
"143 84 LINE",
"182 39 OFFCURVE",
"239 16 OFFCURVE",
"314 16 CURVE SMOOTH",
"394 16 OFFCURVE",
"454 52 OFFCURVE",
"493 110 CURVE SMOOTH",
"532 168 OFFCURVE",
"551 246 OFFCURVE",
"551 334 CURVE SMOOTH"
);
}
);
width = 628;
}
);
leftKerningGroupId = "@MMK_R_C";
rightKerningGroupId = "@MMK_L_D";
unicode = 00D8;
},
{
changeCount = 0;
export = 0;
glyphname = Oslashacute;
layers = (
{
layerId = "C0403F1F-3C96-483E-B2A6-FF5F8E230CEF";
name = Light;
paths = (
{
closed = 1;
nodes = (
"578 240 OFFCURVE",
"557 154 OFFCURVE",
"514 93 CURVE SMOOTH",
"470 32 OFFCURVE",
"406 -6 OFFCURVE",
"321 -7 CURVE SMOOTH",
"233 -7 OFFCURVE",
"170 17 OFFCURVE",
"127 62 CURVE",
"79 -5 LINE",
"52 -5 LINE",
"113 80 LINE",
"68 139 OFFCURVE",
"50 225 OFFCURVE",
"50 334 CURVE SMOOTH",
"50 426 OFFCURVE",
"66 517 OFFCURVE",
"108 583 CURVE SMOOTH",
"150 649 OFFCURVE",
"217 692 OFFCURVE",
"321 692 CURVE SMOOTH",
"405 692 OFFCURVE",
"461 664 OFFCURVE",
"500 620 CURVE",
"552 692 LINE",
"582 692 LINE",
"516 601 LINE",
"563 533 OFFCURVE",
"578 437 OFFCURVE",
"578 337 CURVE SMOOTH"
);
},
{
closed = 1;
nodes = (
"77 232 OFFCURVE",
"93 156 OFFCURVE",
"129 103 CURVE",
"484 597 LINE",
"449 640 OFFCURVE",
"397 669 OFFCURVE",
"321 669 CURVE SMOOTH",
"222 669 OFFCURVE",
"161 627 OFFCURVE",
"125 564 CURVE SMOOTH",
"89 500 OFFCURVE",
"77 416 OFFCURVE",
"77 332 CURVE SMOOTH"
);
},
{
closed = 1;
nodes = (
"551 374 OFFCURVE",
"549 418 OFFCURVE",
"541 460 CURVE SMOOTH",
"533 502 OFFCURVE",
"519 541 OFFCURVE",
"498 576 CURVE",
"143 84 LINE",
"182 39 OFFCURVE",
"239 16 OFFCURVE",
"314 16 CURVE SMOOTH",
"394 16 OFFCURVE",
"454 52 OFFCURVE",
"493 110 CURVE SMOOTH",
"532 168 OFFCURVE",
"551 246 OFFCURVE",
"551 334 CURVE SMOOTH"
);
},
{
closed = 1;
nodes = (
"305 723 LINE",
"405 866 LINE",
"431 844 LINE",
"320 713 LINE"
);
}
);
width = 628;
}
);
leftKerningGroupId = "@MMK_R_C";
rightKerningGroupId = "@MMK_L_D";
unicode = 01FE;
},
{
changeCount = 0;
export = 0;
glyphname = Otilde;
layers = (
{
layerId = "C0403F1F-3C96-483E-B2A6-FF5F8E230CEF";
name = Light;
paths = (
{
closed = 1;
nodes = (
"588 240 OFFCURVE",
"567 154 OFFCURVE",
"524 93 CURVE SMOOTH",
"480 32 OFFCURVE",
"416 -6 OFFCURVE",
"331 -7 CURVE SMOOTH",
"231 -7 OFFCURVE",
"163 25 OFFCURVE",
"120 84 CURVE SMOOTH",
"77 143 OFFCURVE",
"60 227 OFFCURVE",
"60 334 CURVE SMOOTH",
"60 426 OFFCURVE",
"76 517 OFFCURVE",
"118 583 CURVE SMOOTH",
"160 649 OFFCURVE",
"227 692 OFFCURVE",
"331 692 CURVE SMOOTH",
"436 692 OFFCURVE",
"501 649 OFFCURVE",
"539 582 CURVE SMOOTH",
"577 515 OFFCURVE",
"588 426 OFFCURVE",
"588 337 CURVE SMOOTH"
);
},
{
closed = 1;
nodes = (
"561 406 OFFCURVE",
"553 491 OFFCURVE",
"521 556 CURVE SMOOTH",
"488 621 OFFCURVE",
"430 669 OFFCURVE",
"331 669 CURVE SMOOTH",
"232 669 OFFCURVE",
"171 627 OFFCURVE",
"135 564 CURVE SMOOTH",
"99 500 OFFCURVE",
"87 416 OFFCURVE",
"87 332 CURVE SMOOTH",
"87 125 OFFCURVE",
"157 16 OFFCURVE",
"324 16 CURVE SMOOTH",
"404 16 OFFCURVE",
"464 52 OFFCURVE",
"503 110 CURVE SMOOTH",
"542 168 OFFCURVE",
"561 246 OFFCURVE",
"561 334 CURVE SMOOTH"
);
},
{
closed = 1;
nodes = (
"209 763 LINE",
"196 770 LINE",
"207 805 OFFCURVE",
"234 827 OFFCURVE",
"263 827 CURVE SMOOTH",
"284 827 OFFCURVE",
"311 818 OFFCURVE",
"337 809 CURVE SMOOTH",
"363 800 OFFCURVE",
"389 791 OFFCURVE",
"409 791 CURVE",
"454 830 LINE",
"466 823 LINE",
"454 794 OFFCURVE",
"435 766 OFFCURVE",
"404 766 CURVE SMOOTH",
"387 766 OFFCURVE",
"359 776 OFFCURVE",
"331 785 CURVE SMOOTH",
"303 794 OFFCURVE",
"275 804 OFFCURVE",
"258 804 CURVE"
);
}
);
width = 648;
}
);
leftKerningGroupId = "@MMK_R_C";
rightKerningGroupId = "@MMK_L_D";
unicode = 00D5;
},
{
changeCount = 0;
color = 4;
glyphname = P;
layers = (
{
background = {
paths = (
{
closed = 1;
nodes = (
"80 0 LINE",
"80 682 LINE",
"276 682 LINE SMOOTH",
"328 682 OFFCURVE",
"375 668 OFFCURVE",
"411 637 CURVE SMOOTH",
"446 606 OFFCURVE",
"468 559 OFFCURVE",
"468 495 CURVE SMOOTH",
"468 455 OFFCURVE",
"460 406 OFFCURVE",
"433 367 CURVE SMOOTH",
"405 327 OFFCURVE",
"359 298 OFFCURVE",
"283 298 CURVE SMOOTH",
"107 298 LINE",
"107 0 LINE"
);
},
{
closed = 1;
nodes = (
"284 322 LINE SMOOTH",
"321 322 OFFCURVE",
"362 332 OFFCURVE",
"392 358 CURVE SMOOTH",
"422 384 OFFCURVE",
"442 425 OFFCURVE",
"442 492 CURVE SMOOTH",
"442 548 OFFCURVE",
"424 589 OFFCURVE",
"395 617 CURVE SMOOTH",
"366 645 OFFCURVE",
"325 658 OFFCURVE",
"281 658 CURVE SMOOTH",
"107 658 LINE",
"107 322 LINE"
);
}
);
};
layerId = "C0403F1F-3C96-483E-B2A6-FF5F8E230CEF";
name = Light;
paths = (
{
closed = 1;
nodes = (
"154 237 LINE",
"93 310 LINE",
"284 310 LINE SMOOTH",
"341 310 OFFCURVE",
"384 330 OFFCURVE",
"413 363 CURVE SMOOTH",
"442 395 OFFCURVE",
"456 440 OFFCURVE",
"456 494 CURVE SMOOTH",
"456 554 OFFCURVE",
"436 598 OFFCURVE",
"404 627 CURVE SMOOTH",
"372 657 OFFCURVE",
"327 670 OFFCURVE",
"279 670 CURVE SMOOTH",
"93 670 LINE",
"93 0 LINE"
);
}
);
width = 488;
}
);
unicode = 0050;
},
{
changeCount = 0;
color = 4;
glyphname = Q;
layers = (
{
background = {
paths = (
{
closed = 1;
nodes = (
"588 254 OFFCURVE",
"572 180 OFFCURVE",
"541 122 CURVE SMOOTH",
"510 64 OFFCURVE",
"463 22 OFFCURVE",
"402 3 CURVE",
"579 -42 LINE",
"567 -75 LINE",
"350 -6 LINE",
"347 -6 OFFCURVE",
"344 -6 OFFCURVE",
"341 -6 CURVE",
"338 -7 OFFCURVE",
"334 -7 OFFCURVE",
"331 -7 CURVE SMOOTH",
"231 -7 OFFCURVE",
"163 25 OFFCURVE",
"120 84 CURVE SMOOTH",
"77 143 OFFCURVE",
"60 227 OFFCURVE",
"60 334 CURVE SMOOTH",
"60 426 OFFCURVE",
"76 517 OFFCURVE",
"118 583 CURVE SMOOTH",
"160 649 OFFCURVE",
"227 692 OFFCURVE",
"331 692 CURVE SMOOTH",
"436 692 OFFCURVE",
"501 649 OFFCURVE",
"539 582 CURVE SMOOTH",
"577 515 OFFCURVE",
"588 426 OFFCURVE",
"588 337 CURVE SMOOTH"
);
},
{
closed = 1;
nodes = (
"561 406 OFFCURVE",
"553 491 OFFCURVE",
"521 556 CURVE SMOOTH",
"488 621 OFFCURVE",
"430 669 OFFCURVE",
"331 669 CURVE SMOOTH",
"232 669 OFFCURVE",
"171 627 OFFCURVE",
"135 564 CURVE SMOOTH",
"99 500 OFFCURVE",
"87 416 OFFCURVE",
"87 332 CURVE SMOOTH",
"87 125 OFFCURVE",
"157 16 OFFCURVE",
"324 16 CURVE SMOOTH",
"404 16 OFFCURVE",
"464 52 OFFCURVE",
"503 110 CURVE SMOOTH",
"542 168 OFFCURVE",
"561 246 OFFCURVE",
"561 334 CURVE SMOOTH"
);
}
);
};
layerId = "C0403F1F-3C96-483E-B2A6-FF5F8E230CEF";
name = Light;
paths = (
{
closed = 1;
nodes = (
"331 81 LINE",
"336 6 LINE",
"415 9 OFFCURVE",
"474 45 OFFCURVE",
"514 103 CURVE SMOOTH",
"556 162 OFFCURVE",
"575 245 OFFCURVE",
"575 337 CURVE SMOOTH",
"575 418 OFFCURVE",
"566 505 OFFCURVE",
"531 571 CURVE SMOOTH",
"496 637 OFFCURVE",
"434 682 OFFCURVE",
"332 682 CURVE SMOOTH",
"230 682 OFFCURVE",
"166 640 OFFCURVE",
"127 575 CURVE SMOOTH",
"88 510 OFFCURVE",
"74 423 OFFCURVE",
"74 335 CURVE SMOOTH",
"74 232 OFFCURVE",
"91 152 OFFCURVE",
"130 96 CURVE SMOOTH",
"169 39 OFFCURVE",
"231 8 OFFCURVE",
"320 6 CURVE"
);
},
{
closed = 1;
nodes = (
"479 1 LINE",
"361 7 LINE",
"548 -49 LINE"
);
}
);
width = 648;
}
);
rightKerningGroupId = "@MMK_L_D";
unicode = 0051;
},
{
changeCount = 0;
color = 4;
glyphname = R;
layers = (
{
background = {
paths = (
{
closed = 1;
nodes = (
"107 0 LINE",
"80 0 LINE",
"80 682 LINE",
"271 682 LINE SMOOTH",
"343 682 OFFCURVE",
"393 661 OFFCURVE",
"425 629 CURVE SMOOTH",
"456 597 OFFCURVE",
"469 553 OFFCURVE",
"469 506 CURVE SMOOTH",
"469 470 OFFCURVE",
"461 429 OFFCURVE",
"442 396 CURVE SMOOTH",
"422 363 OFFCURVE",
"391 334 OFFCURVE",
"344 325 CURVE",
"400 306 OFFCURVE",
"425 268 OFFCURVE",
"442 212 CURVE SMOOTH",
"503 0 LINE",
"476 0 LINE",
"416 205 LINE",
"401 250 OFFCURVE",
"381 279 OFFCURVE",
"354 296 CURVE SMOOTH",
"327 312 OFFCURVE",
"297 318 OFFCURVE",
"265 318 CURVE SMOOTH",
"107 318 LINE"
);
},
{
closed = 1;
nodes = (
"107 658 LINE",
"107 342 LINE",
"279 342 LINE SMOOTH",
"387 342 OFFCURVE",
"442 399 OFFCURVE",
"442 503 CURVE SMOOTH",
"442 606 OFFCURVE",
"372 658 OFFCURVE",
"276 658 CURVE SMOOTH"
);
}
);
};
layerId = "C0403F1F-3C96-483E-B2A6-FF5F8E230CEF";
name = Light;
paths = (
{
closed = 1;
nodes = (
"155 261 LINE",
"93 330 LINE",
"285 330 LINE SMOOTH",
"341 330 OFFCURVE",
"385 348 OFFCURVE",
"414 379 CURVE SMOOTH",
"442 410 OFFCURVE",
"456 453 OFFCURVE",
"456 503 CURVE SMOOTH",
"456 560 OFFCURVE",
"437 602 OFFCURVE",
"404 629 CURVE SMOOTH",
"372 657 OFFCURVE",
"328 670 OFFCURVE",
"280 670 CURVE SMOOTH",
"93 670 LINE",
"93 0 LINE"
);
},
{
closed = 1;
nodes = (
"336 88 LINE",
"490 0 LINE",
"431 202 LINE",
"430 204 OFFCURVE",
"427 213 OFFCURVE",
"427 215 CURVE SMOOTH",
"414 251 OFFCURVE",
"399 277 OFFCURVE",
"376 295 CURVE SMOOTH",
"359 307 OFFCURVE",
"341 315 OFFCURVE",
"319 321 CURVE"
);
}
);
width = 533;
}
);
rightKerningGroupId = "@MMK_L_R";
unicode = 0052;
},
{
changeCount = 0;
export = 0;
glyphname = Racute;
layers = (
{
layerId = "C0403F1F-3C96-483E-B2A6-FF5F8E230CEF";
name = Light;
paths = (
{
closed = 1;
nodes = (
"107 0 LINE",
"80 0 LINE",
"80 682 LINE",
"271 682 LINE SMOOTH",
"343 682 OFFCURVE",
"393 661 OFFCURVE",
"425 629 CURVE SMOOTH",
"456 597 OFFCURVE",
"469 553 OFFCURVE",
"469 506 CURVE SMOOTH",
"469 470 OFFCURVE",
"461 429 OFFCURVE",
"442 396 CURVE SMOOTH",
"422 363 OFFCURVE",
"391 334 OFFCURVE",
"344 325 CURVE",
"400 306 OFFCURVE",
"425 268 OFFCURVE",
"442 212 CURVE SMOOTH",
"503 0 LINE",
"476 0 LINE",
"416 205 LINE",
"401 250 OFFCURVE",
"381 279 OFFCURVE",
"354 296 CURVE SMOOTH",
"327 312 OFFCURVE",
"297 318 OFFCURVE",
"265 318 CURVE SMOOTH",
"107 318 LINE"
);
},
{
closed = 1;
nodes = (
"107 658 LINE",
"107 342 LINE",
"279 342 LINE SMOOTH",
"387 342 OFFCURVE",
"442 399 OFFCURVE",
"442 503 CURVE SMOOTH",
"442 606 OFFCURVE",
"372 658 OFFCURVE",
"276 658 CURVE SMOOTH"
);
},
{
closed = 1;
nodes = (
"229 723 LINE",
"329 866 LINE",
"355 844 LINE",
"244 713 LINE"
);
}
);
width = 533;
}
);
rightKerningGroupId = "@MMK_L_R";
unicode = 0154;
},
{
changeCount = 0;
export = 0;
glyphname = Rcaron;
layers = (
{
layerId = "C0403F1F-3C96-483E-B2A6-FF5F8E230CEF";
name = Light;
paths = (
{
closed = 1;
nodes = (
"107 0 LINE",
"80 0 LINE",
"80 682 LINE",
"271 682 LINE SMOOTH",
"343 682 OFFCURVE",
"393 661 OFFCURVE",
"425 629 CURVE SMOOTH",
"456 597 OFFCURVE",
"469 553 OFFCURVE",
"469 506 CURVE SMOOTH",
"469 470 OFFCURVE",
"461 429 OFFCURVE",
"442 396 CURVE SMOOTH",
"422 363 OFFCURVE",
"391 334 OFFCURVE",
"344 325 CURVE",
"400 306 OFFCURVE",
"425 268 OFFCURVE",
"442 212 CURVE SMOOTH",
"503 0 LINE",
"476 0 LINE",
"416 205 LINE",
"401 250 OFFCURVE",
"381 279 OFFCURVE",
"354 296 CURVE SMOOTH",
"327 312 OFFCURVE",
"297 318 OFFCURVE",
"265 318 CURVE SMOOTH",
"107 318 LINE"
);
},
{
closed = 1;
nodes = (
"107 658 LINE",
"107 342 LINE",
"279 342 LINE SMOOTH",
"387 342 OFFCURVE",
"442 399 OFFCURVE",
"442 503 CURVE SMOOTH",
"442 606 OFFCURVE",
"372 658 OFFCURVE",
"276 658 CURVE SMOOTH"
);
},
{
closed = 1;
nodes = (
"373 852 LINE",
"383 840 LINE",
"255 718 LINE",
"227 718 LINE",
"98 841 LINE",
"109 853 LINE",
"241 750 LINE"
);
}
);
width = 533;
}
);
rightKerningGroupId = "@MMK_L_R";
unicode = 0158;
},
{
changeCount = 0;
export = 0;
glyphname = Rcommaaccent;
layers = (
{
layerId = "C0403F1F-3C96-483E-B2A6-FF5F8E230CEF";
name = Light;
paths = (
{
closed = 1;
nodes = (
"107 0 LINE",
"80 0 LINE",
"80 682 LINE",
"271 682 LINE SMOOTH",
"343 682 OFFCURVE",
"393 661 OFFCURVE",
"425 629 CURVE SMOOTH",
"456 597 OFFCURVE",
"469 553 OFFCURVE",
"469 506 CURVE SMOOTH",
"469 470 OFFCURVE",
"461 429 OFFCURVE",
"442 396 CURVE SMOOTH",
"422 363 OFFCURVE",
"391 334 OFFCURVE",
"344 325 CURVE",
"400 306 OFFCURVE",
"425 268 OFFCURVE",
"442 212 CURVE SMOOTH",
"503 0 LINE",
"476 0 LINE",
"416 205 LINE",
"401 250 OFFCURVE",
"381 279 OFFCURVE",
"354 296 CURVE SMOOTH",
"327 312 OFFCURVE",
"297 318 OFFCURVE",
"265 318 CURVE SMOOTH",
"107 318 LINE"
);
},
{
closed = 1;
nodes = (
"107 658 LINE",
"107 342 LINE",
"279 342 LINE SMOOTH",
"387 342 OFFCURVE",
"442 399 OFFCURVE",
"442 503 CURVE SMOOTH",
"442 606 OFFCURVE",
"372 658 OFFCURVE",
"276 658 CURVE SMOOTH"
);
},
{
closed = 1;
nodes = (
"256 -115 OFFCURVE",
"245 -105 OFFCURVE",
"245 -90 CURVE SMOOTH",
"245 -74 OFFCURVE",
"255 -61 OFFCURVE",
"271 -61 CURVE SMOOTH",
"290 -61 OFFCURVE",
"302 -73 OFFCURVE",
"302 -98 CURVE SMOOTH",
"302 -129 OFFCURVE",
"289 -155 OFFCURVE",
"258 -182 CURVE",
"250 -174 LINE",
"269 -151 OFFCURVE",
"271 -138 OFFCURVE",
"271 -115 CURVE"
);
}
);
width = 533;
}
);
rightKerningGroupId = "@MMK_L_R";
unicode = 0156;
},
{
changeCount = 0;
color = 4;
glyphname = S;
layers = (
{
background = {
paths = (
{
closed = 1;
nodes = (
"301 693 OFFCURVE",
"368 688 OFFCURVE",
"428 667 CURVE",
"420 642 LINE",
"349 662 OFFCURVE",
"304 668 OFFCURVE",
"256 668 CURVE SMOOTH",
"207 668 OFFCURVE",
"164 656 OFFCURVE",
"133 630 CURVE SMOOTH",
"101 604 OFFCURVE",
"83 565 OFFCURVE",
"83 512 CURVE SMOOTH",
"83 465 OFFCURVE",
"106 435 OFFCURVE",
"140 414 CURVE SMOOTH",
"174 393 OFFCURVE",
"219 380 OFFCURVE",
"267 367 CURVE SMOOTH",
"316 354 OFFCURVE",
"368 340 OFFCURVE",
"408 313 CURVE SMOOTH",
"447 285 OFFCURVE",
"474 245 OFFCURVE",
"474 178 CURVE SMOOTH",
"474 111 OFFCURVE",
"447 64 OFFCURVE",
"406 35 CURVE SMOOTH",
"365 6 OFFCURVE",
"306 -7 OFFCURVE",
"245 -7 CURVE SMOOTH",
"176 -7 OFFCURVE",
"96 8 OFFCURVE",
"40 40 CURVE",
"51 62 LINE",
"123 27 OFFCURVE",
"182 17 OFFCURVE",
"241 17 CURVE SMOOTH",
"370 17 OFFCURVE",
"447 64 OFFCURVE",
"447 179 CURVE SMOOTH",
"447 230 OFFCURVE",
"428 263 OFFCURVE",
"396 287 CURVE SMOOTH",
"364 311 OFFCURVE",
"319 325 OFFCURVE",
"267 340 CURVE SMOOTH",
"210 355 OFFCURVE",
"157 371 OFFCURVE",
"118 396 CURVE SMOOTH",
"79 421 OFFCURVE",
"55 457 OFFCURVE",
"55 513 CURVE SMOOTH",
"55 572 OFFCURVE",
"76 616 OFFCURVE",
"112 647 CURVE SMOOTH",
"148 678 OFFCURVE",
"200 693 OFFCURVE",
"261 693 CURVE SMOOTH"
);
}
);
};
layerId = "C0403F1F-3C96-483E-B2A6-FF5F8E230CEF";
name = Light;
paths = (
{
closed = 1;
nodes = (
"295 452 LINE",
"69 39 LINE",
"126 14 OFFCURVE",
"186 5 OFFCURVE",
"242 5 CURVE SMOOTH",
"309 5 OFFCURVE",
"366 19 OFFCURVE",
"404 49 CURVE SMOOTH",
"419 61 OFFCURVE",
"431 76 OFFCURVE",
"440 93 CURVE SMOOTH",
"453 116 OFFCURVE",
"459 144 OFFCURVE",
"460 177 CURVE SMOOTH",
"460 177 OFFCURVE",
"460 178 OFFCURVE",
"460 179 CURVE SMOOTH",
"459 238 OFFCURVE",
"437 274 OFFCURVE",
"401 300 CURVE SMOOTH",
"368 324 OFFCURVE",
"322 338 OFFCURVE",
"274 351 CURVE SMOOTH",
"269 352 OFFCURVE",
"263 354 OFFCURVE",
"257 355 CURVE SMOOTH",
"208 369 OFFCURVE",
"163 383 OFFCURVE",
"128 405 CURVE SMOOTH",
"92 428 OFFCURVE",
"68 461 OFFCURVE",
"68 512 CURVE SMOOTH",
"68 568 OFFCURVE",
"88 609 OFFCURVE",
"122 638 CURVE SMOOTH",
"155 666 OFFCURVE",
"203 680 OFFCURVE",
"258 680 CURVE SMOOTH",
"295 680 OFFCURVE",
"342 676 OFFCURVE",
"395 662 CURVE"
);
}
);
width = 514;
}
);
unicode = 0053;
},
{
changeCount = 0;
export = 0;
glyphname = Sacute;
layers = (
{
layerId = "C0403F1F-3C96-483E-B2A6-FF5F8E230CEF";
name = Light;
paths = (
{
closed = 1;
nodes = (
"301 693 OFFCURVE",
"368 688 OFFCURVE",
"428 667 CURVE",
"420 642 LINE",
"349 662 OFFCURVE",
"304 668 OFFCURVE",
"256 668 CURVE SMOOTH",
"207 668 OFFCURVE",
"164 656 OFFCURVE",
"133 630 CURVE SMOOTH",
"101 604 OFFCURVE",
"83 565 OFFCURVE",
"83 512 CURVE SMOOTH",
"83 465 OFFCURVE",
"106 435 OFFCURVE",
"140 414 CURVE SMOOTH",
"174 393 OFFCURVE",
"219 380 OFFCURVE",
"267 367 CURVE SMOOTH",
"316 354 OFFCURVE",
"368 340 OFFCURVE",
"408 313 CURVE SMOOTH",
"447 285 OFFCURVE",
"474 245 OFFCURVE",
"474 178 CURVE SMOOTH",
"474 111 OFFCURVE",
"447 64 OFFCURVE",
"406 35 CURVE SMOOTH",
"365 6 OFFCURVE",
"306 -7 OFFCURVE",
"245 -7 CURVE SMOOTH",
"176 -7 OFFCURVE",
"96 8 OFFCURVE",
"40 40 CURVE",
"51 62 LINE",
"123 27 OFFCURVE",
"182 17 OFFCURVE",
"241 17 CURVE SMOOTH",
"370 17 OFFCURVE",
"447 64 OFFCURVE",
"447 179 CURVE SMOOTH",
"447 230 OFFCURVE",
"428 263 OFFCURVE",
"396 287 CURVE SMOOTH",
"364 311 OFFCURVE",
"319 325 OFFCURVE",
"267 340 CURVE SMOOTH",
"210 355 OFFCURVE",
"157 371 OFFCURVE",
"118 396 CURVE SMOOTH",
"79 421 OFFCURVE",
"55 457 OFFCURVE",
"55 513 CURVE SMOOTH",
"55 572 OFFCURVE",
"76 616 OFFCURVE",
"112 647 CURVE SMOOTH",
"148 678 OFFCURVE",
"200 693 OFFCURVE",
"261 693 CURVE SMOOTH"
);
},
{
closed = 1;
nodes = (
"207 721 LINE",
"307 864 LINE",
"333 842 LINE",
"222 711 LINE"
);
}
);
width = 514;
}
);
unicode = 015A;
},
{
changeCount = 0;
export = 0;
glyphname = Scaron;
layers = (
{
layerId = "C0403F1F-3C96-483E-B2A6-FF5F8E230CEF";
name = Light;
paths = (
{
closed = 1;
nodes = (
"301 693 OFFCURVE",
"368 688 OFFCURVE",
"428 667 CURVE",
"420 642 LINE",
"349 662 OFFCURVE",
"304 668 OFFCURVE",
"256 668 CURVE SMOOTH",
"207 668 OFFCURVE",
"164 656 OFFCURVE",
"133 630 CURVE SMOOTH",
"101 604 OFFCURVE",
"83 565 OFFCURVE",
"83 512 CURVE SMOOTH",
"83 465 OFFCURVE",
"106 435 OFFCURVE",
"140 414 CURVE SMOOTH",
"174 393 OFFCURVE",
"219 380 OFFCURVE",
"267 367 CURVE SMOOTH",
"316 354 OFFCURVE",
"368 340 OFFCURVE",
"408 313 CURVE SMOOTH",
"447 285 OFFCURVE",
"474 245 OFFCURVE",
"474 178 CURVE SMOOTH",
"474 111 OFFCURVE",
"447 64 OFFCURVE",
"406 35 CURVE SMOOTH",
"365 6 OFFCURVE",
"306 -7 OFFCURVE",
"245 -7 CURVE SMOOTH",
"176 -7 OFFCURVE",
"96 8 OFFCURVE",
"40 40 CURVE",
"51 62 LINE",
"123 27 OFFCURVE",
"182 17 OFFCURVE",
"241 17 CURVE SMOOTH",
"370 17 OFFCURVE",
"447 64 OFFCURVE",
"447 179 CURVE SMOOTH",
"447 230 OFFCURVE",
"428 263 OFFCURVE",
"396 287 CURVE SMOOTH",
"364 311 OFFCURVE",
"319 325 OFFCURVE",
"267 340 CURVE SMOOTH",
"210 355 OFFCURVE",
"157 371 OFFCURVE",
"118 396 CURVE SMOOTH",
"79 421 OFFCURVE",
"55 457 OFFCURVE",
"55 513 CURVE SMOOTH",
"55 572 OFFCURVE",
"76 616 OFFCURVE",
"112 647 CURVE SMOOTH",
"148 678 OFFCURVE",
"200 693 OFFCURVE",
"261 693 CURVE SMOOTH"
);
},
{
closed = 1;
nodes = (
"377 852 LINE",
"387 840 LINE",
"259 718 LINE",
"231 718 LINE",
"102 841 LINE",
"113 853 LINE",
"245 750 LINE"
);
}
);
width = 514;
}
);
unicode = 0160;
},
{
changeCount = 0;
export = 0;
glyphname = Scedilla;
layers = (
{
layerId = "C0403F1F-3C96-483E-B2A6-FF5F8E230CEF";
name = Light;
paths = (
{
closed = 1;
nodes = (
"301 693 OFFCURVE",
"368 688 OFFCURVE",
"428 667 CURVE",
"420 642 LINE",
"349 662 OFFCURVE",
"304 668 OFFCURVE",
"256 668 CURVE SMOOTH",
"207 668 OFFCURVE",
"164 656 OFFCURVE",
"133 630 CURVE SMOOTH",
"101 604 OFFCURVE",
"83 565 OFFCURVE",
"83 512 CURVE SMOOTH",
"83 465 OFFCURVE",
"106 435 OFFCURVE",
"140 414 CURVE SMOOTH",
"174 393 OFFCURVE",
"219 380 OFFCURVE",
"267 367 CURVE SMOOTH",
"316 354 OFFCURVE",
"368 340 OFFCURVE",
"408 313 CURVE SMOOTH",
"447 285 OFFCURVE",
"474 245 OFFCURVE",
"474 178 CURVE SMOOTH",
"474 114 OFFCURVE",
"451 69 OFFCURVE",
"413 40 CURVE SMOOTH",
"375 11 OFFCURVE",
"322 -3 OFFCURVE",
"265 -6 CURVE",
"211 -75 LINE",
"228 -75 LINE SMOOTH",
"288 -75 OFFCURVE",
"332 -95 OFFCURVE",
"332 -142 CURVE SMOOTH",
"332 -167 OFFCURVE",
"320 -191 OFFCURVE",
"293 -209 CURVE SMOOTH",
"266 -227 OFFCURVE",
"226 -239 OFFCURVE",
"169 -239 CURVE",
"168 -222 LINE",
"220 -218 OFFCURVE",
"253 -207 OFFCURVE",
"273 -193 CURVE SMOOTH",
"293 -179 OFFCURVE",
"300 -163 OFFCURVE",
"300 -144 CURVE SMOOTH",
"300 -109 OFFCURVE",
"263 -94 OFFCURVE",
"212 -94 CURVE SMOOTH",
"209 -94 OFFCURVE",
"205 -94 OFFCURVE",
"202 -94 CURVE",
"198 -95 OFFCURVE",
"194 -95 OFFCURVE",
"190 -95 CURVE",
"181 -81 LINE",
"241 -7 LINE",
"173 -6 OFFCURVE",
"96 8 OFFCURVE",
"40 40 CURVE",
"51 62 LINE",
"123 27 OFFCURVE",
"182 17 OFFCURVE",
"241 17 CURVE SMOOTH",
"370 17 OFFCURVE",
"447 64 OFFCURVE",
"447 179 CURVE SMOOTH",
"447 230 OFFCURVE",
"428 263 OFFCURVE",
"396 287 CURVE SMOOTH",
"364 311 OFFCURVE",
"319 325 OFFCURVE",
"267 340 CURVE SMOOTH",
"210 355 OFFCURVE",
"157 371 OFFCURVE",
"118 396 CURVE SMOOTH",
"79 421 OFFCURVE",
"55 457 OFFCURVE",
"55 513 CURVE SMOOTH",
"55 572 OFFCURVE",
"76 616 OFFCURVE",
"112 647 CURVE SMOOTH",
"148 678 OFFCURVE",
"200 693 OFFCURVE",
"261 693 CURVE SMOOTH"
);
}
);
width = 514;
}
);
unicode = 015E;
},
{
changeCount = 0;
export = 0;
glyphname = Scircumflex;
layers = (
{
layerId = "C0403F1F-3C96-483E-B2A6-FF5F8E230CEF";
name = Light;
paths = (
{
closed = 1;
nodes = (
"301 693 OFFCURVE",
"368 688 OFFCURVE",
"428 667 CURVE",
"420 642 LINE",
"349 662 OFFCURVE",
"304 668 OFFCURVE",
"256 668 CURVE SMOOTH",
"207 668 OFFCURVE",
"164 656 OFFCURVE",
"133 630 CURVE SMOOTH",
"101 604 OFFCURVE",
"83 565 OFFCURVE",
"83 512 CURVE SMOOTH",
"83 465 OFFCURVE",
"106 435 OFFCURVE",
"140 414 CURVE SMOOTH",
"174 393 OFFCURVE",
"219 380 OFFCURVE",
"267 367 CURVE SMOOTH",
"316 354 OFFCURVE",
"368 340 OFFCURVE",
"408 313 CURVE SMOOTH",
"447 285 OFFCURVE",
"474 245 OFFCURVE",
"474 178 CURVE SMOOTH",
"474 111 OFFCURVE",
"447 64 OFFCURVE",
"406 35 CURVE SMOOTH",
"365 6 OFFCURVE",
"306 -7 OFFCURVE",
"245 -7 CURVE SMOOTH",
"176 -7 OFFCURVE",
"96 8 OFFCURVE",
"40 40 CURVE",
"51 62 LINE",
"123 27 OFFCURVE",
"182 17 OFFCURVE",
"241 17 CURVE SMOOTH",
"370 17 OFFCURVE",
"447 64 OFFCURVE",
"447 179 CURVE SMOOTH",
"447 230 OFFCURVE",
"428 263 OFFCURVE",
"396 287 CURVE SMOOTH",
"364 311 OFFCURVE",
"319 325 OFFCURVE",
"267 340 CURVE SMOOTH",
"210 355 OFFCURVE",
"157 371 OFFCURVE",
"118 396 CURVE SMOOTH",
"79 421 OFFCURVE",
"55 457 OFFCURVE",
"55 513 CURVE SMOOTH",
"55 572 OFFCURVE",
"76 616 OFFCURVE",
"112 647 CURVE SMOOTH",
"148 678 OFFCURVE",
"200 693 OFFCURVE",
"261 693 CURVE SMOOTH"
);
},
{
closed = 1;
nodes = (
"271 819 LINE",
"139 716 LINE",
"128 728 LINE",
"257 851 LINE",
"285 851 LINE",
"413 729 LINE",
"403 717 LINE"
);
}
);
width = 514;
}
);
unicode = 015C;
},
{
changeCount = 0;
export = 0;
glyphname = Scommaaccent;
layers = (
{
layerId = "C0403F1F-3C96-483E-B2A6-FF5F8E230CEF";
name = Light;
paths = (
{
closed = 1;
nodes = (
"301 693 OFFCURVE",
"368 688 OFFCURVE",
"428 667 CURVE",
"420 642 LINE",
"349 662 OFFCURVE",
"304 668 OFFCURVE",
"256 668 CURVE SMOOTH",
"207 668 OFFCURVE",
"164 656 OFFCURVE",
"133 630 CURVE SMOOTH",
"101 604 OFFCURVE",
"83 565 OFFCURVE",
"83 512 CURVE SMOOTH",
"83 465 OFFCURVE",
"106 435 OFFCURVE",
"140 414 CURVE SMOOTH",
"174 393 OFFCURVE",
"219 380 OFFCURVE",
"267 367 CURVE SMOOTH",
"316 354 OFFCURVE",
"368 340 OFFCURVE",
"408 313 CURVE SMOOTH",
"447 285 OFFCURVE",
"474 245 OFFCURVE",
"474 178 CURVE SMOOTH",
"474 111 OFFCURVE",
"447 64 OFFCURVE",
"406 35 CURVE SMOOTH",
"365 6 OFFCURVE",
"306 -7 OFFCURVE",
"245 -7 CURVE SMOOTH",
"176 -7 OFFCURVE",
"96 8 OFFCURVE",
"40 40 CURVE",
"51 62 LINE",
"123 27 OFFCURVE",
"182 17 OFFCURVE",
"241 17 CURVE SMOOTH",
"370 17 OFFCURVE",
"447 64 OFFCURVE",
"447 179 CURVE SMOOTH",
"447 230 OFFCURVE",
"428 263 OFFCURVE",
"396 287 CURVE SMOOTH",
"364 311 OFFCURVE",
"319 325 OFFCURVE",
"267 340 CURVE SMOOTH",
"210 355 OFFCURVE",
"157 371 OFFCURVE",
"118 396 CURVE SMOOTH",
"79 421 OFFCURVE",
"55 457 OFFCURVE",
"55 513 CURVE SMOOTH",
"55 572 OFFCURVE",
"76 616 OFFCURVE",
"112 647 CURVE SMOOTH",
"148 678 OFFCURVE",
"200 693 OFFCURVE",
"261 693 CURVE SMOOTH"
);
},
{
closed = 1;
nodes = (
"226 -134 OFFCURVE",
"215 -124 OFFCURVE",
"215 -109 CURVE SMOOTH",
"215 -93 OFFCURVE",
"225 -80 OFFCURVE",
"241 -80 CURVE SMOOTH",
"260 -80 OFFCURVE",
"272 -92 OFFCURVE",
"272 -117 CURVE SMOOTH",
"272 -148 OFFCURVE",
"259 -174 OFFCURVE",
"228 -201 CURVE",
"220 -193 LINE",
"239 -170 OFFCURVE",
"241 -157 OFFCURVE",
"241 -134 CURVE"
);
}
);
width = 514;
}
);
unicode = 0218;
},
{
changeCount = 0;
color = 4;
glyphname = T;
layers = (
{
background = {
paths = (
{
closed = 1;
nodes = (
"482 658 LINE",
"264 658 LINE",
"263 0 LINE",
"238 0 LINE",
"238 658 LINE",
"19 658 LINE",
"19 682 LINE",
"481 682 LINE"
);
}
);
};
layerId = "C0403F1F-3C96-483E-B2A6-FF5F8E230CEF";
name = Light;
paths = (
{
closed = 1;
nodes = (
"292 282 LINE",
"251 669 LINE",
"251 0 LINE"
);
},
{
closed = 1;
nodes = (
"262 690 LINE",
"48 669 LINE",
"454 669 LINE"
);
}
);
width = 501;
}
);
leftKerningGroupId = "@MMK_R_T";
rightKerningGroupId = "@MMK_L_T";
unicode = 0054;
},
{
changeCount = 0;
export = 0;
glyphname = Tbar;
layers = (
{
layerId = "C0403F1F-3C96-483E-B2A6-FF5F8E230CEF";
name = Light;
paths = (
{
closed = 1;
nodes = (
"482 658 LINE",
"264 658 LINE",
"263 376 LINE",
"464 376 LINE",
"464 355 LINE",
"263 355 LINE",
"263 0 LINE",
"238 0 LINE",
"238 355 LINE",
"48 355 LINE",
"48 376 LINE",
"238 376 LINE",
"238 658 LINE",
"19 658 LINE",
"19 682 LINE",
"481 682 LINE"
);
}
);
width = 501;
}
);
leftKerningGroupId = "@MMK_R_T";
rightKerningGroupId = "@MMK_L_T";
unicode = 0166;
},
{
changeCount = 0;
export = 0;
glyphname = Tcaron;
layers = (
{
layerId = "C0403F1F-3C96-483E-B2A6-FF5F8E230CEF";
name = Light;
paths = (
{
closed = 1;
nodes = (
"482 658 LINE",
"264 658 LINE",
"263 0 LINE",
"238 0 LINE",
"238 658 LINE",
"19 658 LINE",
"19 682 LINE",
"481 682 LINE"
);
},
{
closed = 1;
nodes = (
"385 852 LINE",
"395 840 LINE",
"267 718 LINE",
"239 718 LINE",
"110 841 LINE",
"121 853 LINE",
"253 750 LINE"
);
}
);
width = 501;
}
);
leftKerningGroupId = "@MMK_R_T";
rightKerningGroupId = "@MMK_L_T";
unicode = 0164;
},
{
changeCount = 0;
export = 0;
glyphname = Tcommaaccent;
layers = (
{
layerId = "C0403F1F-3C96-483E-B2A6-FF5F8E230CEF";
name = Light;
paths = (
{
closed = 1;
nodes = (
"482 658 LINE",
"264 658 LINE",
"263 0 LINE",
"238 0 LINE",
"238 658 LINE",
"19 658 LINE",
"19 682 LINE",
"481 682 LINE"
);
},
{
closed = 1;
nodes = (
"232 -134 OFFCURVE",
"221 -124 OFFCURVE",
"221 -109 CURVE SMOOTH",
"221 -93 OFFCURVE",
"231 -80 OFFCURVE",
"247 -80 CURVE SMOOTH",
"266 -80 OFFCURVE",
"278 -92 OFFCURVE",
"278 -117 CURVE SMOOTH",
"278 -148 OFFCURVE",
"265 -174 OFFCURVE",
"234 -201 CURVE",
"226 -193 LINE",
"245 -170 OFFCURVE",
"247 -157 OFFCURVE",
"247 -134 CURVE"
);
}
);
width = 501;
}
);
leftKerningGroupId = "@MMK_R_T";
rightKerningGroupId = "@MMK_L_T";
unicode = 021A;
},
{
changeCount = 0;
export = 0;
glyphname = Thorn;
layers = (
{
layerId = "C0403F1F-3C96-483E-B2A6-FF5F8E230CEF";
name = Light;
paths = (
{
closed = 1;
nodes = (
"284 200 LINE SMOOTH",
"321 200 OFFCURVE",
"362 210 OFFCURVE",
"392 236 CURVE SMOOTH",
"422 262 OFFCURVE",
"442 303 OFFCURVE",
"442 370 CURVE SMOOTH",
"442 426 OFFCURVE",
"424 467 OFFCURVE",
"395 495 CURVE SMOOTH",
"366 523 OFFCURVE",
"325 536 OFFCURVE",
"281 536 CURVE SMOOTH",
"107 536 LINE",
"107 200 LINE"
);
},
{
closed = 1;
nodes = (
"80 682 LINE",
"107 682 LINE",
"107 560 LINE",
"276 560 LINE SMOOTH",
"328 560 OFFCURVE",
"375 546 OFFCURVE",
"411 515 CURVE SMOOTH",
"446 484 OFFCURVE",
"468 437 OFFCURVE",
"468 373 CURVE SMOOTH",
"468 333 OFFCURVE",
"460 284 OFFCURVE",
"433 245 CURVE SMOOTH",
"405 205 OFFCURVE",
"359 176 OFFCURVE",
"283 176 CURVE SMOOTH",
"107 176 LINE",
"107 0 LINE",
"80 0 LINE"
);
}
);
width = 488;
}
);
unicode = 00DE;
},
{
changeCount = 0;
color = 4;
glyphname = U;
layers = (
{
background = {
paths = (
{
closed = 1;
nodes = (
"533 682 LINE",
"559 682 LINE",
"559 239 LINE SMOOTH",
"559 167 OFFCURVE",
"539 105 OFFCURVE",
"499 62 CURVE SMOOTH",
"459 18 OFFCURVE",
"399 -7 OFFCURVE",
"318 -7 CURVE SMOOTH",
"235 -7 OFFCURVE",
"176 17 OFFCURVE",
"137 59 CURVE SMOOTH",
"98 101 OFFCURVE",
"80 163 OFFCURVE",
"80 239 CURVE SMOOTH",
"80 682 LINE",
"105 682 LINE",
"106 242 LINE SMOOTH",
"106 93 OFFCURVE",
"177 17 OFFCURVE",
"318 17 CURVE SMOOTH",
"459 17 OFFCURVE",
"533 94 OFFCURVE",
"533 242 CURVE SMOOTH"
);
}
);
};
layerId = "C0403F1F-3C96-483E-B2A6-FF5F8E230CEF";
name = Light;
paths = (
{
closed = 1;
nodes = (
"289 646 LINE",
"91 682 LINE",
"92 240 LINE SMOOTH",
"92 167 OFFCURVE",
"109 108 OFFCURVE",
"145 69 CURVE SMOOTH",
"182 27 OFFCURVE",
"238 5 OFFCURVE",
"317 5 CURVE SMOOTH",
"394 5 OFFCURVE",
"451 28 OFFCURVE",
"489 70 CURVE SMOOTH",
"526 111 OFFCURVE",
"545 169 OFFCURVE",
"545 240 CURVE SMOOTH",
"545 682 LINE"
);
}
);
width = 639;
}
);
unicode = 0055;
},
{
changeCount = 0;
export = 0;
glyphname = Uacute;
layers = (
{
layerId = "C0403F1F-3C96-483E-B2A6-FF5F8E230CEF";
name = Light;
paths = (
{
closed = 1;
nodes = (
"533 682 LINE",
"559 682 LINE",
"559 239 LINE SMOOTH",
"559 167 OFFCURVE",
"539 105 OFFCURVE",
"499 62 CURVE SMOOTH",
"459 18 OFFCURVE",
"399 -7 OFFCURVE",
"318 -7 CURVE SMOOTH",
"235 -7 OFFCURVE",
"176 17 OFFCURVE",
"137 59 CURVE SMOOTH",
"98 101 OFFCURVE",
"80 163 OFFCURVE",
"80 239 CURVE SMOOTH",
"80 682 LINE",
"105 682 LINE",
"106 242 LINE SMOOTH",
"106 93 OFFCURVE",
"177 17 OFFCURVE",
"318 17 CURVE SMOOTH",
"459 17 OFFCURVE",
"533 94 OFFCURVE",
"533 242 CURVE SMOOTH"
);
},
{
closed = 1;
nodes = (
"288 723 LINE",
"388 866 LINE",
"414 844 LINE",
"303 713 LINE"
);
}
);
width = 639;
}
);
unicode = 00DA;
},
{
changeCount = 0;
export = 0;
glyphname = Ubreve;
layers = (
{
layerId = "C0403F1F-3C96-483E-B2A6-FF5F8E230CEF";
name = Light;
paths = (
{
closed = 1;
nodes = (
"533 682 LINE",
"559 682 LINE",
"559 239 LINE SMOOTH",
"559 167 OFFCURVE",
"539 105 OFFCURVE",
"499 62 CURVE SMOOTH",
"459 18 OFFCURVE",
"399 -7 OFFCURVE",
"318 -7 CURVE SMOOTH",
"235 -7 OFFCURVE",
"176 17 OFFCURVE",
"137 59 CURVE SMOOTH",
"98 101 OFFCURVE",
"80 163 OFFCURVE",
"80 239 CURVE SMOOTH",
"80 682 LINE",
"105 682 LINE",
"106 242 LINE SMOOTH",
"106 93 OFFCURVE",
"177 17 OFFCURVE",
"318 17 CURVE SMOOTH",
"459 17 OFFCURVE",
"533 94 OFFCURVE",
"533 242 CURVE SMOOTH"
);
},
{
closed = 1;
nodes = (
"256 737 OFFCURVE",
"207 779 OFFCURVE",
"178 827 CURVE",
"202 841 LINE",
"233 794 OFFCURVE",
"274 763 OFFCURVE",
"318 763 CURVE SMOOTH",
"354 763 OFFCURVE",
"396 782 OFFCURVE",
"451 837 CURVE",
"464 828 LINE",
"412 759 OFFCURVE",
"361 737 OFFCURVE",
"316 737 CURVE SMOOTH"
);
}
);
width = 639;
}
);
unicode = 016C;
},
{
changeCount = 0;
export = 0;
glyphname = Ucircumflex;
layers = (
{
layerId = "C0403F1F-3C96-483E-B2A6-FF5F8E230CEF";
name = Light;
paths = (
{
closed = 1;
nodes = (
"533 682 LINE",
"559 682 LINE",
"559 239 LINE SMOOTH",
"559 167 OFFCURVE",
"539 105 OFFCURVE",
"499 62 CURVE SMOOTH",
"459 18 OFFCURVE",
"399 -7 OFFCURVE",
"318 -7 CURVE SMOOTH",
"235 -7 OFFCURVE",
"176 17 OFFCURVE",
"137 59 CURVE SMOOTH",
"98 101 OFFCURVE",
"80 163 OFFCURVE",
"80 239 CURVE SMOOTH",
"80 682 LINE",
"105 682 LINE",
"106 242 LINE SMOOTH",
"106 93 OFFCURVE",
"177 17 OFFCURVE",
"318 17 CURVE SMOOTH",
"459 17 OFFCURVE",
"533 94 OFFCURVE",
"533 242 CURVE SMOOTH"
);
},
{
closed = 1;
nodes = (
"316 818 LINE",
"179 717 LINE",
"167 729 LINE",
"301 849 LINE",
"331 849 LINE",
"463 730 LINE",
"453 718 LINE"
);
}
);
width = 639;
}
);
unicode = 00DB;
},
{
changeCount = 0;
export = 0;
glyphname = Udieresis;
layers = (
{
layerId = "C0403F1F-3C96-483E-B2A6-FF5F8E230CEF";
name = Light;
paths = (
{
closed = 1;
nodes = (
"533 682 LINE",
"559 682 LINE",
"559 239 LINE SMOOTH",
"559 167 OFFCURVE",
"539 105 OFFCURVE",
"499 62 CURVE SMOOTH",
"459 18 OFFCURVE",
"399 -7 OFFCURVE",
"318 -7 CURVE SMOOTH",
"235 -7 OFFCURVE",
"176 17 OFFCURVE",
"137 59 CURVE SMOOTH",
"98 101 OFFCURVE",
"80 163 OFFCURVE",
"80 239 CURVE SMOOTH",
"80 682 LINE",
"105 682 LINE",
"106 242 LINE SMOOTH",
"106 93 OFFCURVE",
"177 17 OFFCURVE",
"318 17 CURVE SMOOTH",
"459 17 OFFCURVE",
"533 94 OFFCURVE",
"533 242 CURVE SMOOTH"
);
},
{
closed = 1;
nodes = (
"279 745 OFFCURVE",
"269 735 OFFCURVE",
"254 735 CURVE SMOOTH",
"241 735 OFFCURVE",
"230 745 OFFCURVE",
"230 760 CURVE SMOOTH",
"230 775 OFFCURVE",
"241 785 OFFCURVE",
"254 785 CURVE SMOOTH",
"269 785 OFFCURVE",
"279 775 OFFCURVE",
"279 760 CURVE SMOOTH"
);
},
{
closed = 1;
nodes = (
"412 745 OFFCURVE",
"402 735 OFFCURVE",
"387 735 CURVE SMOOTH",
"374 735 OFFCURVE",
"363 745 OFFCURVE",
"363 760 CURVE SMOOTH",
"363 775 OFFCURVE",
"374 785 OFFCURVE",
"387 785 CURVE SMOOTH",
"402 785 OFFCURVE",
"412 775 OFFCURVE",
"412 760 CURVE SMOOTH"
);
}
);
width = 639;
}
);
unicode = 00DC;
},
{
changeCount = 0;
export = 0;
glyphname = Ugrave;
layers = (
{
layerId = "C0403F1F-3C96-483E-B2A6-FF5F8E230CEF";
name = Light;
paths = (
{
closed = 1;
nodes = (
"533 682 LINE",
"559 682 LINE",
"559 239 LINE SMOOTH",
"559 167 OFFCURVE",
"539 105 OFFCURVE",
"499 62 CURVE SMOOTH",
"459 18 OFFCURVE",
"399 -7 OFFCURVE",
"318 -7 CURVE SMOOTH",
"235 -7 OFFCURVE",
"176 17 OFFCURVE",
"137 59 CURVE SMOOTH",
"98 101 OFFCURVE",
"80 163 OFFCURVE",
"80 239 CURVE SMOOTH",
"80 682 LINE",
"105 682 LINE",
"106 242 LINE SMOOTH",
"106 93 OFFCURVE",
"177 17 OFFCURVE",
"318 17 CURVE SMOOTH",
"459 17 OFFCURVE",
"533 94 OFFCURVE",
"533 242 CURVE SMOOTH"
);
},
{
closed = 1;
nodes = (
"330 713 LINE",
"219 844 LINE",
"245 866 LINE",
"345 723 LINE"
);
}
);
width = 639;
}
);
unicode = 00D9;
},
{
changeCount = 0;
export = 0;
glyphname = Uhorn;
layers = (
{
layerId = "C0403F1F-3C96-483E-B2A6-FF5F8E230CEF";
name = Light;
paths = (
{
closed = 1;
nodes = (
"533 682 LINE",
"559 682 LINE",
"559 596 LINE",
"587 596 LINE SMOOTH",
"628 596 OFFCURVE",
"654 612 OFFCURVE",
"654 672 CURVE SMOOTH",
"654 743 LINE",
"677 743 LINE",
"677 665 LINE SMOOTH",
"677 642 OFFCURVE",
"673 619 OFFCURVE",
"659 603 CURVE SMOOTH",
"645 586 OFFCURVE",
"622 574 OFFCURVE",
"586 574 CURVE SMOOTH",
"559 574 LINE",
"559 239 LINE SMOOTH",
"559 167 OFFCURVE",
"539 105 OFFCURVE",
"499 62 CURVE SMOOTH",
"459 18 OFFCURVE",
"399 -7 OFFCURVE",
"318 -7 CURVE SMOOTH",
"235 -7 OFFCURVE",
"176 17 OFFCURVE",
"137 59 CURVE SMOOTH",
"98 101 OFFCURVE",
"80 163 OFFCURVE",
"80 239 CURVE SMOOTH",
"80 682 LINE",
"105 682 LINE",
"106 242 LINE SMOOTH",
"106 93 OFFCURVE",
"177 17 OFFCURVE",
"318 17 CURVE SMOOTH",
"459 17 OFFCURVE",
"533 94 OFFCURVE",
"533 242 CURVE SMOOTH"
);
}
);
width = 671;
}
);
unicode = 01AF;
},
{
changeCount = 0;
export = 0;
glyphname = Uhungarumlaut;
layers = (
{
layerId = "C0403F1F-3C96-483E-B2A6-FF5F8E230CEF";
name = Light;
paths = (
{
closed = 1;
nodes = (
"533 682 LINE",
"559 682 LINE",
"559 239 LINE SMOOTH",
"559 167 OFFCURVE",
"539 105 OFFCURVE",
"499 62 CURVE SMOOTH",
"459 18 OFFCURVE",
"399 -7 OFFCURVE",
"318 -7 CURVE SMOOTH",
"235 -7 OFFCURVE",
"176 17 OFFCURVE",
"137 59 CURVE SMOOTH",
"98 101 OFFCURVE",
"80 163 OFFCURVE",
"80 239 CURVE SMOOTH",
"80 682 LINE",
"105 682 LINE",
"106 242 LINE SMOOTH",
"106 93 OFFCURVE",
"177 17 OFFCURVE",
"318 17 CURVE SMOOTH",
"459 17 OFFCURVE",
"533 94 OFFCURVE",
"533 242 CURVE SMOOTH"
);
},
{
closed = 1;
nodes = (
"257 724 LINE",
"357 867 LINE",
"383 845 LINE",
"272 714 LINE"
);
},
{
closed = 1;
nodes = (
"348 724 LINE",
"448 867 LINE",
"474 845 LINE",
"363 714 LINE"
);
}
);
width = 639;
}
);
unicode = 0170;
},
{
changeCount = 0;
export = 0;
glyphname = Umacron;
layers = (
{
layerId = "C0403F1F-3C96-483E-B2A6-FF5F8E230CEF";
name = Light;
paths = (
{
closed = 1;
nodes = (
"533 682 LINE",
"559 682 LINE",
"559 239 LINE SMOOTH",
"559 167 OFFCURVE",
"539 105 OFFCURVE",
"499 62 CURVE SMOOTH",
"459 18 OFFCURVE",
"399 -7 OFFCURVE",
"318 -7 CURVE SMOOTH",
"235 -7 OFFCURVE",
"176 17 OFFCURVE",
"137 59 CURVE SMOOTH",
"98 101 OFFCURVE",
"80 163 OFFCURVE",
"80 239 CURVE SMOOTH",
"80 682 LINE",
"105 682 LINE",
"106 242 LINE SMOOTH",
"106 93 OFFCURVE",
"177 17 OFFCURVE",
"318 17 CURVE SMOOTH",
"459 17 OFFCURVE",
"533 94 OFFCURVE",
"533 242 CURVE SMOOTH"
);
},
{
closed = 1;
nodes = (
"456 774 LINE",
"456 748 LINE",
"170 748 LINE",
"170 774 LINE"
);
}
);
width = 639;
}
);
unicode = 016A;
},
{
changeCount = 0;
export = 0;
glyphname = Uogonek;
layers = (
{
layerId = "C0403F1F-3C96-483E-B2A6-FF5F8E230CEF";
name = Light;
paths = (
{
closed = 1;
nodes = (
"533 682 LINE",
"559 682 LINE",
"559 239 LINE SMOOTH",
"559 170 OFFCURVE",
"541 110 OFFCURVE",
"504 67 CURVE SMOOTH",
"467 24 OFFCURVE",
"411 -2 OFFCURVE",
"338 -6 CURVE",
"282 -57 OFFCURVE",
"269 -104 OFFCURVE",
"269 -131 CURVE SMOOTH",
"269 -171 OFFCURVE",
"298 -182 OFFCURVE",
"333 -182 CURVE SMOOTH",
"360 -182 OFFCURVE",
"383 -177 OFFCURVE",
"402 -172 CURVE",
"407 -186 LINE",
"378 -201 OFFCURVE",
"346 -207 OFFCURVE",
"321 -207 CURVE SMOOTH",
"262 -207 OFFCURVE",
"239 -177 OFFCURVE",
"239 -141 CURVE SMOOTH",
"239 -106 OFFCURVE",
"254 -62 OFFCURVE",
"315 -7 CURVE",
"151 -6 OFFCURVE",
"80 87 OFFCURVE",
"80 239 CURVE SMOOTH",
"80 682 LINE",
"105 682 LINE",
"106 242 LINE SMOOTH",
"106 93 OFFCURVE",
"177 17 OFFCURVE",
"318 17 CURVE SMOOTH",
"459 17 OFFCURVE",
"533 94 OFFCURVE",
"533 242 CURVE SMOOTH"
);
}
);
width = 639;
}
);
unicode = 0172;
},
{
changeCount = 0;
export = 0;
glyphname = Uring;
layers = (
{
layerId = "C0403F1F-3C96-483E-B2A6-FF5F8E230CEF";
name = Light;
paths = (
{
closed = 1;
nodes = (
"533 682 LINE",
"559 682 LINE",
"559 239 LINE SMOOTH",
"559 167 OFFCURVE",
"539 105 OFFCURVE",
"499 62 CURVE SMOOTH",
"459 18 OFFCURVE",
"399 -7 OFFCURVE",
"318 -7 CURVE SMOOTH",
"235 -7 OFFCURVE",
"176 17 OFFCURVE",
"137 59 CURVE SMOOTH",
"98 101 OFFCURVE",
"80 163 OFFCURVE",
"80 239 CURVE SMOOTH",
"80 682 LINE",
"105 682 LINE",
"106 242 LINE SMOOTH",
"106 93 OFFCURVE",
"177 17 OFFCURVE",
"318 17 CURVE SMOOTH",
"459 17 OFFCURVE",
"533 94 OFFCURVE",
"533 242 CURVE SMOOTH"
);
},
{
closed = 1;
nodes = (
"268 707 OFFCURVE",
"239 744 OFFCURVE",
"239 788 CURVE SMOOTH",
"239 832 OFFCURVE",
"274 870 OFFCURVE",
"323 870 CURVE SMOOTH",
"374 870 OFFCURVE",
"405 833 OFFCURVE",
"405 788 CURVE SMOOTH",
"405 743 OFFCURVE",
"374 707 OFFCURVE",
"323 707 CURVE SMOOTH"
);
},
{
closed = 1;
nodes = (
"284 847 OFFCURVE",
"264 824 OFFCURVE",
"264 787 CURVE SMOOTH",
"264 748 OFFCURVE",
"284 727 OFFCURVE",
"323 727 CURVE SMOOTH",
"359 727 OFFCURVE",
"381 748 OFFCURVE",
"381 787 CURVE SMOOTH",
"381 823 OFFCURVE",
"359 847 OFFCURVE",
"323 847 CURVE SMOOTH"
);
}
);
width = 639;
}
);
unicode = 016E;
},
{
changeCount = 0;
export = 0;
glyphname = Utilde;
layers = (
{
layerId = "C0403F1F-3C96-483E-B2A6-FF5F8E230CEF";
name = Light;
paths = (
{
closed = 1;
nodes = (
"533 682 LINE",
"559 682 LINE",
"559 239 LINE SMOOTH",
"559 167 OFFCURVE",
"539 105 OFFCURVE",
"499 62 CURVE SMOOTH",
"459 18 OFFCURVE",
"399 -7 OFFCURVE",
"318 -7 CURVE SMOOTH",
"235 -7 OFFCURVE",
"176 17 OFFCURVE",
"137 59 CURVE SMOOTH",
"98 101 OFFCURVE",
"80 163 OFFCURVE",
"80 239 CURVE SMOOTH",
"80 682 LINE",
"105 682 LINE",
"106 242 LINE SMOOTH",
"106 93 OFFCURVE",
"177 17 OFFCURVE",
"318 17 CURVE SMOOTH",
"459 17 OFFCURVE",
"533 94 OFFCURVE",
"533 242 CURVE SMOOTH"
);
},
{
closed = 1;
nodes = (
"195 765 LINE",
"182 772 LINE",
"193 807 OFFCURVE",
"220 829 OFFCURVE",
"249 829 CURVE SMOOTH",
"270 829 OFFCURVE",
"297 820 OFFCURVE",
"323 811 CURVE SMOOTH",
"349 802 OFFCURVE",
"375 793 OFFCURVE",
"395 793 CURVE",
"440 832 LINE",
"452 825 LINE",
"440 796 OFFCURVE",
"421 768 OFFCURVE",
"390 768 CURVE SMOOTH",
"373 768 OFFCURVE",
"345 778 OFFCURVE",
"317 787 CURVE SMOOTH",
"289 796 OFFCURVE",
"261 806 OFFCURVE",
"244 806 CURVE"
);
}
);
width = 639;
}
);
unicode = 0168;
},
{
changeCount = 0;
color = 4;
glyphname = V;
layers = (
{
background = {
paths = (
{
closed = 1;
nodes = (
"450 682 LINE",
"476 682 LINE",
"266 0 LINE",
"230 0 LINE",
"20 682 LINE",
"47 682 LINE",
"208 154 LINE",
"246 27 LINE",
"249 27 LINE",
"288 158 LINE"
);
}
);
};
layerId = "C0403F1F-3C96-483E-B2A6-FF5F8E230CEF";
name = Light;
paths = (
{
closed = 1;
nodes = (
"212 607 LINE",
"35 682 LINE",
"204 130 LINE",
"240 1 LINE",
"256 1 LINE",
"259 1 LINE",
"299 147 LINE",
"464 682 LINE"
);
}
);
width = 496;
}
);
leftKerningGroupId = "@MMK_R_V";
rightKerningGroupId = "@MMK_L_V";
unicode = 0056;
},
{
changeCount = 0;
color = 4;
glyphname = W;
layers = (
{
background = {
paths = (
{
closed = 1;
nodes = (
"373 638 LINE",
"221 0 LINE",
"185 0 LINE",
"20 682 LINE",
"44 682 LINE",
"201 28 LINE",
"204 28 LINE",
"362 682 LINE",
"388 682 LINE",
"566 28 LINE",
"569 28 LINE",
"725 682 LINE",
"749 682 LINE",
"585 0 LINE",
"549 0 LINE",
"377 638 LINE"
);
}
);
};
layerId = "C0403F1F-3C96-483E-B2A6-FF5F8E230CEF";
name = Light;
paths = (
{
closed = 1;
nodes = (
"326 713 LINE",
"32 682 LINE",
"193 1 LINE",
"212 1 LINE",
"367 660 LINE",
"382 660 LINE",
"557 1 LINE",
"577 1 LINE",
"737 682 LINE"
);
}
);
width = 769;
}
);
leftKerningGroupId = "@MMK_R_V";
rightKerningGroupId = "@MMK_L_V";
unicode = 0057;
},
{
changeCount = 0;
export = 0;
glyphname = Wacute;
layers = (
{
layerId = "C0403F1F-3C96-483E-B2A6-FF5F8E230CEF";
name = Light;
paths = (
{
closed = 1;
nodes = (
"373 638 LINE",
"221 0 LINE",
"185 0 LINE",
"20 682 LINE",
"44 682 LINE",
"201 28 LINE",
"204 28 LINE",
"362 682 LINE",
"388 682 LINE",
"566 28 LINE",
"569 28 LINE",
"725 682 LINE",
"749 682 LINE",
"585 0 LINE",
"549 0 LINE",
"377 638 LINE"
);
},
{
closed = 1;
nodes = (
"363 724 LINE",
"463 867 LINE",
"489 845 LINE",
"378 714 LINE"
);
}
);
width = 769;
}
);
leftKerningGroupId = "@MMK_R_V";
rightKerningGroupId = "@MMK_L_V";
unicode = 1E82;
},
{
changeCount = 0;
export = 0;
glyphname = Wcircumflex;
layers = (
{
layerId = "C0403F1F-3C96-483E-B2A6-FF5F8E230CEF";
name = Light;
paths = (
{
closed = 1;
nodes = (
"373 638 LINE",
"221 0 LINE",
"185 0 LINE",
"20 682 LINE",
"44 682 LINE",
"201 28 LINE",
"204 28 LINE",
"362 682 LINE",
"388 682 LINE",
"566 28 LINE",
"569 28 LINE",
"725 682 LINE",
"749 682 LINE",
"585 0 LINE",
"549 0 LINE",
"377 638 LINE"
);
},
{
closed = 1;
nodes = (
"376 819 LINE",
"244 716 LINE",
"233 728 LINE",
"362 851 LINE",
"390 851 LINE",
"518 729 LINE",
"508 717 LINE"
);
}
);
width = 769;
}
);
leftKerningGroupId = "@MMK_R_V";
rightKerningGroupId = "@MMK_L_V";
unicode = 0174;
},
{
changeCount = 0;
export = 0;
glyphname = Wdieresis;
layers = (
{
layerId = "C0403F1F-3C96-483E-B2A6-FF5F8E230CEF";
name = Light;
paths = (
{
closed = 1;
nodes = (
"373 638 LINE",
"221 0 LINE",
"185 0 LINE",
"20 682 LINE",
"44 682 LINE",
"201 28 LINE",
"204 28 LINE",
"362 682 LINE",
"388 682 LINE",
"566 28 LINE",
"569 28 LINE",
"725 682 LINE",
"749 682 LINE",
"585 0 LINE",
"549 0 LINE",
"377 638 LINE"
);
},
{
closed = 1;
nodes = (
"331 757 OFFCURVE",
"321 747 OFFCURVE",
"306 747 CURVE SMOOTH",
"293 747 OFFCURVE",
"282 757 OFFCURVE",
"282 772 CURVE SMOOTH",
"282 787 OFFCURVE",
"293 797 OFFCURVE",
"306 797 CURVE SMOOTH",
"321 797 OFFCURVE",
"331 787 OFFCURVE",
"331 772 CURVE SMOOTH"
);
},
{
closed = 1;
nodes = (
"464 757 OFFCURVE",
"454 747 OFFCURVE",
"439 747 CURVE SMOOTH",
"426 747 OFFCURVE",
"415 757 OFFCURVE",
"415 772 CURVE SMOOTH",
"415 787 OFFCURVE",
"426 797 OFFCURVE",
"439 797 CURVE SMOOTH",
"454 797 OFFCURVE",
"464 787 OFFCURVE",
"464 772 CURVE SMOOTH"
);
}
);
width = 769;
}
);
leftKerningGroupId = "@MMK_R_V";
rightKerningGroupId = "@MMK_L_V";
unicode = 1E84;
},
{
changeCount = 0;
export = 0;
glyphname = Wgrave;
layers = (
{
layerId = "C0403F1F-3C96-483E-B2A6-FF5F8E230CEF";
name = Light;
paths = (
{
closed = 1;
nodes = (
"373 638 LINE",
"221 0 LINE",
"185 0 LINE",
"20 682 LINE",
"44 682 LINE",
"201 28 LINE",
"204 28 LINE",
"362 682 LINE",
"388 682 LINE",
"566 28 LINE",
"569 28 LINE",
"725 682 LINE",
"749 682 LINE",
"585 0 LINE",
"549 0 LINE",
"377 638 LINE"
);
},
{
closed = 1;
nodes = (
"385 713 LINE",
"274 844 LINE",
"300 866 LINE",
"400 723 LINE"
);
}
);
width = 769;
}
);
leftKerningGroupId = "@MMK_R_V";
rightKerningGroupId = "@MMK_L_V";
unicode = 1E80;
},
{
changeCount = 0;
color = 4;
glyphname = X;
layers = (
{
background = {
paths = (
{
closed = 1;
nodes = (
"245 329 LINE",
"48 0 LINE",
"20 0 LINE",
"231 352 LINE",
"34 682 LINE",
"62 682 LINE",
"245 376 LINE",
"428 682 LINE",
"455 682 LINE",
"259 352 LINE",
"471 0 LINE",
"442 0 LINE"
);
}
);
};
layerId = "C0403F1F-3C96-483E-B2A6-FF5F8E230CEF";
name = Light;
paths = (
{
closed = 1;
nodes = (
"149 655 LINE",
"47 682 LINE",
"458 0 LINE"
);
},
{
closed = 1;
nodes = (
"293 516 LINE",
"37 0 LINE",
"440 682 LINE"
);
}
);
width = 491;
}
);
unicode = 0058;
},
{
changeCount = 0;
color = 4;
glyphname = Y;
layers = (
{
background = {
paths = (
{
closed = 1;
nodes = (
"167 450 LINE",
"222 343 LINE",
"225 343 LINE",
"277 440 LINE",
"409 682 LINE",
"439 682 LINE",
"237 317 LINE",
"237 0 LINE",
"211 0 LINE",
"211 314 LINE",
"15 682 LINE",
"44 682 LINE"
);
}
);
};
layerId = "C0403F1F-3C96-483E-B2A6-FF5F8E230CEF";
name = Light;
paths = (
{
closed = 1;
nodes = (
"210 702 LINE",
"30 682 LINE",
"225 314 LINE",
"423 682 LINE"
);
},
{
closed = 1;
nodes = (
"353 154 LINE",
"225 314 LINE",
"224 0 LINE"
);
}
);
width = 454;
}
);
leftKerningGroupId = "@MMK_R_Y";
rightKerningGroupId = "@MMK_L_Y";
unicode = 0059;
},
{
changeCount = 0;
export = 0;
glyphname = Yacute;
layers = (
{
layerId = "C0403F1F-3C96-483E-B2A6-FF5F8E230CEF";
name = Light;
paths = (
{
closed = 1;
nodes = (
"167 450 LINE",
"222 343 LINE",
"225 343 LINE",
"277 440 LINE",
"409 682 LINE",
"439 682 LINE",
"237 317 LINE",
"237 0 LINE",
"211 0 LINE",
"211 314 LINE",
"15 682 LINE",
"44 682 LINE"
);
},
{
closed = 1;
nodes = (
"196 722 LINE",
"296 865 LINE",
"322 843 LINE",
"211 712 LINE"
);
}
);
width = 454;
}
);
leftKerningGroupId = "@MMK_R_Y";
rightKerningGroupId = "@MMK_L_Y";
unicode = 00DD;
},
{
changeCount = 0;
export = 0;
glyphname = Ycircumflex;
layers = (
{
layerId = "C0403F1F-3C96-483E-B2A6-FF5F8E230CEF";
name = Light;
paths = (
{
closed = 1;
nodes = (
"167 450 LINE",
"222 343 LINE",
"225 343 LINE",
"277 440 LINE",
"409 682 LINE",
"439 682 LINE",
"237 317 LINE",
"237 0 LINE",
"211 0 LINE",
"211 314 LINE",
"15 682 LINE",
"44 682 LINE"
);
},
{
closed = 1;
nodes = (
"223 819 LINE",
"91 716 LINE",
"80 728 LINE",
"209 851 LINE",
"237 851 LINE",
"365 729 LINE",
"355 717 LINE"
);
}
);
width = 454;
}
);
leftKerningGroupId = "@MMK_R_Y";
rightKerningGroupId = "@MMK_L_Y";
unicode = 0176;
},
{
changeCount = 0;
export = 0;
glyphname = Ydieresis;
layers = (
{
layerId = "C0403F1F-3C96-483E-B2A6-FF5F8E230CEF";
name = Light;
paths = (
{
closed = 1;
nodes = (
"167 450 LINE",
"222 343 LINE",
"225 343 LINE",
"277 440 LINE",
"409 682 LINE",
"439 682 LINE",
"237 317 LINE",
"237 0 LINE",
"211 0 LINE",
"211 314 LINE",
"15 682 LINE",
"44 682 LINE"
);
},
{
closed = 1;
nodes = (
"182 730 OFFCURVE",
"172 720 OFFCURVE",
"157 720 CURVE SMOOTH",
"144 720 OFFCURVE",
"133 730 OFFCURVE",
"133 745 CURVE SMOOTH",
"133 760 OFFCURVE",
"144 770 OFFCURVE",
"157 770 CURVE SMOOTH",
"172 770 OFFCURVE",
"182 760 OFFCURVE",
"182 745 CURVE SMOOTH"
);
},
{
closed = 1;
nodes = (
"315 730 OFFCURVE",
"305 720 OFFCURVE",
"290 720 CURVE SMOOTH",
"277 720 OFFCURVE",
"266 730 OFFCURVE",
"266 745 CURVE SMOOTH",
"266 760 OFFCURVE",
"277 770 OFFCURVE",
"290 770 CURVE SMOOTH",
"305 770 OFFCURVE",
"315 760 OFFCURVE",
"315 745 CURVE SMOOTH"
);
}
);
width = 454;
}
);
leftKerningGroupId = "@MMK_R_Y";
rightKerningGroupId = "@MMK_L_Y";
unicode = 0178;
},
{
changeCount = 0;
export = 0;
glyphname = Ygrave;
layers = (
{
layerId = "C0403F1F-3C96-483E-B2A6-FF5F8E230CEF";
name = Light;
paths = (
{
closed = 1;
nodes = (
"167 450 LINE",
"222 343 LINE",
"225 343 LINE",
"277 440 LINE",
"409 682 LINE",
"439 682 LINE",
"237 317 LINE",
"237 0 LINE",
"211 0 LINE",
"211 314 LINE",
"15 682 LINE",
"44 682 LINE"
);
},
{
closed = 1;
nodes = (
"246 713 LINE",
"135 844 LINE",
"161 866 LINE",
"261 723 LINE"
);
}
);
width = 454;
}
);
leftKerningGroupId = "@MMK_R_Y";
rightKerningGroupId = "@MMK_L_Y";
unicode = 1EF2;
},
{
changeCount = 0;
color = 4;
glyphname = Z;
layers = (
{
background = {
paths = (
{
closed = 1;
nodes = (
"15 0 LINE",
"15 27 LINE",
"404 658 LINE",
"39 658 LINE",
"39 682 LINE",
"431 682 LINE",
"431 655 LINE",
"44 25 LINE",
"448 25 LINE",
"448 0 LINE"
);
}
);
};
layerId = "C0403F1F-3C96-483E-B2A6-FF5F8E230CEF";
name = Light;
paths = (
{
closed = 1;
nodes = (
"162 358 LINE",
"420 13 LINE",
"21 13 LINE",
"223 342 LINE",
"426 671 LINE",
"67 671 LINE"
);
}
);
width = 463;
}
);
unicode = 005A;
},
{
changeCount = 0;
export = 0;
glyphname = Zacute;
layers = (
{
layerId = "C0403F1F-3C96-483E-B2A6-FF5F8E230CEF";
name = Light;
paths = (
{
closed = 1;
nodes = (
"15 0 LINE",
"15 27 LINE",
"404 658 LINE",
"39 658 LINE",
"39 682 LINE",
"431 682 LINE",
"431 655 LINE",
"44 25 LINE",
"448 25 LINE",
"448 0 LINE"
);
},
{
closed = 1;
nodes = (
"203 723 LINE",
"303 866 LINE",
"329 844 LINE",
"218 713 LINE"
);
}
);
width = 463;
}
);
unicode = 0179;
},
{
changeCount = 0;
export = 0;
glyphname = Zcaron;
layers = (
{
layerId = "C0403F1F-3C96-483E-B2A6-FF5F8E230CEF";
name = Light;
paths = (
{
closed = 1;
nodes = (
"15 0 LINE",
"15 27 LINE",
"404 658 LINE",
"39 658 LINE",
"39 682 LINE",
"431 682 LINE",
"431 655 LINE",
"44 25 LINE",
"448 25 LINE",
"448 0 LINE"
);
},
{
closed = 1;
nodes = (
"376 852 LINE",
"386 840 LINE",
"258 718 LINE",
"230 718 LINE",
"101 841 LINE",
"112 853 LINE",
"244 750 LINE"
);
}
);
width = 463;
}
);
unicode = 017D;
},
{
changeCount = 0;
export = 0;
glyphname = Zdotaccent;
layers = (
{
layerId = "C0403F1F-3C96-483E-B2A6-FF5F8E230CEF";
name = Light;
paths = (
{
closed = 1;
nodes = (
"15 0 LINE",
"15 27 LINE",
"404 658 LINE",
"39 658 LINE",
"39 682 LINE",
"431 682 LINE",
"431 655 LINE",
"44 25 LINE",
"448 25 LINE",
"448 0 LINE"
);
},
{
closed = 1;
nodes = (
"265 765 OFFCURVE",
"253 753 OFFCURVE",
"240 753 CURVE SMOOTH",
"227 753 OFFCURVE",
"215 765 OFFCURVE",
"215 778 CURVE SMOOTH",
"215 793 OFFCURVE",
"227 804 OFFCURVE",
"240 804 CURVE SMOOTH",
"253 804 OFFCURVE",
"265 793 OFFCURVE",
"265 778 CURVE SMOOTH"
);
}
);
width = 463;
}
);
unicode = 017B;
},
{
changeCount = 0;
export = 0;
glyphname = A.superior;
layers = (
{
layerId = "C0403F1F-3C96-483E-B2A6-FF5F8E230CEF";
name = Light;
paths = (
{
closed = 1;
nodes = (
"273 394 LINE",
"80 394 LINE",
"38 267 LINE",
"10 267 LINE",
"161 713 LINE",
"192 713 LINE",
"344 267 LINE",
"315 267 LINE"
);
},
{
closed = 1;
nodes = (
"175 679 LINE",
"144 584 LINE",
"87 417 LINE",
"265 417 LINE",
"207 589 LINE",
"177 679 LINE"
);
}
);
width = 354;
}
);
},
{
changeCount = 0;
export = 0;
glyphname = B.superior;
layers = (
{
layerId = "C0403F1F-3C96-483E-B2A6-FF5F8E230CEF";
name = Light;
paths = (
{
closed = 1;
nodes = (
"50 713 LINE",
"201 713 LINE SMOOTH",
"292 713 OFFCURVE",
"334 665 OFFCURVE",
"334 602 CURVE SMOOTH",
"334 571 OFFCURVE",
"322 528 OFFCURVE",
"270 500 CURVE",
"299 489 OFFCURVE",
"319 470 OFFCURVE",
"332 450 CURVE",
"344 429 OFFCURVE",
"350 406 OFFCURVE",
"350 386 CURVE SMOOTH",
"350 350 OFFCURVE",
"337 320 OFFCURVE",
"315 300 CURVE SMOOTH",
"293 279 OFFCURVE",
"262 267 OFFCURVE",
"227 267 CURVE SMOOTH",
"50 267 LINE"
);
},
{
closed = 1;
nodes = (
"77 486 LINE",
"77 291 LINE",
"221 291 LINE SMOOTH",
"294 291 OFFCURVE",
"324 337 OFFCURVE",
"324 390 CURVE SMOOTH",
"324 414 OFFCURVE",
"313 439 OFFCURVE",
"294 457 CURVE SMOOTH",
"275 475 OFFCURVE",
"249 486 OFFCURVE",
"220 486 CURVE SMOOTH"
);
},
{
closed = 1;
nodes = (
"77 690 LINE",
"77 511 LINE",
"209 511 LINE SMOOTH",
"268 511 OFFCURVE",
"309 547 OFFCURVE",
"309 599 CURVE SMOOTH",
"309 652 OFFCURVE",
"277 690 OFFCURVE",
"200 690 CURVE SMOOTH"
);
}
);
width = 390;
}
);
},
{
changeCount = 0;
export = 0;
glyphname = D.superior;
layers = (
{
layerId = "C0403F1F-3C96-483E-B2A6-FF5F8E230CEF";
name = Light;
paths = (
{
closed = 1;
nodes = (
"367 430 OFFCURVE",
"357 373 OFFCURVE",
"328 333 CURVE SMOOTH",
"299 292 OFFCURVE",
"251 267 OFFCURVE",
"178 267 CURVE SMOOTH",
"50 267 LINE",
"50 713 LINE",
"185 713 LINE SMOOTH",
"257 713 OFFCURVE",
"302 687 OFFCURVE",
"330 647 CURVE SMOOTH",
"358 606 OFFCURVE",
"367 551 OFFCURVE",
"367 491 CURVE SMOOTH"
);
},
{
closed = 1;
nodes = (
"342 553 OFFCURVE",
"329 599 OFFCURVE",
"310 629 CURVE SMOOTH",
"290 659 OFFCURVE",
"266 674 OFFCURVE",
"242 682 CURVE SMOOTH",
"218 690 OFFCURVE",
"195 690 OFFCURVE",
"180 690 CURVE SMOOTH",
"74 690 LINE",
"74 291 LINE",
"174 291 LINE SMOOTH",
"186 291 OFFCURVE",
"210 291 OFFCURVE",
"235 298 CURVE SMOOTH",
"259 305 OFFCURVE",
"286 319 OFFCURVE",
"307 348 CURVE SMOOTH",
"327 377 OFFCURVE",
"342 421 OFFCURVE",
"342 486 CURVE SMOOTH"
);
}
);
width = 407;
}
);
},
{
changeCount = 0;
export = 0;
glyphname = E.superior;
layers = (
{
layerId = "C0403F1F-3C96-483E-B2A6-FF5F8E230CEF";
name = Light;
paths = (
{
closed = 1;
nodes = (
"50 713 LINE",
"306 713 LINE",
"306 690 LINE",
"76 690 LINE",
"76 515 LINE",
"278 516 LINE",
"278 492 LINE",
"76 492 LINE",
"76 291 LINE",
"317 292 LINE",
"317 267 LINE",
"50 267 LINE"
);
}
);
width = 337;
}
);
},
{
changeCount = 0;
export = 0;
glyphname = Egrave.superior;
layers = (
{
layerId = "C0403F1F-3C96-483E-B2A6-FF5F8E230CEF";
name = Light;
paths = (
{
closed = 1;
nodes = (
"204 741 LINE",
"78 815 LINE",
"96 844 LINE",
"216 755 LINE"
);
},
{
closed = 1;
nodes = (
"50 713 LINE",
"306 713 LINE",
"306 690 LINE",
"76 690 LINE",
"76 515 LINE",
"278 516 LINE",
"278 492 LINE",
"76 492 LINE",
"76 291 LINE",
"317 292 LINE",
"317 267 LINE",
"50 267 LINE"
);
}
);
width = 337;
}
);
},
{
changeCount = 0;
export = 0;
glyphname = H.superior;
layers = (
{
layerId = "C0403F1F-3C96-483E-B2A6-FF5F8E230CEF";
name = Light;
paths = (
{
closed = 1;
nodes = (
"326 267 LINE",
"326 490 LINE",
"75 490 LINE",
"75 267 LINE",
"50 267 LINE",
"50 713 LINE",
"75 713 LINE",
"75 514 LINE",
"326 514 LINE",
"326 713 LINE",
"352 713 LINE",
"352 267 LINE"
);
}
);
width = 402;
}
);
},
{
changeCount = 0;
export = 0;
glyphname = I.superior;
layers = (
{
layerId = "C0403F1F-3C96-483E-B2A6-FF5F8E230CEF";
name = Light;
paths = (
{
closed = 1;
nodes = (
"60 267 LINE",
"60 713 LINE",
"86 713 LINE",
"86 267 LINE"
);
}
);
width = 146;
}
);
},
{
changeCount = 0;
export = 0;
glyphname = L.superior;
layers = (
{
layerId = "C0403F1F-3C96-483E-B2A6-FF5F8E230CEF";
name = Light;
paths = (
{
closed = 1;
nodes = (
"77 291 LINE",
"326 292 LINE",
"326 267 LINE",
"50 267 LINE",
"51 713 LINE",
"77 713 LINE"
);
}
);
width = 331;
}
);
},
{
changeCount = 0;
export = 0;
glyphname = M.superior;
layers = (
{
layerId = "C0403F1F-3C96-483E-B2A6-FF5F8E230CEF";
name = Light;
paths = (
{
closed = 1;
nodes = (
"262 330 LINE",
"289 393 LINE",
"441 713 LINE",
"467 713 LINE",
"467 267 LINE",
"441 267 LINE",
"441 652 LINE",
"438 652 LINE",
"397 564 LINE",
"273 304 LINE",
"245 304 LINE",
"120 569 LINE",
"80 655 LINE",
"76 655 LINE",
"76 267 LINE",
"50 267 LINE",
"50 713 LINE",
"77 713 LINE",
"230 393 LINE",
"258 330 LINE"
);
}
);
width = 517;
}
);
},
{
changeCount = 0;
export = 0;
glyphname = N.superior;
layers = (
{
layerId = "C0403F1F-3C96-483E-B2A6-FF5F8E230CEF";
name = Light;
paths = (
{
closed = 1;
nodes = (
"352 310 LINE",
"352 713 LINE",
"375 713 LINE",
"375 267 LINE",
"351 267 LINE",
"116 608 LINE",
"79 663 LINE",
"76 663 LINE",
"76 267 LINE",
"50 267 LINE",
"50 713 LINE",
"76 713 LINE",
"318 357 LINE SMOOTH",
"323 350 OFFCURVE",
"329 342 OFFCURVE",
"334 334 CURVE",
"339 325 OFFCURVE",
"344 317 OFFCURVE",
"349 310 CURVE"
);
}
);
width = 425;
}
);
},
{
changeCount = 0;
export = 0;
glyphname = O.superior;
layers = (
{
layerId = "C0403F1F-3C96-483E-B2A6-FF5F8E230CEF";
name = Light;
paths = (
{
closed = 1;
nodes = (
"408 423 OFFCURVE",
"393 368 OFFCURVE",
"363 328 CURVE SMOOTH",
"333 288 OFFCURVE",
"288 263 OFFCURVE",
"228 262 CURVE SMOOTH",
"159 262 OFFCURVE",
"111 283 OFFCURVE",
"82 322 CURVE SMOOTH",
"53 361 OFFCURVE",
"40 417 OFFCURVE",
"40 486 CURVE SMOOTH",
"40 546 OFFCURVE",
"51 604 OFFCURVE",
"80 648 CURVE SMOOTH",
"109 692 OFFCURVE",
"156 720 OFFCURVE",
"228 720 CURVE SMOOTH",
"301 720 OFFCURVE",
"346 691 OFFCURVE",
"373 648 CURVE SMOOTH",
"400 604 OFFCURVE",
"408 546 OFFCURVE",
"408 487 CURVE SMOOTH"
);
},
{
closed = 1;
nodes = (
"381 531 OFFCURVE",
"375 584 OFFCURVE",
"354 625 CURVE SMOOTH",
"333 666 OFFCURVE",
"293 697 OFFCURVE",
"228 697 CURVE SMOOTH",
"163 697 OFFCURVE",
"122 670 OFFCURVE",
"98 630 CURVE SMOOTH",
"74 590 OFFCURVE",
"66 537 OFFCURVE",
"66 485 CURVE SMOOTH",
"66 356 OFFCURVE",
"112 285 OFFCURVE",
"224 285 CURVE SMOOTH",
"277 285 OFFCURVE",
"317 308 OFFCURVE",
"343 344 CURVE SMOOTH",
"369 380 OFFCURVE",
"381 430 OFFCURVE",
"381 486 CURVE SMOOTH"
);
}
);
width = 448;
}
);
},
{
changeCount = 0;
export = 0;
glyphname = R.superior;
layers = (
{
layerId = "C0403F1F-3C96-483E-B2A6-FF5F8E230CEF";
name = Light;
paths = (
{
closed = 1;
nodes = (
"76 267 LINE",
"50 267 LINE",
"50 713 LINE",
"189 713 LINE SMOOTH",
"241 713 OFFCURVE",
"277 700 OFFCURVE",
"299 678 CURVE SMOOTH",
"321 656 OFFCURVE",
"330 626 OFFCURVE",
"330 595 CURVE SMOOTH",
"330 572 OFFCURVE",
"325 547 OFFCURVE",
"311 526 CURVE SMOOTH",
"297 505 OFFCURVE",
"275 487 OFFCURVE",
"242 480 CURVE",
"285 469 OFFCURVE",
"299 440 OFFCURVE",
"310 407 CURVE SMOOTH",
"356 267 LINE",
"330 267 LINE",
"285 400 LINE SMOOTH",
"266 455 OFFCURVE",
"234 472 OFFCURVE",
"178 472 CURVE SMOOTH",
"76 472 LINE"
);
},
{
closed = 1;
nodes = (
"76 690 LINE",
"76 494 LINE",
"188 494 LINE SMOOTH",
"260 494 OFFCURVE",
"304 528 OFFCURVE",
"304 593 CURVE SMOOTH",
"304 657 OFFCURVE",
"258 690 OFFCURVE",
"193 690 CURVE SMOOTH"
);
}
);
width = 386;
}
);
},
{
changeCount = 0;
export = 0;
glyphname = S.superior;
layers = (
{
layerId = "C0403F1F-3C96-483E-B2A6-FF5F8E230CEF";
name = Light;
paths = (
{
closed = 1;
nodes = (
"127 262 OFFCURVE",
"74 271 OFFCURVE",
"35 294 CURVE",
"46 315 LINE",
"97 290 OFFCURVE",
"134 285 OFFCURVE",
"173 285 CURVE SMOOTH",
"260 285 OFFCURVE",
"310 314 OFFCURVE",
"310 386 CURVE SMOOTH",
"310 418 OFFCURVE",
"297 438 OFFCURVE",
"276 453 CURVE SMOOTH",
"255 468 OFFCURVE",
"225 478 OFFCURVE",
"190 486 CURVE SMOOTH",
"150 495 OFFCURVE",
"114 506 OFFCURVE",
"87 523 CURVE",
"59 539 OFFCURVE",
"43 563 OFFCURVE",
"43 600 CURVE SMOOTH",
"43 680 OFFCURVE",
"102 720 OFFCURVE",
"187 720 CURVE SMOOTH",
"214 720 OFFCURVE",
"260 717 OFFCURVE",
"304 702 CURVE",
"297 679 LINE",
"248 694 OFFCURVE",
"214 696 OFFCURVE",
"183 696 CURVE SMOOTH",
"118 696 OFFCURVE",
"69 665 OFFCURVE",
"69 600 CURVE SMOOTH",
"69 572 OFFCURVE",
"86 555 OFFCURVE",
"110 541 CURVE SMOOTH",
"133 527 OFFCURVE",
"164 519 OFFCURVE",
"192 511 CURVE SMOOTH",
"225 502 OFFCURVE",
"261 493 OFFCURVE",
"289 475 CURVE SMOOTH",
"317 457 OFFCURVE",
"336 430 OFFCURVE",
"336 386 CURVE SMOOTH",
"336 342 OFFCURVE",
"317 311 OFFCURVE",
"288 291 CURVE SMOOTH",
"259 271 OFFCURVE",
"219 262 OFFCURVE",
"176 262 CURVE SMOOTH"
);
}
);
width = 371;
}
);
},
{
changeCount = 0;
export = 0;
glyphname = T.superior;
layers = (
{
layerId = "C0403F1F-3C96-483E-B2A6-FF5F8E230CEF";
name = Light;
paths = (
{
closed = 1;
nodes = (
"333 690 LINE",
"185 690 LINE",
"185 267 LINE",
"159 267 LINE",
"159 690 LINE",
"10 690 LINE",
"10 713 LINE",
"333 713 LINE"
);
}
);
width = 343;
}
);
},
{
changeCount = 0;
color = 4;
glyphname = a;
layers = (
{
background = {
paths = (
{
closed = 1;
nodes = (
"348 61 LINE",
"304 28 OFFCURVE",
"267 11 OFFCURVE",
"239 3 CURVE SMOOTH",
"210 -6 OFFCURVE",
"188 -6 OFFCURVE",
"172 -6 CURVE SMOOTH",
"120 -6 OFFCURVE",
"87 12 OFFCURVE",
"67 38 CURVE SMOOTH",
"47 64 OFFCURVE",
"40 95 OFFCURVE",
"40 126 CURVE SMOOTH",
"40 173 OFFCURVE",
"58 207 OFFCURVE",
"87 229 CURVE SMOOTH",
"116 251 OFFCURVE",
"157 261 OFFCURVE",
"201 264 CURVE SMOOTH",
"353 271 LINE",
"353 322 LINE SMOOTH",
"353 374 OFFCURVE",
"347 411 OFFCURVE",
"329 435 CURVE SMOOTH",
"311 459 OFFCURVE",
"280 470 OFFCURVE",
"232 470 CURVE SMOOTH",
"183 470 OFFCURVE",
"128 456 OFFCURVE",
"80 437 CURVE",
"72 456 LINE",
"128 479 OFFCURVE",
"186 491 OFFCURVE",
"237 491 CURVE SMOOTH",
"330 491 OFFCURVE",
"377 448 OFFCURVE",
"377 336 CURVE SMOOTH",
"377 25 LINE",
"444 25 LINE",
"446 9 LINE",
"423 0 OFFCURVE",
"402 -3 OFFCURVE",
"386 -3 CURVE SMOOTH",
"361 -3 OFFCURVE",
"351 5 OFFCURVE",
"351 32 CURVE SMOOTH",
"351 60 LINE"
);
},
{
closed = 1;
nodes = (
"198 242 LINE SMOOTH",
"111 238 OFFCURVE",
"64 194 OFFCURVE",
"64 129 CURVE SMOOTH",
"64 53 OFFCURVE",
"106 15 OFFCURVE",
"182 15 CURVE SMOOTH",
"235 15 OFFCURVE",
"290 43 OFFCURVE",
"353 91 CURVE",
"353 250 LINE"
);
}
);
};
layerId = "C0403F1F-3C96-483E-B2A6-FF5F8E230CEF";
name = Light;
paths = (
{
closed = 1;
nodes = (
"463 258 LINE",
"418 13 LINE",
"415 13 OFFCURVE",
"377 10 OFFCURVE",
"375 10 CURVE SMOOTH",
"367 12 OFFCURVE",
"364 24 OFFCURVE",
"364 49 CURVE SMOOTH",
"365 280 LINE",
"365 329 LINE SMOOTH",
"365 374 OFFCURVE",
"358 407 OFFCURVE",
"344 431 CURVE SMOOTH",
"324 465 OFFCURVE",
"289 481 OFFCURVE",
"234 481 CURVE SMOOTH",
"207 481 OFFCURVE",
"179 477 OFFCURVE",
"150 470 CURVE SMOOTH",
"135 467 OFFCURVE",
"120 462 OFFCURVE",
"106 458 CURVE"
);
},
{
closed = 1;
nodes = (
"295 163 LINE",
"353 260 LINE",
"199 253 LINE SMOOTH",
"157 251 OFFCURVE",
"121 240 OFFCURVE",
"95 221 CURVE SMOOTH",
"67 200 OFFCURVE",
"52 169 OFFCURVE",
"52 126 CURVE SMOOTH",
"52 94 OFFCURVE",
"59 66 OFFCURVE",
"77 44 CURVE SMOOTH",
"97 19 OFFCURVE",
"129 3 OFFCURVE",
"177 3 CURVE SMOOTH",
"195 3 OFFCURVE",
"217 6 OFFCURVE",
"243 15 CURVE SMOOTH",
"273 25 OFFCURVE",
"309 44 OFFCURVE",
"350 75 CURVE"
);
}
);
width = 476;
}
);
rightKerningGroupId = "@MMK_L_a";
unicode = 0061;
},
{
changeCount = 0;
export = 0;
glyphname = aacute;
layers = (
{
layerId = "C0403F1F-3C96-483E-B2A6-FF5F8E230CEF";
name = Light;
paths = (
{
closed = 1;
nodes = (
"348 61 LINE",
"304 28 OFFCURVE",
"267 11 OFFCURVE",
"239 3 CURVE SMOOTH",
"210 -6 OFFCURVE",
"188 -6 OFFCURVE",
"172 -6 CURVE SMOOTH",
"120 -6 OFFCURVE",
"87 12 OFFCURVE",
"67 38 CURVE SMOOTH",
"47 64 OFFCURVE",
"40 95 OFFCURVE",
"40 126 CURVE SMOOTH",
"40 173 OFFCURVE",
"58 207 OFFCURVE",
"87 229 CURVE SMOOTH",
"116 251 OFFCURVE",
"157 261 OFFCURVE",
"201 264 CURVE SMOOTH",
"353 271 LINE",
"353 322 LINE SMOOTH",
"353 374 OFFCURVE",
"347 411 OFFCURVE",
"329 435 CURVE SMOOTH",
"311 459 OFFCURVE",
"280 470 OFFCURVE",
"232 470 CURVE SMOOTH",
"183 470 OFFCURVE",
"128 456 OFFCURVE",
"80 437 CURVE",
"72 456 LINE",
"128 479 OFFCURVE",
"186 491 OFFCURVE",
"237 491 CURVE SMOOTH",
"330 491 OFFCURVE",
"377 448 OFFCURVE",
"377 336 CURVE SMOOTH",
"377 25 LINE",
"444 25 LINE",
"446 9 LINE",
"423 0 OFFCURVE",
"402 -3 OFFCURVE",
"386 -3 CURVE SMOOTH",
"361 -3 OFFCURVE",
"351 5 OFFCURVE",
"351 32 CURVE SMOOTH",
"351 60 LINE"
);
},
{
closed = 1;
nodes = (
"198 242 LINE SMOOTH",
"111 238 OFFCURVE",
"64 194 OFFCURVE",
"64 129 CURVE SMOOTH",
"64 53 OFFCURVE",
"106 15 OFFCURVE",
"182 15 CURVE SMOOTH",
"235 15 OFFCURVE",
"290 43 OFFCURVE",
"353 91 CURVE",
"353 250 LINE"
);
},
{
closed = 1;
nodes = (
"197 564 LINE",
"297 707 LINE",
"323 685 LINE",
"212 554 LINE"
);
}
);
width = 476;
}
);
leftKerningGroupId = "@MMK_R_a";
rightKerningGroupId = "@MMK_L_a";
unicode = 00E1;
},
{
changeCount = 0;
export = 0;
glyphname = abreve;
layers = (
{
layerId = "C0403F1F-3C96-483E-B2A6-FF5F8E230CEF";
name = Light;
paths = (
{
closed = 1;
nodes = (
"348 61 LINE",
"304 28 OFFCURVE",
"267 11 OFFCURVE",
"239 3 CURVE SMOOTH",
"210 -6 OFFCURVE",
"188 -6 OFFCURVE",
"172 -6 CURVE SMOOTH",
"120 -6 OFFCURVE",
"87 12 OFFCURVE",
"67 38 CURVE SMOOTH",
"47 64 OFFCURVE",
"40 95 OFFCURVE",
"40 126 CURVE SMOOTH",
"40 173 OFFCURVE",
"58 207 OFFCURVE",
"87 229 CURVE SMOOTH",
"116 251 OFFCURVE",
"157 261 OFFCURVE",
"201 264 CURVE SMOOTH",
"353 271 LINE",
"353 322 LINE SMOOTH",
"353 374 OFFCURVE",
"347 411 OFFCURVE",
"329 435 CURVE SMOOTH",
"311 459 OFFCURVE",
"280 470 OFFCURVE",
"232 470 CURVE SMOOTH",
"183 470 OFFCURVE",
"128 456 OFFCURVE",
"80 437 CURVE",
"72 456 LINE",
"128 479 OFFCURVE",
"186 491 OFFCURVE",
"237 491 CURVE SMOOTH",
"330 491 OFFCURVE",
"377 448 OFFCURVE",
"377 336 CURVE SMOOTH",
"377 25 LINE",
"444 25 LINE",
"446 9 LINE",
"423 0 OFFCURVE",
"402 -3 OFFCURVE",
"386 -3 CURVE SMOOTH",
"361 -3 OFFCURVE",
"351 5 OFFCURVE",
"351 32 CURVE SMOOTH",
"351 60 LINE"
);
},
{
closed = 1;
nodes = (
"198 242 LINE SMOOTH",
"111 238 OFFCURVE",
"64 194 OFFCURVE",
"64 129 CURVE SMOOTH",
"64 53 OFFCURVE",
"106 15 OFFCURVE",
"182 15 CURVE SMOOTH",
"235 15 OFFCURVE",
"290 43 OFFCURVE",
"353 91 CURVE",
"353 250 LINE"
);
},
{
closed = 1;
nodes = (
"172 566 OFFCURVE",
"123 608 OFFCURVE",
"94 656 CURVE",
"118 670 LINE",
"149 623 OFFCURVE",
"190 592 OFFCURVE",
"234 592 CURVE SMOOTH",
"270 592 OFFCURVE",
"312 611 OFFCURVE",
"367 666 CURVE",
"380 657 LINE",
"328 588 OFFCURVE",
"277 566 OFFCURVE",
"232 566 CURVE SMOOTH"
);
}
);
width = 476;
}
);
leftKerningGroupId = "@MMK_R_a";
rightKerningGroupId = "@MMK_L_a";
unicode = 0103;
},
{
changeCount = 0;
export = 0;
glyphname = acircumflex;
layers = (
{
layerId = "C0403F1F-3C96-483E-B2A6-FF5F8E230CEF";
name = Light;
paths = (
{
closed = 1;
nodes = (
"348 61 LINE",
"304 28 OFFCURVE",
"267 11 OFFCURVE",
"239 3 CURVE SMOOTH",
"210 -6 OFFCURVE",
"188 -6 OFFCURVE",
"172 -6 CURVE SMOOTH",
"120 -6 OFFCURVE",
"87 12 OFFCURVE",
"67 38 CURVE SMOOTH",
"47 64 OFFCURVE",
"40 95 OFFCURVE",
"40 126 CURVE SMOOTH",
"40 173 OFFCURVE",
"58 207 OFFCURVE",
"87 229 CURVE SMOOTH",
"116 251 OFFCURVE",
"157 261 OFFCURVE",
"201 264 CURVE SMOOTH",
"353 271 LINE",
"353 322 LINE SMOOTH",
"353 374 OFFCURVE",
"347 411 OFFCURVE",
"329 435 CURVE SMOOTH",
"311 459 OFFCURVE",
"280 470 OFFCURVE",
"232 470 CURVE SMOOTH",
"183 470 OFFCURVE",
"128 456 OFFCURVE",
"80 437 CURVE",
"72 456 LINE",
"128 479 OFFCURVE",
"186 491 OFFCURVE",
"237 491 CURVE SMOOTH",
"330 491 OFFCURVE",
"377 448 OFFCURVE",
"377 336 CURVE SMOOTH",
"377 25 LINE",
"444 25 LINE",
"446 9 LINE",
"423 0 OFFCURVE",
"402 -3 OFFCURVE",
"386 -3 CURVE SMOOTH",
"361 -3 OFFCURVE",
"351 5 OFFCURVE",
"351 32 CURVE SMOOTH",
"351 60 LINE"
);
},
{
closed = 1;
nodes = (
"198 242 LINE SMOOTH",
"111 238 OFFCURVE",
"64 194 OFFCURVE",
"64 129 CURVE SMOOTH",
"64 53 OFFCURVE",
"106 15 OFFCURVE",
"182 15 CURVE SMOOTH",
"235 15 OFFCURVE",
"290 43 OFFCURVE",
"353 91 CURVE",
"353 250 LINE"
);
},
{
closed = 1;
nodes = (
"242 653 LINE",
"110 550 LINE",
"99 562 LINE",
"228 685 LINE",
"256 685 LINE",
"384 563 LINE",
"374 551 LINE"
);
}
);
width = 476;
}
);
leftKerningGroupId = "@MMK_R_a";
rightKerningGroupId = "@MMK_L_a";
unicode = 00E2;
},
{
changeCount = 0;
export = 0;
glyphname = adieresis;
layers = (
{
layerId = "C0403F1F-3C96-483E-B2A6-FF5F8E230CEF";
name = Light;
paths = (
{
closed = 1;
nodes = (
"348 61 LINE",
"304 28 OFFCURVE",
"267 11 OFFCURVE",
"239 3 CURVE SMOOTH",
"210 -6 OFFCURVE",
"188 -6 OFFCURVE",
"172 -6 CURVE SMOOTH",
"120 -6 OFFCURVE",
"87 12 OFFCURVE",
"67 38 CURVE SMOOTH",
"47 64 OFFCURVE",
"40 95 OFFCURVE",
"40 126 CURVE SMOOTH",
"40 173 OFFCURVE",
"58 207 OFFCURVE",
"87 229 CURVE SMOOTH",
"116 251 OFFCURVE",
"157 261 OFFCURVE",
"201 264 CURVE SMOOTH",
"353 271 LINE",
"353 322 LINE SMOOTH",
"353 374 OFFCURVE",
"347 411 OFFCURVE",
"329 435 CURVE SMOOTH",
"311 459 OFFCURVE",
"280 470 OFFCURVE",
"232 470 CURVE SMOOTH",
"183 470 OFFCURVE",
"128 456 OFFCURVE",
"80 437 CURVE",
"72 456 LINE",
"128 479 OFFCURVE",
"186 491 OFFCURVE",
"237 491 CURVE SMOOTH",
"330 491 OFFCURVE",
"377 448 OFFCURVE",
"377 336 CURVE SMOOTH",
"377 25 LINE",
"444 25 LINE",
"446 9 LINE",
"423 0 OFFCURVE",
"402 -3 OFFCURVE",
"386 -3 CURVE SMOOTH",
"361 -3 OFFCURVE",
"351 5 OFFCURVE",
"351 32 CURVE SMOOTH",
"351 60 LINE"
);
},
{
closed = 1;
nodes = (
"198 242 LINE SMOOTH",
"111 238 OFFCURVE",
"64 194 OFFCURVE",
"64 129 CURVE SMOOTH",
"64 53 OFFCURVE",
"106 15 OFFCURVE",
"182 15 CURVE SMOOTH",
"235 15 OFFCURVE",
"290 43 OFFCURVE",
"353 91 CURVE",
"353 250 LINE"
);
},
{
closed = 1;
nodes = (
"200 593 OFFCURVE",
"190 583 OFFCURVE",
"175 583 CURVE SMOOTH",
"162 583 OFFCURVE",
"151 593 OFFCURVE",
"151 608 CURVE SMOOTH",
"151 623 OFFCURVE",
"162 633 OFFCURVE",
"175 633 CURVE SMOOTH",
"190 633 OFFCURVE",
"200 623 OFFCURVE",
"200 608 CURVE SMOOTH"
);
},
{
closed = 1;
nodes = (
"333 593 OFFCURVE",
"323 583 OFFCURVE",
"308 583 CURVE SMOOTH",
"295 583 OFFCURVE",
"284 593 OFFCURVE",
"284 608 CURVE SMOOTH",
"284 623 OFFCURVE",
"295 633 OFFCURVE",
"308 633 CURVE SMOOTH",
"323 633 OFFCURVE",
"333 623 OFFCURVE",
"333 608 CURVE SMOOTH"
);
}
);
width = 476;
}
);
leftKerningGroupId = "@MMK_R_a";
rightKerningGroupId = "@MMK_L_a";
unicode = 00E4;
},
{
changeCount = 0;
export = 0;
glyphname = ae;
layers = (
{
layerId = "C0403F1F-3C96-483E-B2A6-FF5F8E230CEF";
name = Light;
paths = (
{
closed = 1;
nodes = (
"605 491 OFFCURVE",
"645 470 OFFCURVE",
"671 440 CURVE SMOOTH",
"697 410 OFFCURVE",
"708 372 OFFCURVE",
"714 337 CURVE SMOOTH",
"717 320 OFFCURVE",
"718 304 OFFCURVE",
"718 290 CURVE SMOOTH",
"718 275 OFFCURVE",
"718 265 OFFCURVE",
"718 258 CURVE SMOOTH",
"718 242 LINE",
"377 242 LINE",
"377 182 OFFCURVE",
"384 125 OFFCURVE",
"409 84 CURVE SMOOTH",
"433 43 OFFCURVE",
"473 16 OFFCURVE",
"540 16 CURVE SMOOTH",
"600 16 OFFCURVE",
"639 27 OFFCURVE",
"694 54 CURVE",
"703 34 LINE",
"651 6 OFFCURVE",
"605 -7 OFFCURVE",
"544 -7 CURVE SMOOTH",
"464 -7 OFFCURVE",
"416 22 OFFCURVE",
"387 69 CURVE",
"336 30 OFFCURVE",
"293 12 OFFCURVE",
"257 3 CURVE SMOOTH",
"220 -6 OFFCURVE",
"191 -6 OFFCURVE",
"171 -6 CURVE SMOOTH",
"119 -6 OFFCURVE",
"86 12 OFFCURVE",
"66 38 CURVE SMOOTH",
"46 64 OFFCURVE",
"39 95 OFFCURVE",
"39 126 CURVE SMOOTH",
"39 173 OFFCURVE",
"56 207 OFFCURVE",
"84 230 CURVE SMOOTH",
"112 253 OFFCURVE",
"151 264 OFFCURVE",
"194 264 CURVE SMOOTH",
"352 264 LINE",
"352 322 LINE SMOOTH",
"352 374 OFFCURVE",
"346 411 OFFCURVE",
"328 435 CURVE SMOOTH",
"310 459 OFFCURVE",
"279 470 OFFCURVE",
"231 470 CURVE SMOOTH",
"182 470 OFFCURVE",
"127 456 OFFCURVE",
"79 437 CURVE",
"71 456 LINE",
"127 479 OFFCURVE",
"185 491 OFFCURVE",
"236 491 CURVE SMOOTH",
"319 491 OFFCURVE",
"363 458 OFFCURVE",
"374 371 CURVE",
"386 403 OFFCURVE",
"404 433 OFFCURVE",
"432 455 CURVE SMOOTH",
"459 477 OFFCURVE",
"495 491 OFFCURVE",
"544 491 CURVE SMOOTH"
);
},
{
closed = 1;
nodes = (
"197 242 LINE SMOOTH",
"110 242 OFFCURVE",
"63 194 OFFCURVE",
"63 129 CURVE SMOOTH",
"63 53 OFFCURVE",
"105 15 OFFCURVE",
"181 15 CURVE SMOOTH",
"206 15 OFFCURVE",
"240 19 OFFCURVE",
"275 31 CURVE SMOOTH",
"310 42 OFFCURVE",
"346 60 OFFCURVE",
"378 87 CURVE",
"358 130 OFFCURVE",
"352 182 OFFCURVE",
"352 242 CURVE"
);
},
{
closed = 1;
nodes = (
"484 470 OFFCURVE",
"445 445 OFFCURVE",
"420 407 CURVE SMOOTH",
"395 369 OFFCURVE",
"383 316 OFFCURVE",
"378 264 CURVE",
"693 264 LINE",
"693 324 OFFCURVE",
"684 376 OFFCURVE",
"661 412 CURVE SMOOTH",
"637 448 OFFCURVE",
"600 470 OFFCURVE",
"543 470 CURVE SMOOTH"
);
}
);
width = 758;
}
);
leftKerningGroupId = "@MMK_R_a";
rightKerningGroupId = "@MMK_L_e";
unicode = 00E6;
},
{
changeCount = 0;
export = 0;
glyphname = aeacute;
layers = (
{
layerId = "C0403F1F-3C96-483E-B2A6-FF5F8E230CEF";
name = Light;
paths = (
{
closed = 1;
nodes = (
"605 491 OFFCURVE",
"645 470 OFFCURVE",
"671 440 CURVE SMOOTH",
"697 410 OFFCURVE",
"708 372 OFFCURVE",
"714 337 CURVE SMOOTH",
"717 320 OFFCURVE",
"718 304 OFFCURVE",
"718 290 CURVE SMOOTH",
"718 275 OFFCURVE",
"718 265 OFFCURVE",
"718 258 CURVE SMOOTH",
"718 242 LINE",
"377 242 LINE",
"377 182 OFFCURVE",
"384 125 OFFCURVE",
"409 84 CURVE SMOOTH",
"433 43 OFFCURVE",
"473 16 OFFCURVE",
"540 16 CURVE SMOOTH",
"600 16 OFFCURVE",
"639 27 OFFCURVE",
"694 54 CURVE",
"703 34 LINE",
"651 6 OFFCURVE",
"605 -7 OFFCURVE",
"544 -7 CURVE SMOOTH",
"464 -7 OFFCURVE",
"416 22 OFFCURVE",
"387 69 CURVE",
"336 30 OFFCURVE",
"293 12 OFFCURVE",
"257 3 CURVE SMOOTH",
"220 -6 OFFCURVE",
"191 -6 OFFCURVE",
"171 -6 CURVE SMOOTH",
"119 -6 OFFCURVE",
"86 12 OFFCURVE",
"66 38 CURVE SMOOTH",
"46 64 OFFCURVE",
"39 95 OFFCURVE",
"39 126 CURVE SMOOTH",
"39 173 OFFCURVE",
"56 207 OFFCURVE",
"84 230 CURVE SMOOTH",
"112 253 OFFCURVE",
"151 264 OFFCURVE",
"194 264 CURVE SMOOTH",
"352 264 LINE",
"352 322 LINE SMOOTH",
"352 374 OFFCURVE",
"346 411 OFFCURVE",
"328 435 CURVE SMOOTH",
"310 459 OFFCURVE",
"279 470 OFFCURVE",
"231 470 CURVE SMOOTH",
"182 470 OFFCURVE",
"127 456 OFFCURVE",
"79 437 CURVE",
"71 456 LINE",
"127 479 OFFCURVE",
"185 491 OFFCURVE",
"236 491 CURVE SMOOTH",
"319 491 OFFCURVE",
"363 458 OFFCURVE",
"374 371 CURVE",
"386 403 OFFCURVE",
"404 433 OFFCURVE",
"432 455 CURVE SMOOTH",
"459 477 OFFCURVE",
"495 491 OFFCURVE",
"544 491 CURVE SMOOTH"
);
},
{
closed = 1;
nodes = (
"197 242 LINE SMOOTH",
"110 242 OFFCURVE",
"63 194 OFFCURVE",
"63 129 CURVE SMOOTH",
"63 53 OFFCURVE",
"105 15 OFFCURVE",
"181 15 CURVE SMOOTH",
"206 15 OFFCURVE",
"240 19 OFFCURVE",
"275 31 CURVE SMOOTH",
"310 42 OFFCURVE",
"346 60 OFFCURVE",
"378 87 CURVE",
"358 130 OFFCURVE",
"352 182 OFFCURVE",
"352 242 CURVE"
);
},
{
closed = 1;
nodes = (
"484 470 OFFCURVE",
"445 445 OFFCURVE",
"420 407 CURVE SMOOTH",
"395 369 OFFCURVE",
"383 316 OFFCURVE",
"378 264 CURVE",
"693 264 LINE",
"693 324 OFFCURVE",
"684 376 OFFCURVE",
"661 412 CURVE SMOOTH",
"637 448 OFFCURVE",
"600 470 OFFCURVE",
"543 470 CURVE SMOOTH"
);
},
{
closed = 1;
nodes = (
"375 564 LINE",
"475 707 LINE",
"501 685 LINE",
"390 554 LINE"
);
}
);
width = 758;
}
);
leftKerningGroupId = "@MMK_R_a";
unicode = 01FD;
},
{
changeCount = 0;
export = 0;
glyphname = agrave;
layers = (
{
layerId = "C0403F1F-3C96-483E-B2A6-FF5F8E230CEF";
name = Light;
paths = (
{
closed = 1;
nodes = (
"348 61 LINE",
"304 28 OFFCURVE",
"267 11 OFFCURVE",
"239 3 CURVE SMOOTH",
"210 -6 OFFCURVE",
"188 -6 OFFCURVE",
"172 -6 CURVE SMOOTH",
"120 -6 OFFCURVE",
"87 12 OFFCURVE",
"67 38 CURVE SMOOTH",
"47 64 OFFCURVE",
"40 95 OFFCURVE",
"40 126 CURVE SMOOTH",
"40 173 OFFCURVE",
"58 207 OFFCURVE",
"87 229 CURVE SMOOTH",
"116 251 OFFCURVE",
"157 261 OFFCURVE",
"201 264 CURVE SMOOTH",
"353 271 LINE",
"353 322 LINE SMOOTH",
"353 374 OFFCURVE",
"347 411 OFFCURVE",
"329 435 CURVE SMOOTH",
"311 459 OFFCURVE",
"280 470 OFFCURVE",
"232 470 CURVE SMOOTH",
"183 470 OFFCURVE",
"128 456 OFFCURVE",
"80 437 CURVE",
"72 456 LINE",
"128 479 OFFCURVE",
"186 491 OFFCURVE",
"237 491 CURVE SMOOTH",
"330 491 OFFCURVE",
"377 448 OFFCURVE",
"377 336 CURVE SMOOTH",
"377 25 LINE",
"444 25 LINE",
"446 9 LINE",
"423 0 OFFCURVE",
"402 -3 OFFCURVE",
"386 -3 CURVE SMOOTH",
"361 -3 OFFCURVE",
"351 5 OFFCURVE",
"351 32 CURVE SMOOTH",
"351 60 LINE"
);
},
{
closed = 1;
nodes = (
"198 242 LINE SMOOTH",
"111 238 OFFCURVE",
"64 194 OFFCURVE",
"64 129 CURVE SMOOTH",
"64 53 OFFCURVE",
"106 15 OFFCURVE",
"182 15 CURVE SMOOTH",
"235 15 OFFCURVE",
"290 43 OFFCURVE",
"353 91 CURVE",
"353 250 LINE"
);
},
{
closed = 1;
nodes = (
"240 554 LINE",
"129 685 LINE",
"155 707 LINE",
"255 564 LINE"
);
}
);
width = 476;
}
);
leftKerningGroupId = "@MMK_R_a";
rightKerningGroupId = "@MMK_L_a";
unicode = 00E0;
},
{
changeCount = 0;
export = 0;
glyphname = amacron;
layers = (
{
layerId = "C0403F1F-3C96-483E-B2A6-FF5F8E230CEF";
name = Light;
paths = (
{
closed = 1;
nodes = (
"348 61 LINE",
"304 28 OFFCURVE",
"267 11 OFFCURVE",
"239 3 CURVE SMOOTH",
"210 -6 OFFCURVE",
"188 -6 OFFCURVE",
"172 -6 CURVE SMOOTH",
"120 -6 OFFCURVE",
"87 12 OFFCURVE",
"67 38 CURVE SMOOTH",
"47 64 OFFCURVE",
"40 95 OFFCURVE",
"40 126 CURVE SMOOTH",
"40 173 OFFCURVE",
"58 207 OFFCURVE",
"87 229 CURVE SMOOTH",
"116 251 OFFCURVE",
"157 261 OFFCURVE",
"201 264 CURVE SMOOTH",
"353 271 LINE",
"353 322 LINE SMOOTH",
"353 374 OFFCURVE",
"347 411 OFFCURVE",
"329 435 CURVE SMOOTH",
"311 459 OFFCURVE",
"280 470 OFFCURVE",
"232 470 CURVE SMOOTH",
"183 470 OFFCURVE",
"128 456 OFFCURVE",
"80 437 CURVE",
"72 456 LINE",
"128 479 OFFCURVE",
"186 491 OFFCURVE",
"237 491 CURVE SMOOTH",
"330 491 OFFCURVE",
"377 448 OFFCURVE",
"377 336 CURVE SMOOTH",
"377 25 LINE",
"444 25 LINE",
"446 9 LINE",
"423 0 OFFCURVE",
"402 -3 OFFCURVE",
"386 -3 CURVE SMOOTH",
"361 -3 OFFCURVE",
"351 5 OFFCURVE",
"351 32 CURVE SMOOTH",
"351 60 LINE"
);
},
{
closed = 1;
nodes = (
"198 242 LINE SMOOTH",
"111 238 OFFCURVE",
"64 194 OFFCURVE",
"64 129 CURVE SMOOTH",
"64 53 OFFCURVE",
"106 15 OFFCURVE",
"182 15 CURVE SMOOTH",
"235 15 OFFCURVE",
"290 43 OFFCURVE",
"353 91 CURVE",
"353 250 LINE"
);
},
{
closed = 1;
nodes = (
"366 626 LINE",
"366 600 LINE",
"80 600 LINE",
"80 626 LINE"
);
}
);
width = 476;
}
);
leftKerningGroupId = "@MMK_R_a";
rightKerningGroupId = "@MMK_L_a";
unicode = 0101;
},
{
changeCount = 0;
export = 0;
glyphname = aogonek;
layers = (
{
layerId = "C0403F1F-3C96-483E-B2A6-FF5F8E230CEF";
name = Light;
paths = (
{
closed = 1;
nodes = (
"348 61 LINE",
"304 28 OFFCURVE",
"267 11 OFFCURVE",
"239 3 CURVE SMOOTH",
"210 -6 OFFCURVE",
"188 -6 OFFCURVE",
"172 -6 CURVE SMOOTH",
"120 -6 OFFCURVE",
"87 12 OFFCURVE",
"67 38 CURVE SMOOTH",
"47 64 OFFCURVE",
"40 95 OFFCURVE",
"40 126 CURVE SMOOTH",
"40 173 OFFCURVE",
"58 207 OFFCURVE",
"87 229 CURVE SMOOTH",
"116 251 OFFCURVE",
"157 261 OFFCURVE",
"201 264 CURVE SMOOTH",
"353 271 LINE",
"353 322 LINE SMOOTH",
"353 374 OFFCURVE",
"347 411 OFFCURVE",
"329 435 CURVE SMOOTH",
"311 459 OFFCURVE",
"280 470 OFFCURVE",
"232 470 CURVE SMOOTH",
"183 470 OFFCURVE",
"128 456 OFFCURVE",
"80 437 CURVE",
"72 456 LINE",
"128 479 OFFCURVE",
"186 491 OFFCURVE",
"237 491 CURVE SMOOTH",
"330 491 OFFCURVE",
"377 448 OFFCURVE",
"377 336 CURVE SMOOTH",
"377 25 LINE",
"444 25 LINE",
"446 9 LINE",
"423 0 OFFCURVE",
"402 -3 OFFCURVE",
"386 -3 CURVE SMOOTH",
"373 -3 OFFCURVE",
"363 -1 OFFCURVE",
"358 4 CURVE",
"307 -43 OFFCURVE",
"296 -89 OFFCURVE",
"296 -114 CURVE SMOOTH",
"296 -154 OFFCURVE",
"325 -165 OFFCURVE",
"360 -165 CURVE SMOOTH",
"387 -165 OFFCURVE",
"410 -160 OFFCURVE",
"429 -155 CURVE",
"434 -169 LINE",
"405 -184 OFFCURVE",
"373 -190 OFFCURVE",
"348 -190 CURVE SMOOTH",
"289 -190 OFFCURVE",
"266 -160 OFFCURVE",
"266 -124 CURVE SMOOTH",
"266 -88 OFFCURVE",
"283 -39 OFFCURVE",
"352 18 CURVE",
"351 21 OFFCURVE",
"351 25 OFFCURVE",
"351 32 CURVE SMOOTH",
"351 60 LINE"
);
},
{
closed = 1;
nodes = (
"198 242 LINE SMOOTH",
"111 238 OFFCURVE",
"64 194 OFFCURVE",
"64 129 CURVE SMOOTH",
"64 53 OFFCURVE",
"106 15 OFFCURVE",
"182 15 CURVE SMOOTH",
"235 15 OFFCURVE",
"290 43 OFFCURVE",
"353 91 CURVE",
"353 250 LINE"
);
}
);
width = 476;
}
);
leftKerningGroupId = "@MMK_R_a";
rightKerningGroupId = "@MMK_L_a";
unicode = 0105;
},
{
changeCount = 0;
export = 0;
glyphname = aring;
layers = (
{
layerId = "C0403F1F-3C96-483E-B2A6-FF5F8E230CEF";
name = Light;
paths = (
{
closed = 1;
nodes = (
"348 61 LINE",
"304 28 OFFCURVE",
"267 11 OFFCURVE",
"239 3 CURVE SMOOTH",
"210 -6 OFFCURVE",
"188 -6 OFFCURVE",
"172 -6 CURVE SMOOTH",
"120 -6 OFFCURVE",
"87 12 OFFCURVE",
"67 38 CURVE SMOOTH",
"47 64 OFFCURVE",
"40 95 OFFCURVE",
"40 126 CURVE SMOOTH",
"40 173 OFFCURVE",
"58 207 OFFCURVE",
"87 229 CURVE SMOOTH",
"116 251 OFFCURVE",
"157 261 OFFCURVE",
"201 264 CURVE SMOOTH",
"353 271 LINE",
"353 322 LINE SMOOTH",
"353 374 OFFCURVE",
"347 411 OFFCURVE",
"329 435 CURVE SMOOTH",
"311 459 OFFCURVE",
"280 470 OFFCURVE",
"232 470 CURVE SMOOTH",
"183 470 OFFCURVE",
"128 456 OFFCURVE",
"80 437 CURVE",
"72 456 LINE",
"128 479 OFFCURVE",
"186 491 OFFCURVE",
"237 491 CURVE SMOOTH",
"330 491 OFFCURVE",
"377 448 OFFCURVE",
"377 336 CURVE SMOOTH",
"377 25 LINE",
"444 25 LINE",
"446 9 LINE",
"423 0 OFFCURVE",
"402 -3 OFFCURVE",
"386 -3 CURVE SMOOTH",
"361 -3 OFFCURVE",
"351 5 OFFCURVE",
"351 32 CURVE SMOOTH",
"351 60 LINE"
);
},
{
closed = 1;
nodes = (
"198 242 LINE SMOOTH",
"111 238 OFFCURVE",
"64 194 OFFCURVE",
"64 129 CURVE SMOOTH",
"64 53 OFFCURVE",
"106 15 OFFCURVE",
"182 15 CURVE SMOOTH",
"235 15 OFFCURVE",
"290 43 OFFCURVE",
"353 91 CURVE",
"353 250 LINE"
);
},
{
closed = 1;
nodes = (
"192 545 OFFCURVE",
"163 582 OFFCURVE",
"163 626 CURVE SMOOTH",
"163 670 OFFCURVE",
"198 708 OFFCURVE",
"247 708 CURVE SMOOTH",
"298 708 OFFCURVE",
"329 671 OFFCURVE",
"329 626 CURVE SMOOTH",
"329 581 OFFCURVE",
"298 545 OFFCURVE",
"247 545 CURVE SMOOTH"
);
},
{
closed = 1;
nodes = (
"208 685 OFFCURVE",
"188 662 OFFCURVE",
"188 625 CURVE SMOOTH",
"188 586 OFFCURVE",
"208 565 OFFCURVE",
"247 565 CURVE SMOOTH",
"283 565 OFFCURVE",
"305 586 OFFCURVE",
"305 625 CURVE SMOOTH",
"305 661 OFFCURVE",
"283 685 OFFCURVE",
"247 685 CURVE SMOOTH"
);
}
);
width = 476;
}
);
leftKerningGroupId = "@MMK_R_a";
rightKerningGroupId = "@MMK_L_a";
unicode = 00E5;
},
{
changeCount = 0;
export = 0;
glyphname = atilde;
layers = (
{
layerId = "C0403F1F-3C96-483E-B2A6-FF5F8E230CEF";
name = Light;
paths = (
{
closed = 1;
nodes = (
"348 61 LINE",
"304 28 OFFCURVE",
"267 11 OFFCURVE",
"239 3 CURVE SMOOTH",
"210 -6 OFFCURVE",
"188 -6 OFFCURVE",
"172 -6 CURVE SMOOTH",
"120 -6 OFFCURVE",
"87 12 OFFCURVE",
"67 38 CURVE SMOOTH",
"47 64 OFFCURVE",
"40 95 OFFCURVE",
"40 126 CURVE SMOOTH",
"40 173 OFFCURVE",
"58 207 OFFCURVE",
"87 229 CURVE SMOOTH",
"116 251 OFFCURVE",
"157 261 OFFCURVE",
"201 264 CURVE SMOOTH",
"353 271 LINE",
"353 322 LINE SMOOTH",
"353 374 OFFCURVE",
"347 411 OFFCURVE",
"329 435 CURVE SMOOTH",
"311 459 OFFCURVE",
"280 470 OFFCURVE",
"232 470 CURVE SMOOTH",
"183 470 OFFCURVE",
"128 456 OFFCURVE",
"80 437 CURVE",
"72 456 LINE",
"128 479 OFFCURVE",
"186 491 OFFCURVE",
"237 491 CURVE SMOOTH",
"330 491 OFFCURVE",
"377 448 OFFCURVE",
"377 336 CURVE SMOOTH",
"377 25 LINE",
"444 25 LINE",
"446 9 LINE",
"423 0 OFFCURVE",
"402 -3 OFFCURVE",
"386 -3 CURVE SMOOTH",
"361 -3 OFFCURVE",
"351 5 OFFCURVE",
"351 32 CURVE SMOOTH",
"351 60 LINE"
);
},
{
closed = 1;
nodes = (
"198 242 LINE SMOOTH",
"111 238 OFFCURVE",
"64 194 OFFCURVE",
"64 129 CURVE SMOOTH",
"64 53 OFFCURVE",
"106 15 OFFCURVE",
"182 15 CURVE SMOOTH",
"235 15 OFFCURVE",
"290 43 OFFCURVE",
"353 91 CURVE",
"353 250 LINE"
);
},
{
closed = 1;
nodes = (
"111 581 LINE",
"98 588 LINE",
"109 623 OFFCURVE",
"136 645 OFFCURVE",
"165 645 CURVE SMOOTH",
"186 645 OFFCURVE",
"213 636 OFFCURVE",
"239 627 CURVE SMOOTH",
"265 618 OFFCURVE",
"291 609 OFFCURVE",
"311 609 CURVE",
"356 648 LINE",
"368 641 LINE",
"356 612 OFFCURVE",
"337 584 OFFCURVE",
"306 584 CURVE SMOOTH",
"289 584 OFFCURVE",
"261 594 OFFCURVE",
"233 603 CURVE SMOOTH",
"205 612 OFFCURVE",
"177 622 OFFCURVE",
"160 622 CURVE"
);
}
);
width = 476;
}
);
leftKerningGroupId = "@MMK_R_a";
rightKerningGroupId = "@MMK_L_a";
unicode = 00E3;
},
{
changeCount = 0;
color = 4;
glyphname = b;
layers = (
{
background = {
paths = (
{
closed = 1;
nodes = (
"84 442 LINE",
"156 478 OFFCURVE",
"201 492 OFFCURVE",
"246 492 CURVE SMOOTH",
"313 492 OFFCURVE",
"356 464 OFFCURVE",
"382 419 CURVE SMOOTH",
"408 374 OFFCURVE",
"417 310 OFFCURVE",
"417 237 CURVE SMOOTH",
"417 169 OFFCURVE",
"405 108 OFFCURVE",
"376 65 CURVE SMOOTH",
"347 21 OFFCURVE",
"300 -6 OFFCURVE",
"231 -6 CURVE SMOOTH",
"159 -6 OFFCURVE",
"107 9 OFFCURVE",
"60 30 CURVE",
"60 708 LINE",
"83 708 LINE",
"83 529 LINE SMOOTH",
"83 515 OFFCURVE",
"83 501 OFFCURVE",
"83 488 CURVE SMOOTH",
"83 474 OFFCURVE",
"83 459 OFFCURVE",
"82 444 CURVE"
);
},
{
closed = 1;
nodes = (
"191 471 OFFCURVE",
"130 442 OFFCURVE",
"83 417 CURVE",
"83 45 LINE",
"136 22 OFFCURVE",
"185 16 OFFCURVE",
"228 16 CURVE SMOOTH",
"331 16 OFFCURVE",
"393 78 OFFCURVE",
"393 235 CURVE SMOOTH",
"393 324 OFFCURVE",
"378 384 OFFCURVE",
"354 421 CURVE SMOOTH",
"329 457 OFFCURVE",
"292 471 OFFCURVE",
"248 471 CURVE SMOOTH"
);
}
);
};
layerId = "C0403F1F-3C96-483E-B2A6-FF5F8E230CEF";
name = Light;
paths = (
{
closed = 1;
nodes = (
"193 686 LINE",
"71 708 LINE",
"71 38 LINE",
"121 16 OFFCURVE",
"173 5 OFFCURVE",
"230 5 CURVE SMOOTH",
"293 5 OFFCURVE",
"339 28 OFFCURVE",
"368 72 CURVE SMOOTH",
"393 111 OFFCURVE",
"406 167 OFFCURVE",
"406 236 CURVE SMOOTH",
"406 317 OFFCURVE",
"394 379 OFFCURVE",
"369 420 CURVE SMOOTH",
"343 461 OFFCURVE",
"303 482 OFFCURVE",
"248 482 CURVE SMOOTH",
"197 482 OFFCURVE",
"144 461 OFFCURVE",
"85 430 CURVE SMOOTH",
"85 430 OFFCURVE",
"74 425 OFFCURVE",
"73 424 CURVE SMOOTH"
);
}
);
width = 467;
}
);
rightKerningGroupId = "@MMK_L_b";
unicode = 0062;
},
{
changeCount = 0;
color = 4;
glyphname = c;
layers = (
{
background = {
paths = (
{
closed = 1;
nodes = (
"75 175 OFFCURVE",
"84 120 OFFCURVE",
"109 80 CURVE SMOOTH",
"133 40 OFFCURVE",
"174 15 OFFCURVE",
"238 15 CURVE SMOOTH",
"294 15 OFFCURVE",
"334 27 OFFCURVE",
"389 50 CURVE",
"396 31 LINE",
"357 10 OFFCURVE",
"302 -7 OFFCURVE",
"242 -7 CURVE SMOOTH",
"171 -7 OFFCURVE",
"124 19 OFFCURVE",
"93 61 CURVE SMOOTH",
"62 103 OFFCURVE",
"50 162 OFFCURVE",
"50 233 CURVE SMOOTH",
"50 281 OFFCURVE",
"58 346 OFFCURVE",
"87 399 CURVE SMOOTH",
"115 451 OFFCURVE",
"165 492 OFFCURVE",
"249 492 CURVE SMOOTH",
"298 492 OFFCURVE",
"347 483 OFFCURVE",
"382 468 CURVE",
"373 447 LINE",
"322 466 OFFCURVE",
"280 470 OFFCURVE",
"251 470 CURVE SMOOTH",
"190 470 OFFCURVE",
"145 447 OFFCURVE",
"117 405 CURVE SMOOTH",
"88 363 OFFCURVE",
"75 303 OFFCURVE",
"75 232 CURVE SMOOTH"
);
}
);
};
layerId = "C0403F1F-3C96-483E-B2A6-FF5F8E230CEF";
name = Light;
paths = (
{
closed = 1;
nodes = (
"279 235 LINE",
"354 466 LINE",
"318 477 OFFCURVE",
"282 482 OFFCURVE",
"250 482 CURVE SMOOTH",
"178 482 OFFCURVE",
"130 449 OFFCURVE",
"102 403 CURVE SMOOTH",
"73 355 OFFCURVE",
"63 293 OFFCURVE",
"63 233 CURVE SMOOTH",
"63 169 OFFCURVE",
"73 112 OFFCURVE",
"101 71 CURVE SMOOTH",
"129 30 OFFCURVE",
"173 5 OFFCURVE",
"240 5 CURVE SMOOTH",
"289 5 OFFCURVE",
"331 15 OFFCURVE",
"371 31 CURVE"
);
}
);
width = 431;
}
);
unicode = 0063;
},
{
changeCount = 0;
export = 0;
glyphname = cacute;
layers = (
{
layerId = "C0403F1F-3C96-483E-B2A6-FF5F8E230CEF";
name = Light;
paths = (
{
closed = 1;
nodes = (
"75 175 OFFCURVE",
"84 120 OFFCURVE",
"109 80 CURVE SMOOTH",
"133 40 OFFCURVE",
"174 15 OFFCURVE",
"238 15 CURVE SMOOTH",
"294 15 OFFCURVE",
"334 27 OFFCURVE",
"389 50 CURVE",
"396 31 LINE",
"357 10 OFFCURVE",
"302 -7 OFFCURVE",
"242 -7 CURVE SMOOTH",
"171 -7 OFFCURVE",
"124 19 OFFCURVE",
"93 61 CURVE SMOOTH",
"62 103 OFFCURVE",
"50 162 OFFCURVE",
"50 233 CURVE SMOOTH",
"50 281 OFFCURVE",
"58 346 OFFCURVE",
"87 399 CURVE SMOOTH",
"115 451 OFFCURVE",
"165 492 OFFCURVE",
"249 492 CURVE SMOOTH",
"298 492 OFFCURVE",
"347 483 OFFCURVE",
"382 468 CURVE",
"373 447 LINE",
"322 466 OFFCURVE",
"280 470 OFFCURVE",
"251 470 CURVE SMOOTH",
"190 470 OFFCURVE",
"145 447 OFFCURVE",
"117 405 CURVE SMOOTH",
"88 363 OFFCURVE",
"75 303 OFFCURVE",
"75 232 CURVE SMOOTH"
);
},
{
closed = 1;
nodes = (
"190 564 LINE",
"290 707 LINE",
"316 685 LINE",
"205 554 LINE"
);
}
);
width = 431;
}
);
leftKerningGroupId = "@MMK_R_c";
unicode = 0107;
},
{
changeCount = 0;
export = 0;
glyphname = ccaron;
layers = (
{
layerId = "C0403F1F-3C96-483E-B2A6-FF5F8E230CEF";
name = Light;
paths = (
{
closed = 1;
nodes = (
"75 175 OFFCURVE",
"84 120 OFFCURVE",
"109 80 CURVE SMOOTH",
"133 40 OFFCURVE",
"174 15 OFFCURVE",
"238 15 CURVE SMOOTH",
"294 15 OFFCURVE",
"334 27 OFFCURVE",
"389 50 CURVE",
"396 31 LINE",
"357 10 OFFCURVE",
"302 -7 OFFCURVE",
"242 -7 CURVE SMOOTH",
"171 -7 OFFCURVE",
"124 19 OFFCURVE",
"93 61 CURVE SMOOTH",
"62 103 OFFCURVE",
"50 162 OFFCURVE",
"50 233 CURVE SMOOTH",
"50 281 OFFCURVE",
"58 346 OFFCURVE",
"87 399 CURVE SMOOTH",
"115 451 OFFCURVE",
"165 492 OFFCURVE",
"249 492 CURVE SMOOTH",
"298 492 OFFCURVE",
"347 483 OFFCURVE",
"382 468 CURVE",
"373 447 LINE",
"322 466 OFFCURVE",
"280 470 OFFCURVE",
"251 470 CURVE SMOOTH",
"190 470 OFFCURVE",
"145 447 OFFCURVE",
"117 405 CURVE SMOOTH",
"88 363 OFFCURVE",
"75 303 OFFCURVE",
"75 232 CURVE SMOOTH"
);
},
{
closed = 1;
nodes = (
"368 694 LINE",
"378 682 LINE",
"250 560 LINE",
"222 560 LINE",
"93 683 LINE",
"104 695 LINE",
"236 592 LINE"
);
}
);
width = 431;
}
);
leftKerningGroupId = "@MMK_R_c";
unicode = 010D;
},
{
changeCount = 0;
export = 0;
glyphname = ccedilla;
layers = (
{
layerId = "C0403F1F-3C96-483E-B2A6-FF5F8E230CEF";
name = Light;
paths = (
{
closed = 1;
nodes = (
"75 175 OFFCURVE",
"84 120 OFFCURVE",
"109 80 CURVE SMOOTH",
"133 40 OFFCURVE",
"174 15 OFFCURVE",
"238 15 CURVE SMOOTH",
"294 15 OFFCURVE",
"334 27 OFFCURVE",
"389 50 CURVE",
"396 31 LINE",
"361 12 OFFCURVE",
"313 -3 OFFCURVE",
"260 -6 CURVE",
"206 -75 LINE",
"223 -75 LINE SMOOTH",
"283 -75 OFFCURVE",
"327 -95 OFFCURVE",
"327 -142 CURVE SMOOTH",
"327 -167 OFFCURVE",
"315 -191 OFFCURVE",
"288 -209 CURVE SMOOTH",
"261 -227 OFFCURVE",
"221 -239 OFFCURVE",
"164 -239 CURVE",
"163 -222 LINE",
"215 -218 OFFCURVE",
"248 -207 OFFCURVE",
"268 -193 CURVE SMOOTH",
"288 -179 OFFCURVE",
"295 -163 OFFCURVE",
"295 -144 CURVE SMOOTH",
"295 -109 OFFCURVE",
"258 -94 OFFCURVE",
"207 -94 CURVE SMOOTH",
"204 -94 OFFCURVE",
"200 -94 OFFCURVE",
"197 -94 CURVE",
"193 -95 OFFCURVE",
"189 -95 OFFCURVE",
"185 -95 CURVE",
"176 -81 LINE",
"236 -7 LINE",
"168 -6 OFFCURVE",
"121 21 OFFCURVE",
"92 63 CURVE SMOOTH",
"63 105 OFFCURVE",
"50 164 OFFCURVE",
"50 233 CURVE SMOOTH",
"50 281 OFFCURVE",
"58 346 OFFCURVE",
"87 399 CURVE SMOOTH",
"115 451 OFFCURVE",
"165 492 OFFCURVE",
"249 492 CURVE SMOOTH",
"298 492 OFFCURVE",
"347 483 OFFCURVE",
"382 468 CURVE",
"373 447 LINE",
"322 466 OFFCURVE",
"280 470 OFFCURVE",
"251 470 CURVE SMOOTH",
"190 470 OFFCURVE",
"145 447 OFFCURVE",
"117 405 CURVE SMOOTH",
"88 363 OFFCURVE",
"75 303 OFFCURVE",
"75 232 CURVE SMOOTH"
);
}
);
width = 431;
}
);
leftKerningGroupId = "@MMK_R_c";
unicode = 00E7;
},
{
changeCount = 0;
export = 0;
glyphname = ccircumflex;
layers = (
{
layerId = "C0403F1F-3C96-483E-B2A6-FF5F8E230CEF";
name = Light;
paths = (
{
closed = 1;
nodes = (
"75 175 OFFCURVE",
"84 120 OFFCURVE",
"109 80 CURVE SMOOTH",
"133 40 OFFCURVE",
"174 15 OFFCURVE",
"238 15 CURVE SMOOTH",
"294 15 OFFCURVE",
"334 27 OFFCURVE",
"389 50 CURVE",
"396 31 LINE",
"357 10 OFFCURVE",
"302 -7 OFFCURVE",
"242 -7 CURVE SMOOTH",
"171 -7 OFFCURVE",
"124 19 OFFCURVE",
"93 61 CURVE SMOOTH",
"62 103 OFFCURVE",
"50 162 OFFCURVE",
"50 233 CURVE SMOOTH",
"50 281 OFFCURVE",
"58 346 OFFCURVE",
"87 399 CURVE SMOOTH",
"115 451 OFFCURVE",
"165 492 OFFCURVE",
"249 492 CURVE SMOOTH",
"298 492 OFFCURVE",
"347 483 OFFCURVE",
"382 468 CURVE",
"373 447 LINE",
"322 466 OFFCURVE",
"280 470 OFFCURVE",
"251 470 CURVE SMOOTH",
"190 470 OFFCURVE",
"145 447 OFFCURVE",
"117 405 CURVE SMOOTH",
"88 363 OFFCURVE",
"75 303 OFFCURVE",
"75 232 CURVE SMOOTH"
);
},
{
closed = 1;
nodes = (
"245 653 LINE",
"113 550 LINE",
"102 562 LINE",
"231 685 LINE",
"259 685 LINE",
"387 563 LINE",
"377 551 LINE"
);
}
);
width = 431;
}
);
leftKerningGroupId = "@MMK_R_c";
unicode = 0109;
},
{
changeCount = 0;
export = 0;
glyphname = cdotaccent;
layers = (
{
layerId = "C0403F1F-3C96-483E-B2A6-FF5F8E230CEF";
name = Light;
paths = (
{
closed = 1;
nodes = (
"75 175 OFFCURVE",
"84 120 OFFCURVE",
"109 80 CURVE SMOOTH",
"133 40 OFFCURVE",
"174 15 OFFCURVE",
"238 15 CURVE SMOOTH",
"294 15 OFFCURVE",
"334 27 OFFCURVE",
"389 50 CURVE",
"396 31 LINE",
"357 10 OFFCURVE",
"302 -7 OFFCURVE",
"242 -7 CURVE SMOOTH",
"171 -7 OFFCURVE",
"124 19 OFFCURVE",
"93 61 CURVE SMOOTH",
"62 103 OFFCURVE",
"50 162 OFFCURVE",
"50 233 CURVE SMOOTH",
"50 281 OFFCURVE",
"58 346 OFFCURVE",
"87 399 CURVE SMOOTH",
"115 451 OFFCURVE",
"165 492 OFFCURVE",
"249 492 CURVE SMOOTH",
"298 492 OFFCURVE",
"347 483 OFFCURVE",
"382 468 CURVE",
"373 447 LINE",
"322 466 OFFCURVE",
"280 470 OFFCURVE",
"251 470 CURVE SMOOTH",
"190 470 OFFCURVE",
"145 447 OFFCURVE",
"117 405 CURVE SMOOTH",
"88 363 OFFCURVE",
"75 303 OFFCURVE",
"75 232 CURVE SMOOTH"
);
},
{
closed = 1;
nodes = (
"263 583 OFFCURVE",
"252 572 OFFCURVE",
"241 572 CURVE SMOOTH",
"229 572 OFFCURVE",
"218 583 OFFCURVE",
"218 596 CURVE SMOOTH",
"218 611 OFFCURVE",
"229 622 OFFCURVE",
"241 622 CURVE SMOOTH",
"252 622 OFFCURVE",
"263 611 OFFCURVE",
"263 596 CURVE SMOOTH"
);
}
);
width = 431;
}
);
leftKerningGroupId = "@MMK_R_c";
unicode = 010B;
},
{
changeCount = 0;
color = 4;
glyphname = d;
layers = (
{
background = {
paths = (
{
closed = 1;
nodes = (
"382 56 LINE",
"334 19 OFFCURVE",
"276 -6 OFFCURVE",
"220 -6 CURVE SMOOTH",
"156 -6 OFFCURVE",
"114 19 OFFCURVE",
"87 62 CURVE SMOOTH",
"60 105 OFFCURVE",
"50 164 OFFCURVE",
"50 232 CURVE SMOOTH",
"50 305 OFFCURVE",
"63 371 OFFCURVE",
"92 417 CURVE SMOOTH",
"121 463 OFFCURVE",
"167 491 OFFCURVE",
"234 491 CURVE SMOOTH",
"274 491 OFFCURVE",
"324 482 OFFCURVE",
"384 449 CURVE",
"385 708 LINE",
"407 708 LINE",
"407 0 LINE",
"384 0 LINE",
"384 55 LINE"
);
},
{
closed = 1;
nodes = (
"384 422 LINE",
"345 446 OFFCURVE",
"290 468 OFFCURVE",
"233 468 CURVE SMOOTH",
"189 468 OFFCURVE",
"149 452 OFFCURVE",
"121 415 CURVE SMOOTH",
"93 378 OFFCURVE",
"75 318 OFFCURVE",
"75 230 CURVE SMOOTH",
"75 150 OFFCURVE",
"89 96 OFFCURVE",
"116 63 CURVE SMOOTH",
"143 30 OFFCURVE",
"179 16 OFFCURVE",
"226 16 CURVE SMOOTH",
"251 16 OFFCURVE",
"281 24 OFFCURVE",
"309 37 CURVE SMOOTH",
"337 49 OFFCURVE",
"364 66 OFFCURVE",
"384 86 CURVE"
);
}
);
};
layerId = "C0403F1F-3C96-483E-B2A6-FF5F8E230CEF";
name = Light;
paths = (
{
closed = 1;
nodes = (
"303 266 LINE",
"384 436 LINE",
"335 464 OFFCURVE",
"282 480 OFFCURVE",
"234 480 CURVE SMOOTH",
"178 480 OFFCURVE",
"135 458 OFFCURVE",
"107 416 CURVE SMOOTH",
"78 375 OFFCURVE",
"63 312 OFFCURVE",
"63 231 CURVE SMOOTH",
"63 157 OFFCURVE",
"75 101 OFFCURVE",
"102 63 CURVE SMOOTH",
"129 25 OFFCURVE",
"168 5 OFFCURVE",
"223 5 CURVE SMOOTH",
"250 5 OFFCURVE",
"279 12 OFFCURVE",
"307 24 CURVE SMOOTH",
"334 36 OFFCURVE",
"361 52 OFFCURVE",
"383 71 CURVE"
);
},
{
closed = 1;
nodes = (
"461 594 LINE",
"396 708 LINE",
"396 0 LINE"
);
}
);
width = 467;
}
);
unicode = 0064;
},
{
changeCount = 0;
export = 0;
glyphname = dcaron;
layers = (
{
layerId = "C0403F1F-3C96-483E-B2A6-FF5F8E230CEF";
name = Light;
paths = (
{
closed = 1;
nodes = (
"476 646 OFFCURVE",
"465 656 OFFCURVE",
"465 671 CURVE SMOOTH",
"465 687 OFFCURVE",
"475 700 OFFCURVE",
"491 700 CURVE SMOOTH",
"510 700 OFFCURVE",
"522 688 OFFCURVE",
"522 663 CURVE SMOOTH",
"522 632 OFFCURVE",
"509 606 OFFCURVE",
"478 579 CURVE",
"470 587 LINE",
"489 610 OFFCURVE",
"491 623 OFFCURVE",
"491 646 CURVE"
);
},
{
closed = 1;
nodes = (
"382 56 LINE",
"334 19 OFFCURVE",
"276 -6 OFFCURVE",
"220 -6 CURVE SMOOTH",
"156 -6 OFFCURVE",
"114 19 OFFCURVE",
"87 62 CURVE SMOOTH",
"60 105 OFFCURVE",
"50 164 OFFCURVE",
"50 232 CURVE SMOOTH",
"50 305 OFFCURVE",
"63 371 OFFCURVE",
"92 417 CURVE SMOOTH",
"121 463 OFFCURVE",
"167 491 OFFCURVE",
"234 491 CURVE SMOOTH",
"274 491 OFFCURVE",
"324 482 OFFCURVE",
"384 449 CURVE",
"385 708 LINE",
"407 708 LINE",
"407 0 LINE",
"384 0 LINE",
"384 55 LINE"
);
},
{
closed = 1;
nodes = (
"384 422 LINE",
"345 446 OFFCURVE",
"290 468 OFFCURVE",
"233 468 CURVE SMOOTH",
"189 468 OFFCURVE",
"149 452 OFFCURVE",
"121 415 CURVE SMOOTH",
"93 378 OFFCURVE",
"75 318 OFFCURVE",
"75 230 CURVE SMOOTH",
"75 150 OFFCURVE",
"89 96 OFFCURVE",
"116 63 CURVE SMOOTH",
"143 30 OFFCURVE",
"179 16 OFFCURVE",
"226 16 CURVE SMOOTH",
"251 16 OFFCURVE",
"281 24 OFFCURVE",
"309 37 CURVE SMOOTH",
"337 49 OFFCURVE",
"364 66 OFFCURVE",
"384 86 CURVE"
);
}
);
width = 530;
}
);
leftKerningGroupId = "@MMK_R_c";
unicode = 010F;
},
{
changeCount = 0;
export = 0;
glyphname = dcroat;
layers = (
{
layerId = "C0403F1F-3C96-483E-B2A6-FF5F8E230CEF";
name = Light;
paths = (
{
closed = 1;
nodes = (
"384 58 LINE",
"336 19 OFFCURVE",
"277 -6 OFFCURVE",
"220 -6 CURVE SMOOTH",
"156 -6 OFFCURVE",
"114 19 OFFCURVE",
"87 62 CURVE SMOOTH",
"60 105 OFFCURVE",
"50 164 OFFCURVE",
"50 232 CURVE SMOOTH",
"50 305 OFFCURVE",
"63 371 OFFCURVE",
"92 417 CURVE SMOOTH",
"121 463 OFFCURVE",
"167 491 OFFCURVE",
"234 491 CURVE SMOOTH",
"274 491 OFFCURVE",
"324 482 OFFCURVE",
"384 449 CURVE",
"384 555 LINE",
"219 555 LINE",
"219 578 LINE",
"384 578 LINE",
"385 708 LINE",
"407 708 LINE",
"407 578 LINE",
"462 578 LINE",
"462 555 LINE",
"407 555 LINE",
"407 0 LINE",
"384 0 LINE"
);
},
{
closed = 1;
nodes = (
"384 422 LINE",
"345 446 OFFCURVE",
"290 468 OFFCURVE",
"233 468 CURVE SMOOTH",
"189 468 OFFCURVE",
"149 452 OFFCURVE",
"121 415 CURVE SMOOTH",
"93 378 OFFCURVE",
"75 318 OFFCURVE",
"75 230 CURVE SMOOTH",
"75 150 OFFCURVE",
"89 96 OFFCURVE",
"116 63 CURVE SMOOTH",
"143 30 OFFCURVE",
"179 16 OFFCURVE",
"226 16 CURVE SMOOTH",
"251 16 OFFCURVE",
"281 24 OFFCURVE",
"309 37 CURVE SMOOTH",
"337 49 OFFCURVE",
"364 66 OFFCURVE",
"384 86 CURVE"
);
}
);
width = 467;
}
);
leftKerningGroupId = "@MMK_R_c";
unicode = 0111;
},
{
changeCount = 0;
export = 0;
glyphname = dotlessi;
layers = (
{
layerId = "C0403F1F-3C96-483E-B2A6-FF5F8E230CEF";
name = Light;
paths = (
{
closed = 1;
nodes = (
"83 0 LINE",
"83 486 LINE",
"106 486 LINE",
"106 0 LINE"
);
}
);
width = 188;
}
);
unicode = 0131;
},
{
changeCount = 0;
color = 4;
glyphname = e;
layers = (
{
background = {
paths = (
{
closed = 1;
nodes = (
"303 491 OFFCURVE",
"343 470 OFFCURVE",
"369 440 CURVE SMOOTH",
"395 410 OFFCURVE",
"406 372 OFFCURVE",
"412 337 CURVE SMOOTH",
"415 320 OFFCURVE",
"416 304 OFFCURVE",
"416 290 CURVE SMOOTH",
"416 275 OFFCURVE",
"416 265 OFFCURVE",
"416 258 CURVE SMOOTH",
"416 242 LINE",
"75 242 LINE",
"75 182 OFFCURVE",
"82 125 OFFCURVE",
"107 84 CURVE SMOOTH",
"131 43 OFFCURVE",
"171 16 OFFCURVE",
"238 16 CURVE SMOOTH",
"298 16 OFFCURVE",
"337 27 OFFCURVE",
"392 54 CURVE",
"401 34 LINE",
"349 6 OFFCURVE",
"303 -7 OFFCURVE",
"242 -7 CURVE SMOOTH",
"165 -7 OFFCURVE",
"116 21 OFFCURVE",
"88 66 CURVE SMOOTH",
"59 110 OFFCURVE",
"50 172 OFFCURVE",
"50 239 CURVE SMOOTH",
"50 263 OFFCURVE",
"52 299 OFFCURVE",
"61 336 CURVE SMOOTH",
"70 373 OFFCURVE",
"87 413 OFFCURVE",
"116 442 CURVE SMOOTH",
"144 471 OFFCURVE",
"185 491 OFFCURVE",
"242 491 CURVE SMOOTH"
);
},
{
closed = 1;
nodes = (
"182 470 OFFCURVE",
"143 445 OFFCURVE",
"118 407 CURVE SMOOTH",
"93 369 OFFCURVE",
"81 316 OFFCURVE",
"76 264 CURVE",
"391 264 LINE",
"391 324 OFFCURVE",
"382 376 OFFCURVE",
"359 412 CURVE SMOOTH",
"335 448 OFFCURVE",
"298 470 OFFCURVE",
"241 470 CURVE SMOOTH"
);
}
);
};
layerId = "C0403F1F-3C96-483E-B2A6-FF5F8E230CEF";
name = Light;
paths = (
{
closed = 1;
nodes = (
"209 242 LINE",
"62 253 LINE",
"403 253 LINE",
"403 261 OFFCURVE",
"403 278 OFFCURVE",
"403 289 CURVE SMOOTH",
"403 303 OFFCURVE",
"402 317 OFFCURVE",
"399 332 CURVE SMOOTH",
"397 343 OFFCURVE",
"395 355 OFFCURVE",
"392 367 CURVE SMOOTH",
"386 388 OFFCURVE",
"377 408 OFFCURVE",
"364 425 CURVE SMOOTH",
"356 435 OFFCURVE",
"348 444 OFFCURVE",
"338 452 CURVE SMOOTH",
"314 469 OFFCURVE",
"283 480 OFFCURVE",
"241 480 CURVE SMOOTH",
"183 480 OFFCURVE",
"144 457 OFFCURVE",
"117 424 CURVE SMOOTH",
"95 397 OFFCURVE",
"80 362 OFFCURVE",
"72 327 CURVE SMOOTH",
"68 306 OFFCURVE",
"65 284 OFFCURVE",
"63 265 CURVE SMOOTH",
"63 260 OFFCURVE",
"62 244 OFFCURVE",
"62 240 CURVE SMOOTH",
"62 176 OFFCURVE",
"71 117 OFFCURVE",
"97 74 CURVE SMOOTH",
"124 32 OFFCURVE",
"168 4 OFFCURVE",
"240 4 CURVE SMOOTH",
"296 4 OFFCURVE",
"336 14 OFFCURVE",
"384 37 CURVE"
);
}
);
width = 462;
}
);
rightKerningGroupId = "@MMK_L_e";
unicode = 0065;
},
{
changeCount = 0;
export = 0;
glyphname = eacute;
layers = (
{
layerId = "C0403F1F-3C96-483E-B2A6-FF5F8E230CEF";
name = Light;
paths = (
{
closed = 1;
nodes = (
"303 491 OFFCURVE",
"343 470 OFFCURVE",
"369 440 CURVE SMOOTH",
"395 410 OFFCURVE",
"406 372 OFFCURVE",
"412 337 CURVE SMOOTH",
"415 320 OFFCURVE",
"416 304 OFFCURVE",
"416 290 CURVE SMOOTH",
"416 275 OFFCURVE",
"416 265 OFFCURVE",
"416 258 CURVE SMOOTH",
"416 242 LINE",
"75 242 LINE",
"75 182 OFFCURVE",
"82 125 OFFCURVE",
"107 84 CURVE SMOOTH",
"131 43 OFFCURVE",
"171 16 OFFCURVE",
"238 16 CURVE SMOOTH",
"298 16 OFFCURVE",
"337 27 OFFCURVE",
"392 54 CURVE",
"401 34 LINE",
"349 6 OFFCURVE",
"303 -7 OFFCURVE",
"242 -7 CURVE SMOOTH",
"165 -7 OFFCURVE",
"116 21 OFFCURVE",
"88 66 CURVE SMOOTH",
"59 110 OFFCURVE",
"50 172 OFFCURVE",
"50 239 CURVE SMOOTH",
"50 263 OFFCURVE",
"52 299 OFFCURVE",
"61 336 CURVE SMOOTH",
"70 373 OFFCURVE",
"87 413 OFFCURVE",
"116 442 CURVE SMOOTH",
"144 471 OFFCURVE",
"185 491 OFFCURVE",
"242 491 CURVE SMOOTH"
);
},
{
closed = 1;
nodes = (
"182 470 OFFCURVE",
"143 445 OFFCURVE",
"118 407 CURVE SMOOTH",
"93 369 OFFCURVE",
"81 316 OFFCURVE",
"76 264 CURVE",
"391 264 LINE",
"391 324 OFFCURVE",
"382 376 OFFCURVE",
"359 412 CURVE SMOOTH",
"335 448 OFFCURVE",
"298 470 OFFCURVE",
"241 470 CURVE SMOOTH"
);
},
{
closed = 1;
nodes = (
"209 564 LINE",
"309 707 LINE",
"335 685 LINE",
"224 554 LINE"
);
}
);
width = 462;
}
);
leftKerningGroupId = "@MMK_R_c";
rightKerningGroupId = "@MMK_L_e";
unicode = 00E9;
},
{
changeCount = 0;
export = 0;
glyphname = ebreve;
layers = (
{
layerId = "C0403F1F-3C96-483E-B2A6-FF5F8E230CEF";
name = Light;
paths = (
{
closed = 1;
nodes = (
"303 491 OFFCURVE",
"343 470 OFFCURVE",
"369 440 CURVE SMOOTH",
"395 410 OFFCURVE",
"406 372 OFFCURVE",
"412 337 CURVE SMOOTH",
"415 320 OFFCURVE",
"416 304 OFFCURVE",
"416 290 CURVE SMOOTH",
"416 275 OFFCURVE",
"416 265 OFFCURVE",
"416 258 CURVE SMOOTH",
"416 242 LINE",
"75 242 LINE",
"75 182 OFFCURVE",
"82 125 OFFCURVE",
"107 84 CURVE SMOOTH",
"131 43 OFFCURVE",
"171 16 OFFCURVE",
"238 16 CURVE SMOOTH",
"298 16 OFFCURVE",
"337 27 OFFCURVE",
"392 54 CURVE",
"401 34 LINE",
"349 6 OFFCURVE",
"303 -7 OFFCURVE",
"242 -7 CURVE SMOOTH",
"165 -7 OFFCURVE",
"116 21 OFFCURVE",
"88 66 CURVE SMOOTH",
"59 110 OFFCURVE",
"50 172 OFFCURVE",
"50 239 CURVE SMOOTH",
"50 263 OFFCURVE",
"52 299 OFFCURVE",
"61 336 CURVE SMOOTH",
"70 373 OFFCURVE",
"87 413 OFFCURVE",
"116 442 CURVE SMOOTH",
"144 471 OFFCURVE",
"185 491 OFFCURVE",
"242 491 CURVE SMOOTH"
);
},
{
closed = 1;
nodes = (
"182 470 OFFCURVE",
"143 445 OFFCURVE",
"118 407 CURVE SMOOTH",
"93 369 OFFCURVE",
"81 316 OFFCURVE",
"76 264 CURVE",
"391 264 LINE",
"391 324 OFFCURVE",
"382 376 OFFCURVE",
"359 412 CURVE SMOOTH",
"335 448 OFFCURVE",
"298 470 OFFCURVE",
"241 470 CURVE SMOOTH"
);
},
{
closed = 1;
nodes = (
"172 566 OFFCURVE",
"123 608 OFFCURVE",
"94 656 CURVE",
"118 670 LINE",
"149 623 OFFCURVE",
"190 592 OFFCURVE",
"234 592 CURVE SMOOTH",
"270 592 OFFCURVE",
"312 611 OFFCURVE",
"367 666 CURVE",
"380 657 LINE",
"328 588 OFFCURVE",
"277 566 OFFCURVE",
"232 566 CURVE SMOOTH"
);
}
);
width = 462;
}
);
leftKerningGroupId = "@MMK_R_c";
rightKerningGroupId = "@MMK_L_e";
unicode = 0115;
},
{
changeCount = 0;
export = 0;
glyphname = ecaron;
layers = (
{
layerId = "C0403F1F-3C96-483E-B2A6-FF5F8E230CEF";
name = Light;
paths = (
{
closed = 1;
nodes = (
"303 491 OFFCURVE",
"343 470 OFFCURVE",
"369 440 CURVE SMOOTH",
"395 410 OFFCURVE",
"406 372 OFFCURVE",
"412 337 CURVE SMOOTH",
"415 320 OFFCURVE",
"416 304 OFFCURVE",
"416 290 CURVE SMOOTH",
"416 275 OFFCURVE",
"416 265 OFFCURVE",
"416 258 CURVE SMOOTH",
"416 242 LINE",
"75 242 LINE",
"75 182 OFFCURVE",
"82 125 OFFCURVE",
"107 84 CURVE SMOOTH",
"131 43 OFFCURVE",
"171 16 OFFCURVE",
"238 16 CURVE SMOOTH",
"298 16 OFFCURVE",
"337 27 OFFCURVE",
"392 54 CURVE",
"401 34 LINE",
"349 6 OFFCURVE",
"303 -7 OFFCURVE",
"242 -7 CURVE SMOOTH",
"165 -7 OFFCURVE",
"116 21 OFFCURVE",
"88 66 CURVE SMOOTH",
"59 110 OFFCURVE",
"50 172 OFFCURVE",
"50 239 CURVE SMOOTH",
"50 263 OFFCURVE",
"52 299 OFFCURVE",
"61 336 CURVE SMOOTH",
"70 373 OFFCURVE",
"87 413 OFFCURVE",
"116 442 CURVE SMOOTH",
"144 471 OFFCURVE",
"185 491 OFFCURVE",
"242 491 CURVE SMOOTH"
);
},
{
closed = 1;
nodes = (
"182 470 OFFCURVE",
"143 445 OFFCURVE",
"118 407 CURVE SMOOTH",
"93 369 OFFCURVE",
"81 316 OFFCURVE",
"76 264 CURVE",
"391 264 LINE",
"391 324 OFFCURVE",
"382 376 OFFCURVE",
"359 412 CURVE SMOOTH",
"335 448 OFFCURVE",
"298 470 OFFCURVE",
"241 470 CURVE SMOOTH"
);
},
{
closed = 1;
nodes = (
"378 682 LINE",
"388 670 LINE",
"260 548 LINE",
"232 548 LINE",
"103 671 LINE",
"114 683 LINE",
"246 580 LINE"
);
}
);
width = 462;
}
);
leftKerningGroupId = "@MMK_R_c";
rightKerningGroupId = "@MMK_L_e";
unicode = 011B;
},
{
changeCount = 0;
export = 0;
glyphname = ecircumflex;
layers = (
{
layerId = "C0403F1F-3C96-483E-B2A6-FF5F8E230CEF";
name = Light;
paths = (
{
closed = 1;
nodes = (
"303 491 OFFCURVE",
"343 470 OFFCURVE",
"369 440 CURVE SMOOTH",
"395 410 OFFCURVE",
"406 372 OFFCURVE",
"412 337 CURVE SMOOTH",
"415 320 OFFCURVE",
"416 304 OFFCURVE",
"416 290 CURVE SMOOTH",
"416 275 OFFCURVE",
"416 265 OFFCURVE",
"416 258 CURVE SMOOTH",
"416 242 LINE",
"75 242 LINE",
"75 182 OFFCURVE",
"82 125 OFFCURVE",
"107 84 CURVE SMOOTH",
"131 43 OFFCURVE",
"171 16 OFFCURVE",
"238 16 CURVE SMOOTH",
"298 16 OFFCURVE",
"337 27 OFFCURVE",
"392 54 CURVE",
"401 34 LINE",
"349 6 OFFCURVE",
"303 -7 OFFCURVE",
"242 -7 CURVE SMOOTH",
"165 -7 OFFCURVE",
"116 21 OFFCURVE",
"88 66 CURVE SMOOTH",
"59 110 OFFCURVE",
"50 172 OFFCURVE",
"50 239 CURVE SMOOTH",
"50 263 OFFCURVE",
"52 299 OFFCURVE",
"61 336 CURVE SMOOTH",
"70 373 OFFCURVE",
"87 413 OFFCURVE",
"116 442 CURVE SMOOTH",
"144 471 OFFCURVE",
"185 491 OFFCURVE",
"242 491 CURVE SMOOTH"
);
},
{
closed = 1;
nodes = (
"182 470 OFFCURVE",
"143 445 OFFCURVE",
"118 407 CURVE SMOOTH",
"93 369 OFFCURVE",
"81 316 OFFCURVE",
"76 264 CURVE",
"391 264 LINE",
"391 324 OFFCURVE",
"382 376 OFFCURVE",
"359 412 CURVE SMOOTH",
"335 448 OFFCURVE",
"298 470 OFFCURVE",
"241 470 CURVE SMOOTH"
);
},
{
closed = 1;
nodes = (
"247 635 LINE",
"115 532 LINE",
"104 544 LINE",
"233 667 LINE",
"261 667 LINE",
"389 545 LINE",
"379 533 LINE"
);
}
);
width = 462;
}
);
leftKerningGroupId = "@MMK_R_c";
rightKerningGroupId = "@MMK_L_e";
unicode = 00EA;
},
{
changeCount = 0;
export = 0;
glyphname = edieresis;
layers = (
{
layerId = "C0403F1F-3C96-483E-B2A6-FF5F8E230CEF";
name = Light;
paths = (
{
closed = 1;
nodes = (
"303 491 OFFCURVE",
"343 470 OFFCURVE",
"369 440 CURVE SMOOTH",
"395 410 OFFCURVE",
"406 372 OFFCURVE",
"412 337 CURVE SMOOTH",
"415 320 OFFCURVE",
"416 304 OFFCURVE",
"416 290 CURVE SMOOTH",
"416 275 OFFCURVE",
"416 265 OFFCURVE",
"416 258 CURVE SMOOTH",
"416 242 LINE",
"75 242 LINE",
"75 182 OFFCURVE",
"82 125 OFFCURVE",
"107 84 CURVE SMOOTH",
"131 43 OFFCURVE",
"171 16 OFFCURVE",
"238 16 CURVE SMOOTH",
"298 16 OFFCURVE",
"337 27 OFFCURVE",
"392 54 CURVE",
"401 34 LINE",
"349 6 OFFCURVE",
"303 -7 OFFCURVE",
"242 -7 CURVE SMOOTH",
"165 -7 OFFCURVE",
"116 21 OFFCURVE",
"88 66 CURVE SMOOTH",
"59 110 OFFCURVE",
"50 172 OFFCURVE",
"50 239 CURVE SMOOTH",
"50 263 OFFCURVE",
"52 299 OFFCURVE",
"61 336 CURVE SMOOTH",
"70 373 OFFCURVE",
"87 413 OFFCURVE",
"116 442 CURVE SMOOTH",
"144 471 OFFCURVE",
"185 491 OFFCURVE",
"242 491 CURVE SMOOTH"
);
},
{
closed = 1;
nodes = (
"182 470 OFFCURVE",
"143 445 OFFCURVE",
"118 407 CURVE SMOOTH",
"93 369 OFFCURVE",
"81 316 OFFCURVE",
"76 264 CURVE",
"391 264 LINE",
"391 324 OFFCURVE",
"382 376 OFFCURVE",
"359 412 CURVE SMOOTH",
"335 448 OFFCURVE",
"298 470 OFFCURVE",
"241 470 CURVE SMOOTH"
);
},
{
closed = 1;
nodes = (
"207 593 OFFCURVE",
"197 583 OFFCURVE",
"182 583 CURVE SMOOTH",
"169 583 OFFCURVE",
"158 593 OFFCURVE",
"158 608 CURVE SMOOTH",
"158 623 OFFCURVE",
"169 633 OFFCURVE",
"182 633 CURVE SMOOTH",
"197 633 OFFCURVE",
"207 623 OFFCURVE",
"207 608 CURVE SMOOTH"
);
},
{
closed = 1;
nodes = (
"340 593 OFFCURVE",
"330 583 OFFCURVE",
"315 583 CURVE SMOOTH",
"302 583 OFFCURVE",
"291 593 OFFCURVE",
"291 608 CURVE SMOOTH",
"291 623 OFFCURVE",
"302 633 OFFCURVE",
"315 633 CURVE SMOOTH",
"330 633 OFFCURVE",
"340 623 OFFCURVE",
"340 608 CURVE SMOOTH"
);
}
);
width = 462;
}
);
leftKerningGroupId = "@MMK_R_c";
rightKerningGroupId = "@MMK_L_e";
unicode = 00EB;
},
{
changeCount = 0;
export = 0;
glyphname = edotaccent;
layers = (
{
layerId = "C0403F1F-3C96-483E-B2A6-FF5F8E230CEF";
name = Light;
paths = (
{
closed = 1;
nodes = (
"303 491 OFFCURVE",
"343 470 OFFCURVE",
"369 440 CURVE SMOOTH",
"395 410 OFFCURVE",
"406 372 OFFCURVE",
"412 337 CURVE SMOOTH",
"415 320 OFFCURVE",
"416 304 OFFCURVE",
"416 290 CURVE SMOOTH",
"416 275 OFFCURVE",
"416 265 OFFCURVE",
"416 258 CURVE SMOOTH",
"416 242 LINE",
"75 242 LINE",
"75 182 OFFCURVE",
"82 125 OFFCURVE",
"107 84 CURVE SMOOTH",
"131 43 OFFCURVE",
"171 16 OFFCURVE",
"238 16 CURVE SMOOTH",
"298 16 OFFCURVE",
"337 27 OFFCURVE",
"392 54 CURVE",
"401 34 LINE",
"349 6 OFFCURVE",
"303 -7 OFFCURVE",
"242 -7 CURVE SMOOTH",
"165 -7 OFFCURVE",
"116 21 OFFCURVE",
"88 66 CURVE SMOOTH",
"59 110 OFFCURVE",
"50 172 OFFCURVE",
"50 239 CURVE SMOOTH",
"50 263 OFFCURVE",
"52 299 OFFCURVE",
"61 336 CURVE SMOOTH",
"70 373 OFFCURVE",
"87 413 OFFCURVE",
"116 442 CURVE SMOOTH",
"144 471 OFFCURVE",
"185 491 OFFCURVE",
"242 491 CURVE SMOOTH"
);
},
{
closed = 1;
nodes = (
"182 470 OFFCURVE",
"143 445 OFFCURVE",
"118 407 CURVE SMOOTH",
"93 369 OFFCURVE",
"81 316 OFFCURVE",
"76 264 CURVE",
"391 264 LINE",
"391 324 OFFCURVE",
"382 376 OFFCURVE",
"359 412 CURVE SMOOTH",
"335 448 OFFCURVE",
"298 470 OFFCURVE",
"241 470 CURVE SMOOTH"
);
},
{
closed = 1;
nodes = (
"268 575 OFFCURVE",
"256 563 OFFCURVE",
"243 563 CURVE SMOOTH",
"230 563 OFFCURVE",
"218 575 OFFCURVE",
"218 588 CURVE SMOOTH",
"218 603 OFFCURVE",
"230 614 OFFCURVE",
"243 614 CURVE SMOOTH",
"256 614 OFFCURVE",
"268 603 OFFCURVE",
"268 588 CURVE SMOOTH"
);
}
);
width = 462;
}
);
leftKerningGroupId = "@MMK_R_c";
rightKerningGroupId = "@MMK_L_e";
unicode = 0117;
},
{
changeCount = 0;
export = 0;
glyphname = egrave;
layers = (
{
layerId = "C0403F1F-3C96-483E-B2A6-FF5F8E230CEF";
name = Light;
paths = (
{
closed = 1;
nodes = (
"303 491 OFFCURVE",
"343 470 OFFCURVE",
"369 440 CURVE SMOOTH",
"395 410 OFFCURVE",
"406 372 OFFCURVE",
"412 337 CURVE SMOOTH",
"415 320 OFFCURVE",
"416 304 OFFCURVE",
"416 290 CURVE SMOOTH",
"416 275 OFFCURVE",
"416 265 OFFCURVE",
"416 258 CURVE SMOOTH",
"416 242 LINE",
"75 242 LINE",
"75 182 OFFCURVE",
"82 125 OFFCURVE",
"107 84 CURVE SMOOTH",
"131 43 OFFCURVE",
"171 16 OFFCURVE",
"238 16 CURVE SMOOTH",
"298 16 OFFCURVE",
"337 27 OFFCURVE",
"392 54 CURVE",
"401 34 LINE",
"349 6 OFFCURVE",
"303 -7 OFFCURVE",
"242 -7 CURVE SMOOTH",
"165 -7 OFFCURVE",
"116 21 OFFCURVE",
"88 66 CURVE SMOOTH",
"59 110 OFFCURVE",
"50 172 OFFCURVE",
"50 239 CURVE SMOOTH",
"50 263 OFFCURVE",
"52 299 OFFCURVE",
"61 336 CURVE SMOOTH",
"70 373 OFFCURVE",
"87 413 OFFCURVE",
"116 442 CURVE SMOOTH",
"144 471 OFFCURVE",
"185 491 OFFCURVE",
"242 491 CURVE SMOOTH"
);
},
{
closed = 1;
nodes = (
"182 470 OFFCURVE",
"143 445 OFFCURVE",
"118 407 CURVE SMOOTH",
"93 369 OFFCURVE",
"81 316 OFFCURVE",
"76 264 CURVE",
"391 264 LINE",
"391 324 OFFCURVE",
"382 376 OFFCURVE",
"359 412 CURVE SMOOTH",
"335 448 OFFCURVE",
"298 470 OFFCURVE",
"241 470 CURVE SMOOTH"
);
},
{
closed = 1;
nodes = (
"247 554 LINE",
"136 685 LINE",
"162 707 LINE",
"262 564 LINE"
);
}
);
width = 462;
}
);
leftKerningGroupId = "@MMK_R_c";
rightKerningGroupId = "@MMK_L_e";
unicode = 00E8;
},
{
changeCount = 0;
export = 0;
glyphname = emacron;
layers = (
{
layerId = "C0403F1F-3C96-483E-B2A6-FF5F8E230CEF";
name = Light;
paths = (
{
closed = 1;
nodes = (
"303 491 OFFCURVE",
"343 470 OFFCURVE",
"369 440 CURVE SMOOTH",
"395 410 OFFCURVE",
"406 372 OFFCURVE",
"412 337 CURVE SMOOTH",
"415 320 OFFCURVE",
"416 304 OFFCURVE",
"416 290 CURVE SMOOTH",
"416 275 OFFCURVE",
"416 265 OFFCURVE",
"416 258 CURVE SMOOTH",
"416 242 LINE",
"75 242 LINE",
"75 182 OFFCURVE",
"82 125 OFFCURVE",
"107 84 CURVE SMOOTH",
"131 43 OFFCURVE",
"171 16 OFFCURVE",
"238 16 CURVE SMOOTH",
"298 16 OFFCURVE",
"337 27 OFFCURVE",
"392 54 CURVE",
"401 34 LINE",
"349 6 OFFCURVE",
"303 -7 OFFCURVE",
"242 -7 CURVE SMOOTH",
"165 -7 OFFCURVE",
"116 21 OFFCURVE",
"88 66 CURVE SMOOTH",
"59 110 OFFCURVE",
"50 172 OFFCURVE",
"50 239 CURVE SMOOTH",
"50 263 OFFCURVE",
"52 299 OFFCURVE",
"61 336 CURVE SMOOTH",
"70 373 OFFCURVE",
"87 413 OFFCURVE",
"116 442 CURVE SMOOTH",
"144 471 OFFCURVE",
"185 491 OFFCURVE",
"242 491 CURVE SMOOTH"
);
},
{
closed = 1;
nodes = (
"182 470 OFFCURVE",
"143 445 OFFCURVE",
"118 407 CURVE SMOOTH",
"93 369 OFFCURVE",
"81 316 OFFCURVE",
"76 264 CURVE",
"391 264 LINE",
"391 324 OFFCURVE",
"382 376 OFFCURVE",
"359 412 CURVE SMOOTH",
"335 448 OFFCURVE",
"298 470 OFFCURVE",
"241 470 CURVE SMOOTH"
);
},
{
closed = 1;
nodes = (
"390 626 LINE",
"390 600 LINE",
"104 600 LINE",
"104 626 LINE"
);
}
);
width = 462;
}
);
leftKerningGroupId = "@MMK_R_c";
rightKerningGroupId = "@MMK_L_e";
unicode = 0113;
},
{
changeCount = 0;
export = 0;
glyphname = eng;
layers = (
{
layerId = "C0403F1F-3C96-483E-B2A6-FF5F8E230CEF";
name = Light;
paths = (
{
closed = 1;
nodes = (
"355 -124 OFFCURVE",
"376 -103 OFFCURVE",
"376 -62 CURVE SMOOTH",
"376 334 LINE SMOOTH",
"376 374 OFFCURVE",
"375 408 OFFCURVE",
"362 432 CURVE SMOOTH",
"349 455 OFFCURVE",
"323 469 OFFCURVE",
"272 469 CURVE SMOOTH",
"243 469 OFFCURVE",
"209 461 OFFCURVE",
"176 450 CURVE SMOOTH",
"143 438 OFFCURVE",
"109 422 OFFCURVE",
"84 409 CURVE",
"84 0 LINE",
"61 0 LINE",
"60 486 LINE",
"85 486 LINE",
"85 434 LINE",
"152 471 OFFCURVE",
"226 492 OFFCURVE",
"273 492 CURVE SMOOTH",
"333 492 OFFCURVE",
"364 474 OFFCURVE",
"381 449 CURVE SMOOTH",
"398 424 OFFCURVE",
"400 392 OFFCURVE",
"400 363 CURVE SMOOTH",
"400 -56 LINE SMOOTH",
"400 -116 OFFCURVE",
"375 -146 OFFCURVE",
"307 -146 CURVE SMOOTH",
"288 -146 OFFCURVE",
"268 -145 OFFCURVE",
"245 -138 CURVE",
"250 -117 LINE",
"267 -122 OFFCURVE",
"289 -124 OFFCURVE",
"304 -124 CURVE SMOOTH"
);
}
);
width = 460;
}
);
leftKerningGroupId = "@MMK_R_i";
rightKerningGroupId = "@MMK_L_h";
unicode = 014B;
},
{
changeCount = 0;
export = 0;
glyphname = eogonek;
layers = (
{
layerId = "C0403F1F-3C96-483E-B2A6-FF5F8E230CEF";
name = Light;
paths = (
{
closed = 1;
nodes = (
"303 491 OFFCURVE",
"343 470 OFFCURVE",
"369 440 CURVE SMOOTH",
"395 410 OFFCURVE",
"406 372 OFFCURVE",
"412 337 CURVE SMOOTH",
"415 320 OFFCURVE",
"416 304 OFFCURVE",
"416 290 CURVE SMOOTH",
"416 275 OFFCURVE",
"416 265 OFFCURVE",
"416 258 CURVE SMOOTH",
"416 242 LINE",
"75 242 LINE",
"75 182 OFFCURVE",
"82 125 OFFCURVE",
"107 84 CURVE SMOOTH",
"131 43 OFFCURVE",
"171 16 OFFCURVE",
"238 16 CURVE SMOOTH",
"298 16 OFFCURVE",
"337 27 OFFCURVE",
"392 54 CURVE",
"401 34 LINE",
"386 26 OFFCURVE",
"373 19 OFFCURVE",
"358 14 CURVE",
"306 -35 OFFCURVE",
"294 -79 OFFCURVE",
"294 -106 CURVE SMOOTH",
"294 -146 OFFCURVE",
"323 -157 OFFCURVE",
"358 -157 CURVE SMOOTH",
"385 -157 OFFCURVE",
"408 -152 OFFCURVE",
"427 -147 CURVE",
"432 -161 LINE",
"403 -176 OFFCURVE",
"371 -182 OFFCURVE",
"346 -182 CURVE SMOOTH",
"287 -182 OFFCURVE",
"264 -152 OFFCURVE",
"264 -116 CURVE SMOOTH",
"264 -85 OFFCURVE",
"276 -45 OFFCURVE",
"323 2 CURVE",
"298 -4 OFFCURVE",
"271 -7 OFFCURVE",
"242 -7 CURVE SMOOTH",
"165 -7 OFFCURVE",
"116 21 OFFCURVE",
"88 66 CURVE SMOOTH",
"59 110 OFFCURVE",
"50 172 OFFCURVE",
"50 239 CURVE SMOOTH",
"50 263 OFFCURVE",
"52 299 OFFCURVE",
"61 336 CURVE SMOOTH",
"70 373 OFFCURVE",
"87 413 OFFCURVE",
"116 442 CURVE SMOOTH",
"144 471 OFFCURVE",
"185 491 OFFCURVE",
"242 491 CURVE SMOOTH"
);
},
{
closed = 1;
nodes = (
"182 470 OFFCURVE",
"143 445 OFFCURVE",
"118 407 CURVE SMOOTH",
"93 369 OFFCURVE",
"81 316 OFFCURVE",
"76 264 CURVE",
"391 264 LINE",
"391 324 OFFCURVE",
"382 376 OFFCURVE",
"359 412 CURVE SMOOTH",
"335 448 OFFCURVE",
"298 470 OFFCURVE",
"241 470 CURVE SMOOTH"
);
}
);
width = 462;
}
);
leftKerningGroupId = "@MMK_R_c";
rightKerningGroupId = "@MMK_L_e";
unicode = 0119;
},
{
changeCount = 0;
export = 0;
glyphname = eth;
layers = (
{
layerId = "C0403F1F-3C96-483E-B2A6-FF5F8E230CEF";
name = Light;
paths = (
{
closed = 1;
nodes = (
"372 640 LINE",
"384 622 LINE",
"312 573 LINE",
"381 493 OFFCURVE",
"419 392 OFFCURVE",
"419 265 CURVE SMOOTH",
"419 240 OFFCURVE",
"417 201 OFFCURVE",
"409 161 CURVE SMOOTH",
"400 120 OFFCURVE",
"383 79 OFFCURVE",
"355 47 CURVE SMOOTH",
"326 15 OFFCURVE",
"285 -7 OFFCURVE",
"225 -7 CURVE SMOOTH",
"153 -7 OFFCURVE",
"107 25 OFFCURVE",
"79 69 CURVE SMOOTH",
"51 113 OFFCURVE",
"40 167 OFFCURVE",
"40 214 CURVE SMOOTH",
"40 259 OFFCURVE",
"51 318 OFFCURVE",
"80 366 CURVE SMOOTH",
"109 413 OFFCURVE",
"158 449 OFFCURVE",
"233 449 CURVE SMOOTH",
"302 449 OFFCURVE",
"354 419 OFFCURVE",
"381 388 CURVE",
"365 456 OFFCURVE",
"335 512 OFFCURVE",
"292 560 CURVE",
"201 498 LINE",
"189 515 LINE",
"278 576 LINE",
"238 619 OFFCURVE",
"190 652 OFFCURVE",
"134 681 CURVE",
"144 699 LINE",
"204 668 OFFCURVE",
"256 633 OFFCURVE",
"297 589 CURVE"
);
},
{
closed = 1;
nodes = (
"168 428 OFFCURVE",
"127 397 OFFCURVE",
"101 355 CURVE SMOOTH",
"75 313 OFFCURVE",
"65 259 OFFCURVE",
"65 215 CURVE SMOOTH",
"65 170 OFFCURVE",
"74 120 OFFCURVE",
"99 81 CURVE SMOOTH",
"124 42 OFFCURVE",
"165 15 OFFCURVE",
"232 15 CURVE SMOOTH",
"281 15 OFFCURVE",
"317 35 OFFCURVE",
"341 64 CURVE SMOOTH",
"365 93 OFFCURVE",
"378 132 OFFCURVE",
"386 171 CURVE SMOOTH",
"394 210 OFFCURVE",
"395 247 OFFCURVE",
"395 274 CURVE SMOOTH",
"395 300 OFFCURVE",
"393 325 OFFCURVE",
"389 349 CURVE",
"354 398 OFFCURVE",
"294 428 OFFCURVE",
"233 428 CURVE SMOOTH"
);
}
);
width = 454;
}
);
leftKerningGroupId = "@MMK_R_c";
unicode = 00F0;
},
{
changeCount = 0;
color = 4;
glyphname = f;
layers = (
{
background = {
paths = (
{
closed = 1;
nodes = (
"262 717 OFFCURVE",
"286 715 OFFCURVE",
"310 710 CURVE",
"307 690 LINE",
"286 693 OFFCURVE",
"261 696 OFFCURVE",
"242 696 CURVE SMOOTH",
"165 696 OFFCURVE",
"129 667 OFFCURVE",
"129 587 CURVE SMOOTH",
"129 486 LINE",
"276 486 LINE",
"276 463 LINE",
"129 463 LINE",
"128 0 LINE",
"106 0 LINE",
"106 463 LINE",
"37 463 LINE",
"37 479 LINE",
"106 489 LINE",
"106 584 LINE SMOOTH",
"106 680 OFFCURVE",
"155 717 OFFCURVE",
"239 717 CURVE SMOOTH"
);
}
);
};
layerId = "C0403F1F-3C96-483E-B2A6-FF5F8E230CEF";
name = Light;
paths = (
{
closed = 1;
nodes = (
"223 555 LINE",
"118 0 LINE",
"118 586 LINE SMOOTH",
"118 674 OFFCURVE",
"161 707 OFFCURVE",
"241 707 CURVE SMOOTH",
"257 707 OFFCURVE",
"274 705 OFFCURVE",
"291 703 CURVE SMOOTH"
);
},
{
closed = 1;
nodes = (
"151 512 LINE",
"66 475 LINE",
"248 475 LINE"
);
}
);
width = 300;
}
);
rightKerningGroupId = "@MMK_L_f";
unicode = 0066;
},
{
changeCount = 0;
color = 4;
glyphname = g;
layers = (
{
background = {
paths = (
{
closed = 1;
nodes = (
"361 456 LINE",
"401 429 OFFCURVE",
"418 382 OFFCURVE",
"418 331 CURVE SMOOTH",
"418 230 OFFCURVE",
"344 168 OFFCURVE",
"232 168 CURVE SMOOTH",
"169 168 LINE SMOOTH",
"142 168 OFFCURVE",
"118 167 OFFCURVE",
"100 160 CURVE",
"82 152 OFFCURVE",
"70 140 OFFCURVE",
"70 119 CURVE SMOOTH",
"70 89 OFFCURVE",
"93 74 OFFCURVE",
"140 74 CURVE SMOOTH",
"280 74 LINE SMOOTH",
"400 74 OFFCURVE",
"445 19 OFFCURVE",
"445 -61 CURVE SMOOTH",
"445 -112 OFFCURVE",
"422 -151 OFFCURVE",
"384 -178 CURVE SMOOTH",
"346 -205 OFFCURVE",
"293 -219 OFFCURVE",
"236 -219 CURVE SMOOTH",
"163 -219 OFFCURVE",
"114 -202 OFFCURVE",
"85 -176 CURVE SMOOTH",
"56 -150 OFFCURVE",
"45 -114 OFFCURVE",
"45 -77 CURVE SMOOTH",
"45 -18 OFFCURVE",
"74 32 OFFCURVE",
"109 55 CURVE",
"65 59 OFFCURVE",
"47 83 OFFCURVE",
"47 116 CURVE SMOOTH",
"47 145 OFFCURVE",
"60 162 OFFCURVE",
"79 173 CURVE SMOOTH",
"98 184 OFFCURVE",
"122 188 OFFCURVE",
"142 188 CURVE",
"143 189 LINE",
"100 209 OFFCURVE",
"64 259 OFFCURVE",
"64 328 CURVE SMOOTH",
"64 388 OFFCURVE",
"87 429 OFFCURVE",
"120 455 CURVE SMOOTH",
"152 481 OFFCURVE",
"194 492 OFFCURVE",
"234 492 CURVE SMOOTH",
"261 492 OFFCURVE",
"289 490 OFFCURVE",
"317 481 CURVE",
"458 481 LINE",
"458 458 LINE",
"362 458 LINE"
);
},
{
closed = 1;
nodes = (
"147 53 LINE",
"95 30 OFFCURVE",
"69 -26 OFFCURVE",
"69 -71 CURVE SMOOTH",
"69 -103 OFFCURVE",
"77 -135 OFFCURVE",
"102 -158 CURVE SMOOTH",
"127 -181 OFFCURVE",
"170 -196 OFFCURVE",
"239 -196 CURVE SMOOTH",
"290 -196 OFFCURVE",
"336 -184 OFFCURVE",
"369 -161 CURVE SMOOTH",
"401 -138 OFFCURVE",
"421 -105 OFFCURVE",
"421 -62 CURVE SMOOTH",
"421 -37 OFFCURVE",
"416 -9 OFFCURVE",
"396 14 CURVE SMOOTH",
"376 37 OFFCURVE",
"340 53 OFFCURVE",
"277 53 CURVE SMOOTH"
);
},
{
closed = 1;
nodes = (
"395 360 OFFCURVE",
"386 395 OFFCURVE",
"362 423 CURVE SMOOTH",
"338 450 OFFCURVE",
"299 470 OFFCURVE",
"240 470 CURVE SMOOTH",
"143 470 OFFCURVE",
"88 415 OFFCURVE",
"88 328 CURVE SMOOTH",
"88 287 OFFCURVE",
"103 253 OFFCURVE",
"128 229 CURVE SMOOTH",
"152 205 OFFCURVE",
"186 191 OFFCURVE",
"226 191 CURVE SMOOTH",
"329 191 OFFCURVE",
"395 238 OFFCURVE",
"395 331 CURVE SMOOTH"
);
}
);
};
layerId = "C0403F1F-3C96-483E-B2A6-FF5F8E230CEF";
name = Light;
paths = (
{
closed = 1;
nodes = (
"231 85 LINE",
"129 -6 LINE",
"86 -29 OFFCURVE",
"58 -63 OFFCURVE",
"58 -115 CURVE SMOOTH",
"58 -150 OFFCURVE",
"68 -169 OFFCURVE",
"95 -194 CURVE SMOOTH",
"122 -218 OFFCURVE",
"168 -234 OFFCURVE",
"239 -234 CURVE SMOOTH",
"293 -234 OFFCURVE",
"342 -224 OFFCURVE",
"378 -199 CURVE SMOOTH",
"413 -174 OFFCURVE",
"433 -150 OFFCURVE",
"433 -108 CURVE SMOOTH",
"433 -72 OFFCURVE",
"419 -46 OFFCURVE",
"382 -22 CURVE SMOOTH",
"360 -8 OFFCURVE",
"328 4 OFFCURVE",
"280 4 CURVE SMOOTH",
"158 4 LINE",
"126 5 LINE SMOOTH",
"80 7 OFFCURVE",
"60 45 OFFCURVE",
"60 76 CURVE SMOOTH",
"60 101 OFFCURVE",
"72 129 OFFCURVE",
"91 138 CURVE SMOOTH",
"109 147 OFFCURVE",
"133 150 OFFCURVE",
"157 150 CURVE SMOOTH",
"189 150 LINE",
"230 151 LINE SMOOTH",
"332 151 OFFCURVE",
"400 211 OFFCURVE",
"407 298 CURVE SMOOTH",
"408 303 OFFCURVE",
"408 313 OFFCURVE",
"408 318 CURVE SMOOTH",
"408 358 OFFCURVE",
"394 411 OFFCURVE",
"363 439 CURVE SMOOTH",
"354 448 OFFCURVE",
"341 458 OFFCURVE",
"321 467 CURVE SMOOTH",
"299 477 OFFCURVE",
"269 481 OFFCURVE",
"238 481 CURVE SMOOTH",
"215 481 OFFCURVE",
"192 477 OFFCURVE",
"172 470 CURVE SMOOTH",
"156 465 OFFCURVE",
"142 457 OFFCURVE",
"129 447 CURVE SMOOTH",
"124 442 OFFCURVE",
"119 438 OFFCURVE",
"114 433 CURVE SMOOTH",
"91 408 OFFCURVE",
"77 360 OFFCURVE",
"77 315 CURVE SMOOTH",
"77 310 OFFCURVE",
"78 302 OFFCURVE",
"78 297 CURVE SMOOTH",
"81 256 OFFCURVE",
"98 212 OFFCURVE",
"123 190 CURVE SMOOTH",
"131 183 OFFCURVE",
"139 177 OFFCURVE",
"148 172 CURVE SMOOTH",
"158 166 OFFCURVE",
"183 154 OFFCURVE",
"220 151 CURVE"
);
},
{
closed = 1;
nodes = (
"367 522 LINE",
"327 470 LINE",
"431 470 LINE"
);
}
);
width = 488;
}
);
unicode = 0067;
},
{
changeCount = 0;
export = 0;
glyphname = gbreve;
layers = (
{
layerId = "C0403F1F-3C96-483E-B2A6-FF5F8E230CEF";
name = Light;
paths = (
{
closed = 1;
nodes = (
"361 456 LINE",
"401 429 OFFCURVE",
"418 382 OFFCURVE",
"418 331 CURVE SMOOTH",
"418 230 OFFCURVE",
"344 168 OFFCURVE",
"232 168 CURVE SMOOTH",
"169 168 LINE SMOOTH",
"142 168 OFFCURVE",
"118 167 OFFCURVE",
"100 160 CURVE",
"82 152 OFFCURVE",
"70 140 OFFCURVE",
"70 119 CURVE SMOOTH",
"70 89 OFFCURVE",
"93 74 OFFCURVE",
"140 74 CURVE SMOOTH",
"280 74 LINE SMOOTH",
"400 74 OFFCURVE",
"445 19 OFFCURVE",
"445 -61 CURVE SMOOTH",
"445 -112 OFFCURVE",
"422 -151 OFFCURVE",
"384 -178 CURVE SMOOTH",
"346 -205 OFFCURVE",
"293 -219 OFFCURVE",
"236 -219 CURVE SMOOTH",
"163 -219 OFFCURVE",
"114 -202 OFFCURVE",
"85 -176 CURVE SMOOTH",
"56 -150 OFFCURVE",
"45 -114 OFFCURVE",
"45 -77 CURVE SMOOTH",
"45 -18 OFFCURVE",
"74 32 OFFCURVE",
"109 55 CURVE",
"65 59 OFFCURVE",
"47 83 OFFCURVE",
"47 116 CURVE SMOOTH",
"47 145 OFFCURVE",
"60 162 OFFCURVE",
"79 173 CURVE SMOOTH",
"98 184 OFFCURVE",
"122 188 OFFCURVE",
"142 188 CURVE",
"143 189 LINE",
"100 209 OFFCURVE",
"64 259 OFFCURVE",
"64 328 CURVE SMOOTH",
"64 388 OFFCURVE",
"87 429 OFFCURVE",
"120 455 CURVE SMOOTH",
"152 481 OFFCURVE",
"194 492 OFFCURVE",
"234 492 CURVE SMOOTH",
"261 492 OFFCURVE",
"289 490 OFFCURVE",
"317 481 CURVE",
"458 481 LINE",
"458 458 LINE",
"362 458 LINE"
);
},
{
closed = 1;
nodes = (
"147 53 LINE",
"95 30 OFFCURVE",
"69 -26 OFFCURVE",
"69 -71 CURVE SMOOTH",
"69 -103 OFFCURVE",
"77 -135 OFFCURVE",
"102 -158 CURVE SMOOTH",
"127 -181 OFFCURVE",
"170 -196 OFFCURVE",
"239 -196 CURVE SMOOTH",
"290 -196 OFFCURVE",
"336 -184 OFFCURVE",
"369 -161 CURVE SMOOTH",
"401 -138 OFFCURVE",
"421 -105 OFFCURVE",
"421 -62 CURVE SMOOTH",
"421 -37 OFFCURVE",
"416 -9 OFFCURVE",
"396 14 CURVE SMOOTH",
"376 37 OFFCURVE",
"340 53 OFFCURVE",
"277 53 CURVE SMOOTH"
);
},
{
closed = 1;
nodes = (
"395 360 OFFCURVE",
"386 395 OFFCURVE",
"362 423 CURVE SMOOTH",
"338 450 OFFCURVE",
"299 470 OFFCURVE",
"240 470 CURVE SMOOTH",
"143 470 OFFCURVE",
"88 415 OFFCURVE",
"88 328 CURVE SMOOTH",
"88 287 OFFCURVE",
"103 253 OFFCURVE",
"128 229 CURVE SMOOTH",
"152 205 OFFCURVE",
"186 191 OFFCURVE",
"226 191 CURVE SMOOTH",
"329 191 OFFCURVE",
"395 238 OFFCURVE",
"395 331 CURVE SMOOTH"
);
},
{
closed = 1;
nodes = (
"180 566 OFFCURVE",
"131 608 OFFCURVE",
"102 656 CURVE",
"126 670 LINE",
"157 623 OFFCURVE",
"198 592 OFFCURVE",
"242 592 CURVE SMOOTH",
"278 592 OFFCURVE",
"320 611 OFFCURVE",
"375 666 CURVE",
"388 657 LINE",
"336 588 OFFCURVE",
"285 566 OFFCURVE",
"240 566 CURVE SMOOTH"
);
}
);
width = 488;
}
);
leftKerningGroupId = "@MMK_R_c";
unicode = 011F;
},
{
changeCount = 0;
export = 0;
glyphname = gcircumflex;
layers = (
{
layerId = "C0403F1F-3C96-483E-B2A6-FF5F8E230CEF";
name = Light;
paths = (
{
closed = 1;
nodes = (
"361 456 LINE",
"401 429 OFFCURVE",
"418 382 OFFCURVE",
"418 331 CURVE SMOOTH",
"418 230 OFFCURVE",
"344 168 OFFCURVE",
"232 168 CURVE SMOOTH",
"169 168 LINE SMOOTH",
"142 168 OFFCURVE",
"118 167 OFFCURVE",
"100 160 CURVE",
"82 152 OFFCURVE",
"70 140 OFFCURVE",
"70 119 CURVE SMOOTH",
"70 89 OFFCURVE",
"93 74 OFFCURVE",
"140 74 CURVE SMOOTH",
"280 74 LINE SMOOTH",
"400 74 OFFCURVE",
"445 19 OFFCURVE",
"445 -61 CURVE SMOOTH",
"445 -112 OFFCURVE",
"422 -151 OFFCURVE",
"384 -178 CURVE SMOOTH",
"346 -205 OFFCURVE",
"293 -219 OFFCURVE",
"236 -219 CURVE SMOOTH",
"163 -219 OFFCURVE",
"114 -202 OFFCURVE",
"85 -176 CURVE SMOOTH",
"56 -150 OFFCURVE",
"45 -114 OFFCURVE",
"45 -77 CURVE SMOOTH",
"45 -18 OFFCURVE",
"74 32 OFFCURVE",
"109 55 CURVE",
"65 59 OFFCURVE",
"47 83 OFFCURVE",
"47 116 CURVE SMOOTH",
"47 145 OFFCURVE",
"60 162 OFFCURVE",
"79 173 CURVE SMOOTH",
"98 184 OFFCURVE",
"122 188 OFFCURVE",
"142 188 CURVE",
"143 189 LINE",
"100 209 OFFCURVE",
"64 259 OFFCURVE",
"64 328 CURVE SMOOTH",
"64 388 OFFCURVE",
"87 429 OFFCURVE",
"120 455 CURVE SMOOTH",
"152 481 OFFCURVE",
"194 492 OFFCURVE",
"234 492 CURVE SMOOTH",
"261 492 OFFCURVE",
"289 490 OFFCURVE",
"317 481 CURVE",
"458 481 LINE",
"458 458 LINE",
"362 458 LINE"
);
},
{
closed = 1;
nodes = (
"147 53 LINE",
"95 30 OFFCURVE",
"69 -26 OFFCURVE",
"69 -71 CURVE SMOOTH",
"69 -103 OFFCURVE",
"77 -135 OFFCURVE",
"102 -158 CURVE SMOOTH",
"127 -181 OFFCURVE",
"170 -196 OFFCURVE",
"239 -196 CURVE SMOOTH",
"290 -196 OFFCURVE",
"336 -184 OFFCURVE",
"369 -161 CURVE SMOOTH",
"401 -138 OFFCURVE",
"421 -105 OFFCURVE",
"421 -62 CURVE SMOOTH",
"421 -37 OFFCURVE",
"416 -9 OFFCURVE",
"396 14 CURVE SMOOTH",
"376 37 OFFCURVE",
"340 53 OFFCURVE",
"277 53 CURVE SMOOTH"
);
},
{
closed = 1;
nodes = (
"395 360 OFFCURVE",
"386 395 OFFCURVE",
"362 423 CURVE SMOOTH",
"338 450 OFFCURVE",
"299 470 OFFCURVE",
"240 470 CURVE SMOOTH",
"143 470 OFFCURVE",
"88 415 OFFCURVE",
"88 328 CURVE SMOOTH",
"88 287 OFFCURVE",
"103 253 OFFCURVE",
"128 229 CURVE SMOOTH",
"152 205 OFFCURVE",
"186 191 OFFCURVE",
"226 191 CURVE SMOOTH",
"329 191 OFFCURVE",
"395 238 OFFCURVE",
"395 331 CURVE SMOOTH"
);
},
{
closed = 1;
nodes = (
"239 653 LINE",
"107 550 LINE",
"96 562 LINE",
"225 685 LINE",
"253 685 LINE",
"381 563 LINE",
"371 551 LINE"
);
}
);
width = 488;
}
);
leftKerningGroupId = "@MMK_R_c";
unicode = 011D;
},
